<ttFont>
<head>
    <!-- Most of this table will be recalculated by the compiler -->
    <tableVersion value="1.0"/>
    <fontRevision value="1.002"/>
    <checkSumAdjustment value="0x8e5a2c92"/>
    <magicNumber value="0x5f0f3cf5"/>
    <flags value="00000000 00001111"/>
    <unitsPerEm value="1000"/>
    <created value="Sat Jan  4 16:14:24 2020"/>
    <modified value="Wed Feb  3 17:24:53 2021"/>
    <xMin value="-112"/>
    <yMin value="-265"/>
    <xMax value="1385"/>
    <yMax value="1174"/>
    <macStyle value="00000000 00000000"/>
    <lowestRecPPEM value="6"/>
    <fontDirectionHint value="2"/>
    <indexToLocFormat value="1"/>
    <glyphDataFormat value="0"/>
  </head>
    <TTGlyph name=".notdef" xMin="40" yMin="0" xMax="544" yMax="700">
      <contour>
        <pt x="40" y="35" on="1"/>
        <pt x="40" y="665" on="1"/>
        <pt x="40" y="682" on="0"/>
        <pt x="58" y="700" on="0"/>
        <pt x="75" y="700" on="1"/>
        <pt x="509" y="700" on="1"/>
        <pt x="526" y="700" on="0"/>
        <pt x="544" y="682" on="0"/>
        <pt x="544" y="665" on="1"/>
        <pt x="544" y="35" on="1"/>
        <pt x="544" y="18" on="0"/>
        <pt x="526" y="0" on="0"/>
        <pt x="509" y="0" on="1"/>
        <pt x="75" y="0" on="1"/>
        <pt x="58" y="0" on="0"/>
        <pt x="40" y="18" on="0"/>
      </contour>
      <contour>
        <pt x="509" y="670" on="1"/>
        <pt x="95" y="670" on="1"/>
        <pt x="92" y="670" on="0"/>
        <pt x="90" y="666" on="0"/>
        <pt x="92" y="664" on="1"/>
        <pt x="508" y="65" on="1"/>
        <pt x="510" y="62" on="0"/>
        <pt x="514" y="63" on="0"/>
        <pt x="514" y="67" on="1"/>
        <pt x="514" y="665" on="1"/>
        <pt x="514" y="667" on="0"/>
        <pt x="511" y="670" on="0"/>
      </contour>
      <contour>
        <pt x="70" y="633" on="1"/>
        <pt x="70" y="35" on="1"/>
        <pt x="70" y="33" on="0"/>
        <pt x="73" y="30" on="0"/>
        <pt x="75" y="30" on="1"/>
        <pt x="488" y="30" on="1"/>
        <pt x="491" y="30" on="0"/>
        <pt x="493" y="34" on="0"/>
        <pt x="491" y="36" on="1"/>
        <pt x="76" y="635" on="1"/>
        <pt x="74" y="638" on="0"/>
        <pt x="70" y="637" on="0"/>
      </contour>
    </TTGlyph>
    <TTGlyph name="A" xMin="25" yMin="0" xMax="675" yMax="700">
      <contour>
        <pt x="337" y="612" on="1"/>
        <pt x="360" y="613" on="1"/>
        <pt x="348" y="580" on="0"/>
        <pt x="306" y="449" on="0"/>
        <pt x="294" y="418" on="1"/>
        <pt x="135" y="0" on="1"/>
        <pt x="25" y="0" on="1"/>
        <pt x="296" y="700" on="1"/>
        <pt x="406" y="700" on="1"/>
        <pt x="675" y="0" on="1"/>
        <pt x="560" y="0" on="1"/>
        <pt x="400" y="422" on="1"/>
        <pt x="390" y="451" on="0"/>
        <pt x="349" y="579" on="0"/>
      </contour>
      <contour>
        <pt x="354" y="174" on="1"/>
        <pt x="145" y="174" on="1"/>
        <pt x="185" y="278" on="1"/>
        <pt x="354" y="278" on="1"/>
      </contour>
      <contour>
        <pt x="549" y="174" on="1"/>
        <pt x="354" y="174" on="1"/>
        <pt x="354" y="278" on="1"/>
        <pt x="503" y="278" on="1"/>
      </contour>
    </TTGlyph>
    <TTGlyph name="AE" xMin="5" yMin="0" xMax="894" yMax="700">
      <contour>
        <pt x="174" y="153" on="1"/>
        <pt x="228" y="245" on="1"/>
        <pt x="483" y="245" on="1"/>
        <pt x="465" y="213" on="1"/>
        <pt x="465" y="552" on="1"/>
        <pt x="484" y="541" on="1"/>
        <pt x="114" y="0" on="1"/>
        <pt x="5" y="0" on="1"/>
        <pt x="493" y="700" on="1"/>
        <pt x="894" y="700" on="1"/>
        <pt x="894" y="607" on="1"/>
        <pt x="557" y="607" on="1"/>
        <pt x="566" y="616" on="1"/>
        <pt x="566" y="385" on="1"/>
        <pt x="558" y="402" on="1"/>
        <pt x="849" y="402" on="1"/>
        <pt x="849" y="308" on="1"/>
        <pt x="556" y="308" on="1"/>
        <pt x="566" y="322" on="1"/>
        <pt x="566" y="72" on="1"/>
        <pt x="557" y="93" on="1"/>
        <pt x="894" y="93" on="1"/>
        <pt x="894" y="0" on="1"/>
        <pt x="465" y="0" on="1"/>
        <pt x="465" y="166" on="1"/>
        <pt x="488" y="153" on="1"/>
      </contour>
    </TTGlyph>
    <TTGlyph name="AEacute" xMin="5" yMin="0" xMax="894" yMax="926">
      <contour>
        <pt x="174" y="153" on="1"/>
        <pt x="228" y="245" on="1"/>
        <pt x="483" y="245" on="1"/>
        <pt x="465" y="213" on="1"/>
        <pt x="465" y="552" on="1"/>
        <pt x="484" y="541" on="1"/>
        <pt x="114" y="0" on="1"/>
        <pt x="5" y="0" on="1"/>
        <pt x="493" y="700" on="1"/>
        <pt x="894" y="700" on="1"/>
        <pt x="894" y="607" on="1"/>
        <pt x="557" y="607" on="1"/>
        <pt x="566" y="616" on="1"/>
        <pt x="566" y="385" on="1"/>
        <pt x="558" y="402" on="1"/>
        <pt x="849" y="402" on="1"/>
        <pt x="849" y="308" on="1"/>
        <pt x="556" y="308" on="1"/>
        <pt x="566" y="322" on="1"/>
        <pt x="566" y="72" on="1"/>
        <pt x="557" y="93" on="1"/>
        <pt x="894" y="93" on="1"/>
        <pt x="894" y="0" on="1"/>
        <pt x="465" y="0" on="1"/>
        <pt x="465" y="166" on="1"/>
        <pt x="488" y="153" on="1"/>
      </contour>
      <contour>
        <pt x="794" y="844" on="1"/>
        <pt x="620" y="750" on="1"/>
        <pt x="586" y="801" on="1"/>
        <pt x="729" y="926" on="1"/>
      </contour>
    </TTGlyph>
    <TTGlyph name="Aacute" xMin="25" yMin="0" xMax="675" yMax="926">
      <contour>
        <pt x="337" y="612" on="1"/>
        <pt x="360" y="613" on="1"/>
        <pt x="348" y="580" on="0"/>
        <pt x="306" y="449" on="0"/>
        <pt x="294" y="418" on="1"/>
        <pt x="135" y="0" on="1"/>
        <pt x="25" y="0" on="1"/>
        <pt x="296" y="700" on="1"/>
        <pt x="406" y="700" on="1"/>
        <pt x="675" y="0" on="1"/>
        <pt x="560" y="0" on="1"/>
        <pt x="400" y="422" on="1"/>
        <pt x="390" y="451" on="0"/>
        <pt x="349" y="579" on="0"/>
      </contour>
      <contour>
        <pt x="354" y="174" on="1"/>
        <pt x="145" y="174" on="1"/>
        <pt x="185" y="278" on="1"/>
        <pt x="354" y="278" on="1"/>
      </contour>
      <contour>
        <pt x="549" y="174" on="1"/>
        <pt x="354" y="174" on="1"/>
        <pt x="354" y="278" on="1"/>
        <pt x="503" y="278" on="1"/>
      </contour>
      <contour>
        <pt x="500" y="844" on="1"/>
        <pt x="326" y="750" on="1"/>
        <pt x="292" y="801" on="1"/>
        <pt x="435" y="926" on="1"/>
      </contour>
    </TTGlyph>
    <TTGlyph name="Abreve" xMin="25" yMin="0" xMax="675" yMax="917">
      <contour>
        <pt x="337" y="612" on="1"/>
        <pt x="360" y="613" on="1"/>
        <pt x="348" y="580" on="0"/>
        <pt x="306" y="449" on="0"/>
        <pt x="294" y="418" on="1"/>
        <pt x="135" y="0" on="1"/>
        <pt x="25" y="0" on="1"/>
        <pt x="296" y="700" on="1"/>
        <pt x="406" y="700" on="1"/>
        <pt x="675" y="0" on="1"/>
        <pt x="560" y="0" on="1"/>
        <pt x="400" y="422" on="1"/>
        <pt x="390" y="451" on="0"/>
        <pt x="349" y="579" on="0"/>
      </contour>
      <contour>
        <pt x="354" y="174" on="1"/>
        <pt x="145" y="174" on="1"/>
        <pt x="185" y="278" on="1"/>
        <pt x="354" y="278" on="1"/>
      </contour>
      <contour>
        <pt x="549" y="174" on="1"/>
        <pt x="354" y="174" on="1"/>
        <pt x="354" y="278" on="1"/>
        <pt x="503" y="278" on="1"/>
      </contour>
      <contour>
        <pt x="349" y="751" on="1"/>
        <pt x="288" y="751" on="0"/>
        <pt x="201" y="834" on="0"/>
        <pt x="187" y="905" on="1"/>
        <pt x="261" y="917" on="1"/>
        <pt x="274" y="878" on="0"/>
        <pt x="322" y="832" on="0"/>
        <pt x="349" y="832" on="1"/>
        <pt x="376" y="832" on="0"/>
        <pt x="424" y="878" on="0"/>
        <pt x="437" y="917" on="1"/>
        <pt x="511" y="905" on="1"/>
        <pt x="497" y="834" on="0"/>
        <pt x="410" y="751" on="0"/>
      </contour>
    </TTGlyph>
    <TTGlyph name="Acircumflex" xMin="25" yMin="0" xMax="675" yMax="894">
      <contour>
        <pt x="337" y="612" on="1"/>
        <pt x="360" y="613" on="1"/>
        <pt x="348" y="580" on="0"/>
        <pt x="306" y="449" on="0"/>
        <pt x="294" y="418" on="1"/>
        <pt x="135" y="0" on="1"/>
        <pt x="25" y="0" on="1"/>
        <pt x="296" y="700" on="1"/>
        <pt x="406" y="700" on="1"/>
        <pt x="675" y="0" on="1"/>
        <pt x="560" y="0" on="1"/>
        <pt x="400" y="422" on="1"/>
        <pt x="390" y="451" on="0"/>
        <pt x="349" y="579" on="0"/>
      </contour>
      <contour>
        <pt x="354" y="174" on="1"/>
        <pt x="145" y="174" on="1"/>
        <pt x="185" y="278" on="1"/>
        <pt x="354" y="278" on="1"/>
      </contour>
      <contour>
        <pt x="549" y="174" on="1"/>
        <pt x="354" y="174" on="1"/>
        <pt x="354" y="278" on="1"/>
        <pt x="503" y="278" on="1"/>
      </contour>
      <contour>
        <pt x="470" y="748" on="1"/>
        <pt x="337" y="823" on="1"/>
        <pt x="366" y="823" on="1"/>
        <pt x="233" y="748" on="1"/>
        <pt x="196" y="783" on="1"/>
        <pt x="315" y="894" on="1"/>
        <pt x="388" y="894" on="1"/>
        <pt x="507" y="783" on="1"/>
      </contour>
    </TTGlyph>
    <TTGlyph name="Adieresis" xMin="25" yMin="0" xMax="675" yMax="879">
      <contour>
        <pt x="337" y="612" on="1"/>
        <pt x="360" y="613" on="1"/>
        <pt x="348" y="580" on="0"/>
        <pt x="306" y="449" on="0"/>
        <pt x="294" y="418" on="1"/>
        <pt x="135" y="0" on="1"/>
        <pt x="25" y="0" on="1"/>
        <pt x="296" y="700" on="1"/>
        <pt x="406" y="700" on="1"/>
        <pt x="675" y="0" on="1"/>
        <pt x="560" y="0" on="1"/>
        <pt x="400" y="422" on="1"/>
        <pt x="390" y="451" on="0"/>
        <pt x="349" y="579" on="0"/>
      </contour>
      <contour>
        <pt x="354" y="174" on="1"/>
        <pt x="145" y="174" on="1"/>
        <pt x="185" y="278" on="1"/>
        <pt x="354" y="278" on="1"/>
      </contour>
      <contour>
        <pt x="549" y="174" on="1"/>
        <pt x="354" y="174" on="1"/>
        <pt x="354" y="278" on="1"/>
        <pt x="503" y="278" on="1"/>
      </contour>
      <contour>
        <pt x="320" y="814" on="1"/>
        <pt x="320" y="785" on="0"/>
        <pt x="283" y="749" on="0"/>
        <pt x="251" y="749" on="1"/>
        <pt x="218" y="749" on="0"/>
        <pt x="182" y="783" on="0"/>
        <pt x="182" y="814" on="1"/>
        <pt x="182" y="843" on="0"/>
        <pt x="219" y="879" on="0"/>
        <pt x="251" y="879" on="1"/>
        <pt x="284" y="879" on="0"/>
        <pt x="320" y="845" on="0"/>
      </contour>
      <contour>
        <pt x="526" y="814" on="1"/>
        <pt x="526" y="785" on="0"/>
        <pt x="489" y="749" on="0"/>
        <pt x="457" y="749" on="1"/>
        <pt x="424" y="749" on="0"/>
        <pt x="388" y="783" on="0"/>
        <pt x="388" y="814" on="1"/>
        <pt x="388" y="843" on="0"/>
        <pt x="425" y="879" on="0"/>
        <pt x="457" y="879" on="1"/>
        <pt x="490" y="879" on="0"/>
        <pt x="526" y="845" on="0"/>
      </contour>
    </TTGlyph>
    <TTGlyph name="Agrave" xMin="25" yMin="0" xMax="675" yMax="930">
      <contour>
        <pt x="337" y="612" on="1"/>
        <pt x="360" y="613" on="1"/>
        <pt x="348" y="580" on="0"/>
        <pt x="306" y="449" on="0"/>
        <pt x="294" y="418" on="1"/>
        <pt x="135" y="0" on="1"/>
        <pt x="25" y="0" on="1"/>
        <pt x="296" y="700" on="1"/>
        <pt x="406" y="700" on="1"/>
        <pt x="675" y="0" on="1"/>
        <pt x="560" y="0" on="1"/>
        <pt x="400" y="422" on="1"/>
        <pt x="390" y="451" on="0"/>
        <pt x="349" y="579" on="0"/>
      </contour>
      <contour>
        <pt x="354" y="174" on="1"/>
        <pt x="145" y="174" on="1"/>
        <pt x="185" y="278" on="1"/>
        <pt x="354" y="278" on="1"/>
      </contour>
      <contour>
        <pt x="549" y="174" on="1"/>
        <pt x="354" y="174" on="1"/>
        <pt x="354" y="278" on="1"/>
        <pt x="503" y="278" on="1"/>
      </contour>
      <contour>
        <pt x="420" y="805" on="1"/>
        <pt x="386" y="754" on="1"/>
        <pt x="212" y="848" on="1"/>
        <pt x="277" y="930" on="1"/>
      </contour>
    </TTGlyph>
    <TTGlyph name="Amacron" xMin="25" yMin="0" xMax="675" yMax="851">
      <contour>
        <pt x="337" y="612" on="1"/>
        <pt x="360" y="613" on="1"/>
        <pt x="348" y="580" on="0"/>
        <pt x="306" y="449" on="0"/>
        <pt x="294" y="418" on="1"/>
        <pt x="135" y="0" on="1"/>
        <pt x="25" y="0" on="1"/>
        <pt x="296" y="700" on="1"/>
        <pt x="406" y="700" on="1"/>
        <pt x="675" y="0" on="1"/>
        <pt x="560" y="0" on="1"/>
        <pt x="400" y="422" on="1"/>
        <pt x="390" y="451" on="0"/>
        <pt x="349" y="579" on="0"/>
      </contour>
      <contour>
        <pt x="354" y="174" on="1"/>
        <pt x="145" y="174" on="1"/>
        <pt x="185" y="278" on="1"/>
        <pt x="354" y="278" on="1"/>
      </contour>
      <contour>
        <pt x="549" y="174" on="1"/>
        <pt x="354" y="174" on="1"/>
        <pt x="354" y="278" on="1"/>
        <pt x="503" y="278" on="1"/>
      </contour>
      <contour>
        <pt x="519" y="776" on="1"/>
        <pt x="188" y="776" on="1"/>
        <pt x="188" y="851" on="1"/>
        <pt x="519" y="851" on="1"/>
      </contour>
    </TTGlyph>
    <TTGlyph name="Aogonek" xMin="25" yMin="-221" xMax="671" yMax="700">
      <contour>
        <pt x="601" y="21" on="1"/>
        <pt x="559" y="0" on="1"/>
        <pt x="404" y="422" on="1"/>
        <pt x="398" y="438" on="0"/>
        <pt x="384" y="479" on="0"/>
        <pt x="370" y="523" on="1"/>
        <pt x="358" y="560" on="0"/>
        <pt x="346" y="597" on="0"/>
        <pt x="341" y="612" on="1"/>
        <pt x="353" y="613" on="1"/>
        <pt x="347" y="596" on="0"/>
        <pt x="332" y="554" on="0"/>
        <pt x="319" y="511" on="1"/>
        <pt x="305" y="471" on="0"/>
        <pt x="293" y="433" on="0"/>
        <pt x="287" y="418" on="1"/>
        <pt x="134" y="0" on="1"/>
        <pt x="25" y="0" on="1"/>
        <pt x="290" y="700" on="1"/>
        <pt x="410" y="700" on="1"/>
        <pt x="661" y="32" on="1"/>
        <pt x="655" y="0" on="1"/>
        <pt x="589" y="-26" on="0"/>
        <pt x="520" y="-77" on="0"/>
        <pt x="520" y="-100" on="1"/>
        <pt x="520" y="-118" on="0"/>
        <pt x="547" y="-144" on="0"/>
        <pt x="567" y="-144" on="1"/>
        <pt x="581" y="-144" on="0"/>
        <pt x="615" y="-130" on="0"/>
        <pt x="632" y="-118" on="1"/>
        <pt x="671" y="-177" on="1"/>
        <pt x="638" y="-199" on="0"/>
        <pt x="577" y="-221" on="0"/>
        <pt x="547" y="-221" on="1"/>
        <pt x="495" y="-221" on="0"/>
        <pt x="427" y="-161" on="0"/>
        <pt x="427" y="-114" on="1"/>
        <pt x="427" y="-65" on="0"/>
        <pt x="534" y="34" on="0"/>
        <pt x="602" y="52" on="1"/>
      </contour>
      <contour>
        <pt x="355" y="174" on="1"/>
        <pt x="174" y="174" on="1"/>
        <pt x="217" y="278" on="1"/>
        <pt x="355" y="278" on="1"/>
      </contour>
      <contour>
        <pt x="519" y="174" on="1"/>
        <pt x="355" y="174" on="1"/>
        <pt x="355" y="278" on="1"/>
        <pt x="502" y="278" on="1"/>
      </contour>
    </TTGlyph>
    <TTGlyph name="Aring" xMin="25" yMin="0" xMax="675" yMax="852">
      <contour>
        <pt x="337" y="612" on="1"/>
        <pt x="360" y="613" on="1"/>
        <pt x="348" y="580" on="0"/>
        <pt x="306" y="449" on="0"/>
        <pt x="294" y="418" on="1"/>
        <pt x="135" y="0" on="1"/>
        <pt x="25" y="0" on="1"/>
        <pt x="296" y="700" on="1"/>
        <pt x="406" y="700" on="1"/>
        <pt x="675" y="0" on="1"/>
        <pt x="560" y="0" on="1"/>
        <pt x="400" y="422" on="1"/>
        <pt x="390" y="451" on="0"/>
        <pt x="349" y="579" on="0"/>
      </contour>
      <contour>
        <pt x="354" y="174" on="1"/>
        <pt x="145" y="174" on="1"/>
        <pt x="185" y="278" on="1"/>
        <pt x="354" y="278" on="1"/>
      </contour>
      <contour>
        <pt x="549" y="174" on="1"/>
        <pt x="354" y="174" on="1"/>
        <pt x="354" y="278" on="1"/>
        <pt x="503" y="278" on="1"/>
      </contour>
      <contour>
        <pt x="459" y="746" on="1"/>
        <pt x="459" y="704" on="0"/>
        <pt x="393" y="641" on="0"/>
        <pt x="349" y="641" on="1"/>
        <pt x="306" y="641" on="0"/>
        <pt x="240" y="704" on="0"/>
        <pt x="240" y="746" on="1"/>
        <pt x="240" y="789" on="0"/>
        <pt x="305" y="852" on="0"/>
        <pt x="349" y="852" on="1"/>
        <pt x="393" y="852" on="0"/>
        <pt x="459" y="789" on="0"/>
      </contour>
      <contour>
        <pt x="300" y="746" on="1"/>
        <pt x="300" y="727" on="0"/>
        <pt x="329" y="700" on="0"/>
        <pt x="349" y="700" on="1"/>
        <pt x="370" y="700" on="0"/>
        <pt x="399" y="727" on="0"/>
        <pt x="399" y="746" on="1"/>
        <pt x="399" y="767" on="0"/>
        <pt x="370" y="793" on="0"/>
        <pt x="349" y="793" on="1"/>
        <pt x="328" y="793" on="0"/>
        <pt x="300" y="766" on="0"/>
      </contour>
    </TTGlyph>
    <TTGlyph name="Aringacute" xMin="25" yMin="0" xMax="675" yMax="1079">
      <contour>
        <pt x="337" y="612" on="1"/>
        <pt x="360" y="613" on="1"/>
        <pt x="348" y="580" on="0"/>
        <pt x="306" y="449" on="0"/>
        <pt x="294" y="418" on="1"/>
        <pt x="135" y="0" on="1"/>
        <pt x="25" y="0" on="1"/>
        <pt x="296" y="700" on="1"/>
        <pt x="406" y="700" on="1"/>
        <pt x="675" y="0" on="1"/>
        <pt x="560" y="0" on="1"/>
        <pt x="400" y="422" on="1"/>
        <pt x="390" y="451" on="0"/>
        <pt x="349" y="579" on="0"/>
      </contour>
      <contour>
        <pt x="354" y="174" on="1"/>
        <pt x="145" y="174" on="1"/>
        <pt x="185" y="278" on="1"/>
        <pt x="354" y="278" on="1"/>
      </contour>
      <contour>
        <pt x="549" y="174" on="1"/>
        <pt x="354" y="174" on="1"/>
        <pt x="354" y="278" on="1"/>
        <pt x="503" y="278" on="1"/>
      </contour>
      <contour>
        <pt x="459" y="746" on="1"/>
        <pt x="459" y="704" on="0"/>
        <pt x="393" y="641" on="0"/>
        <pt x="349" y="641" on="1"/>
        <pt x="306" y="641" on="0"/>
        <pt x="240" y="704" on="0"/>
        <pt x="240" y="746" on="1"/>
        <pt x="240" y="789" on="0"/>
        <pt x="305" y="852" on="0"/>
        <pt x="349" y="852" on="1"/>
        <pt x="393" y="852" on="0"/>
        <pt x="459" y="789" on="0"/>
      </contour>
      <contour>
        <pt x="300" y="746" on="1"/>
        <pt x="300" y="727" on="0"/>
        <pt x="329" y="700" on="0"/>
        <pt x="349" y="700" on="1"/>
        <pt x="370" y="700" on="0"/>
        <pt x="399" y="727" on="0"/>
        <pt x="399" y="746" on="1"/>
        <pt x="399" y="767" on="0"/>
        <pt x="370" y="793" on="0"/>
        <pt x="349" y="793" on="1"/>
        <pt x="328" y="793" on="0"/>
        <pt x="300" y="766" on="0"/>
      </contour>
      <contour>
        <pt x="502" y="997" on="1"/>
        <pt x="328" y="903" on="1"/>
        <pt x="294" y="954" on="1"/>
        <pt x="437" y="1079" on="1"/>
      </contour>
    </TTGlyph>
    <TTGlyph name="Atilde" xMin="25" yMin="0" xMax="675" yMax="929">
      <contour>
        <pt x="337" y="612" on="1"/>
        <pt x="360" y="613" on="1"/>
        <pt x="348" y="580" on="0"/>
        <pt x="306" y="449" on="0"/>
        <pt x="294" y="418" on="1"/>
        <pt x="135" y="0" on="1"/>
        <pt x="25" y="0" on="1"/>
        <pt x="296" y="700" on="1"/>
        <pt x="406" y="700" on="1"/>
        <pt x="675" y="0" on="1"/>
        <pt x="560" y="0" on="1"/>
        <pt x="400" y="422" on="1"/>
        <pt x="390" y="451" on="0"/>
        <pt x="349" y="579" on="0"/>
      </contour>
      <contour>
        <pt x="354" y="174" on="1"/>
        <pt x="145" y="174" on="1"/>
        <pt x="185" y="278" on="1"/>
        <pt x="354" y="278" on="1"/>
      </contour>
      <contour>
        <pt x="549" y="174" on="1"/>
        <pt x="354" y="174" on="1"/>
        <pt x="354" y="278" on="1"/>
        <pt x="503" y="278" on="1"/>
      </contour>
      <contour>
        <pt x="259" y="816" on="1"/>
        <pt x="182" y="816" on="1"/>
        <pt x="182" y="868" on="0"/>
        <pt x="239" y="929" on="0"/>
        <pt x="288" y="929" on="1"/>
        <pt x="303" y="929" on="0"/>
        <pt x="337" y="920" on="0"/>
        <pt x="369" y="906" on="1"/>
        <pt x="394" y="895" on="0"/>
        <pt x="416" y="889" on="0"/>
        <pt x="424" y="889" on="1"/>
        <pt x="437" y="889" on="0"/>
        <pt x="450" y="911" on="0"/>
        <pt x="449" y="929" on="1"/>
        <pt x="525" y="929" on="1"/>
        <pt x="525" y="880" on="0"/>
        <pt x="474" y="815" on="0"/>
        <pt x="433" y="815" on="1"/>
        <pt x="416" y="815" on="0"/>
        <pt x="377" y="825" on="0"/>
        <pt x="340" y="839" on="1"/>
        <pt x="315" y="849" on="0"/>
        <pt x="293" y="855" on="0"/>
        <pt x="286" y="855" on="1"/>
        <pt x="274" y="855" on="0"/>
        <pt x="259" y="834" on="0"/>
      </contour>
    </TTGlyph>
    <TTGlyph name="B" xMin="98" yMin="0" xMax="633" yMax="700">
      <contour>
        <pt x="98" y="700" on="1"/>
        <pt x="390" y="700" on="1"/>
        <pt x="491" y="700" on="0"/>
        <pt x="596" y="610" on="0"/>
        <pt x="596" y="524" on="1"/>
        <pt x="596" y="452" on="0"/>
        <pt x="497" y="364" on="0"/>
        <pt x="411" y="363" on="1"/>
        <pt x="412" y="399" on="1"/>
        <pt x="507" y="399" on="0"/>
        <pt x="633" y="296" on="0"/>
        <pt x="633" y="206" on="1"/>
        <pt x="633" y="106" on="0"/>
        <pt x="510" y="0" on="0"/>
        <pt x="400" y="0" on="1"/>
        <pt x="98" y="0" on="1"/>
      </contour>
      <contour>
        <pt x="488" y="503" on="1"/>
        <pt x="488" y="548" on="0"/>
        <pt x="428" y="596" on="0"/>
        <pt x="372" y="596" on="1"/>
        <pt x="196" y="596" on="1"/>
        <pt x="206" y="621" on="1"/>
        <pt x="206" y="399" on="1"/>
        <pt x="197" y="410" on="1"/>
        <pt x="384" y="410" on="1"/>
        <pt x="429" y="411" on="0"/>
        <pt x="488" y="462" on="0"/>
      </contour>
      <contour>
        <pt x="523" y="208" on="1"/>
        <pt x="523" y="255" on="0"/>
        <pt x="450" y="306" on="0"/>
        <pt x="389" y="306" on="1"/>
        <pt x="201" y="306" on="1"/>
        <pt x="206" y="324" on="1"/>
        <pt x="206" y="84" on="1"/>
        <pt x="200" y="104" on="1"/>
        <pt x="394" y="104" on="1"/>
        <pt x="455" y="104" on="0"/>
        <pt x="523" y="158" on="0"/>
      </contour>
    </TTGlyph>
    <TTGlyph name="C" xMin="48" yMin="-10" xMax="643" yMax="706">
      <contour>
        <pt x="576" y="174" on="1"/>
        <pt x="630" y="86" on="1"/>
        <pt x="595" y="45" on="0"/>
        <pt x="456" y="-10" on="0"/>
        <pt x="382" y="-10" on="1"/>
        <pt x="236" y="-10" on="0"/>
        <pt x="48" y="191" on="0"/>
        <pt x="48" y="350" on="1"/>
        <pt x="48" y="500" on="0"/>
        <pt x="248" y="706" on="0"/>
        <pt x="391" y="706" on="1"/>
        <pt x="467" y="706" on="0"/>
        <pt x="606" y="638" on="0"/>
        <pt x="643" y="585" on="1"/>
        <pt x="571" y="510" on="1"/>
        <pt x="528" y="554" on="0"/>
        <pt x="438" y="598" on="0"/>
        <pt x="391" y="598" on="1"/>
        <pt x="293" y="598" on="0"/>
        <pt x="158" y="458" on="0"/>
        <pt x="158" y="350" on="1"/>
        <pt x="158" y="235" on="0"/>
        <pt x="292" y="99" on="0"/>
        <pt x="400" y="99" on="1"/>
        <pt x="450" y="99" on="0"/>
        <pt x="542" y="139" on="0"/>
      </contour>
    </TTGlyph>
    <TTGlyph name="Cacute" xMin="48" yMin="-10" xMax="643" yMax="926">
      <contour>
        <pt x="576" y="174" on="1"/>
        <pt x="630" y="86" on="1"/>
        <pt x="595" y="45" on="0"/>
        <pt x="456" y="-10" on="0"/>
        <pt x="382" y="-10" on="1"/>
        <pt x="236" y="-10" on="0"/>
        <pt x="48" y="191" on="0"/>
        <pt x="48" y="350" on="1"/>
        <pt x="48" y="500" on="0"/>
        <pt x="248" y="706" on="0"/>
        <pt x="391" y="706" on="1"/>
        <pt x="467" y="706" on="0"/>
        <pt x="606" y="638" on="0"/>
        <pt x="643" y="585" on="1"/>
        <pt x="571" y="510" on="1"/>
        <pt x="528" y="554" on="0"/>
        <pt x="438" y="598" on="0"/>
        <pt x="391" y="598" on="1"/>
        <pt x="293" y="598" on="0"/>
        <pt x="158" y="458" on="0"/>
        <pt x="158" y="350" on="1"/>
        <pt x="158" y="235" on="0"/>
        <pt x="292" y="99" on="0"/>
        <pt x="400" y="99" on="1"/>
        <pt x="450" y="99" on="0"/>
        <pt x="542" y="139" on="0"/>
      </contour>
      <contour>
        <pt x="520" y="844" on="1"/>
        <pt x="346" y="750" on="1"/>
        <pt x="312" y="801" on="1"/>
        <pt x="455" y="926" on="1"/>
      </contour>
    </TTGlyph>
    <TTGlyph name="Ccaron" xMin="48" yMin="-10" xMax="643" yMax="902">
      <contour>
        <pt x="576" y="174" on="1"/>
        <pt x="630" y="86" on="1"/>
        <pt x="595" y="45" on="0"/>
        <pt x="456" y="-10" on="0"/>
        <pt x="382" y="-10" on="1"/>
        <pt x="236" y="-10" on="0"/>
        <pt x="48" y="191" on="0"/>
        <pt x="48" y="350" on="1"/>
        <pt x="48" y="500" on="0"/>
        <pt x="248" y="706" on="0"/>
        <pt x="391" y="706" on="1"/>
        <pt x="467" y="706" on="0"/>
        <pt x="606" y="638" on="0"/>
        <pt x="643" y="585" on="1"/>
        <pt x="571" y="510" on="1"/>
        <pt x="528" y="554" on="0"/>
        <pt x="438" y="598" on="0"/>
        <pt x="391" y="598" on="1"/>
        <pt x="293" y="598" on="0"/>
        <pt x="158" y="458" on="0"/>
        <pt x="158" y="350" on="1"/>
        <pt x="158" y="235" on="0"/>
        <pt x="292" y="99" on="0"/>
        <pt x="400" y="99" on="1"/>
        <pt x="450" y="99" on="0"/>
        <pt x="542" y="139" on="0"/>
      </contour>
      <contour>
        <pt x="488" y="902" on="1"/>
        <pt x="353" y="829" on="1"/>
        <pt x="383" y="829" on="1"/>
        <pt x="248" y="902" on="1"/>
        <pt x="210" y="869" on="1"/>
        <pt x="325" y="756" on="1"/>
        <pt x="411" y="756" on="1"/>
        <pt x="526" y="869" on="1"/>
      </contour>
    </TTGlyph>
    <TTGlyph name="Ccedilla" xMin="48" yMin="-245" xMax="643" yMax="706">
      <contour>
        <pt x="576" y="174" on="1"/>
        <pt x="630" y="86" on="1"/>
        <pt x="595" y="45" on="0"/>
        <pt x="456" y="-10" on="0"/>
        <pt x="382" y="-10" on="1"/>
        <pt x="236" y="-10" on="0"/>
        <pt x="48" y="191" on="0"/>
        <pt x="48" y="350" on="1"/>
        <pt x="48" y="500" on="0"/>
        <pt x="248" y="706" on="0"/>
        <pt x="391" y="706" on="1"/>
        <pt x="467" y="706" on="0"/>
        <pt x="606" y="638" on="0"/>
        <pt x="643" y="585" on="1"/>
        <pt x="571" y="510" on="1"/>
        <pt x="528" y="554" on="0"/>
        <pt x="438" y="598" on="0"/>
        <pt x="391" y="598" on="1"/>
        <pt x="293" y="598" on="0"/>
        <pt x="158" y="458" on="0"/>
        <pt x="158" y="350" on="1"/>
        <pt x="158" y="235" on="0"/>
        <pt x="292" y="99" on="0"/>
        <pt x="400" y="99" on="1"/>
        <pt x="450" y="99" on="0"/>
        <pt x="542" y="139" on="0"/>
      </contour>
      <contour>
        <pt x="347" y="-97" on="1"/>
        <pt x="289" y="-90" on="1"/>
        <pt x="361" y="24" on="1"/>
        <pt x="420" y="24" on="1"/>
      </contour>
      <contour>
        <pt x="477" y="-139" on="1"/>
        <pt x="477" y="-162" on="0"/>
        <pt x="437" y="-210" on="0"/>
        <pt x="403" y="-225" on="1"/>
        <pt x="379" y="-235" on="0"/>
        <pt x="320" y="-245" on="0"/>
        <pt x="287" y="-244" on="1"/>
        <pt x="280" y="-191" on="1"/>
        <pt x="316" y="-191" on="0"/>
        <pt x="392" y="-157" on="0"/>
        <pt x="392" y="-138" on="1"/>
        <pt x="392" y="-124" on="0"/>
        <pt x="341" y="-101" on="0"/>
        <pt x="302" y="-100" on="1"/>
        <pt x="289" y="-92" on="1"/>
        <pt x="289" y="-90" on="1"/>
        <pt x="348" y="-41" on="1"/>
        <pt x="412" y="-49" on="0"/>
        <pt x="477" y="-99" on="0"/>
      </contour>
    </TTGlyph>
    <TTGlyph name="Ccircumflex" xMin="48" yMin="-10" xMax="643" yMax="894">
      <contour>
        <pt x="576" y="174" on="1"/>
        <pt x="630" y="86" on="1"/>
        <pt x="595" y="45" on="0"/>
        <pt x="456" y="-10" on="0"/>
        <pt x="382" y="-10" on="1"/>
        <pt x="236" y="-10" on="0"/>
        <pt x="48" y="191" on="0"/>
        <pt x="48" y="350" on="1"/>
        <pt x="48" y="500" on="0"/>
        <pt x="248" y="706" on="0"/>
        <pt x="391" y="706" on="1"/>
        <pt x="467" y="706" on="0"/>
        <pt x="606" y="638" on="0"/>
        <pt x="643" y="585" on="1"/>
        <pt x="571" y="510" on="1"/>
        <pt x="528" y="554" on="0"/>
        <pt x="438" y="598" on="0"/>
        <pt x="391" y="598" on="1"/>
        <pt x="293" y="598" on="0"/>
        <pt x="158" y="458" on="0"/>
        <pt x="158" y="350" on="1"/>
        <pt x="158" y="235" on="0"/>
        <pt x="292" y="99" on="0"/>
        <pt x="400" y="99" on="1"/>
        <pt x="450" y="99" on="0"/>
        <pt x="542" y="139" on="0"/>
      </contour>
      <contour>
        <pt x="490" y="748" on="1"/>
        <pt x="357" y="823" on="1"/>
        <pt x="386" y="823" on="1"/>
        <pt x="253" y="748" on="1"/>
        <pt x="216" y="783" on="1"/>
        <pt x="335" y="894" on="1"/>
        <pt x="408" y="894" on="1"/>
        <pt x="527" y="783" on="1"/>
      </contour>
    </TTGlyph>
    <TTGlyph name="Cdotaccent" xMin="48" yMin="-10" xMax="643" yMax="889">
      <contour>
        <pt x="576" y="174" on="1"/>
        <pt x="630" y="86" on="1"/>
        <pt x="595" y="45" on="0"/>
        <pt x="456" y="-10" on="0"/>
        <pt x="382" y="-10" on="1"/>
        <pt x="236" y="-10" on="0"/>
        <pt x="48" y="191" on="0"/>
        <pt x="48" y="350" on="1"/>
        <pt x="48" y="500" on="0"/>
        <pt x="248" y="706" on="0"/>
        <pt x="391" y="706" on="1"/>
        <pt x="467" y="706" on="0"/>
        <pt x="606" y="638" on="0"/>
        <pt x="643" y="585" on="1"/>
        <pt x="571" y="510" on="1"/>
        <pt x="528" y="554" on="0"/>
        <pt x="438" y="598" on="0"/>
        <pt x="391" y="598" on="1"/>
        <pt x="293" y="598" on="0"/>
        <pt x="158" y="458" on="0"/>
        <pt x="158" y="350" on="1"/>
        <pt x="158" y="235" on="0"/>
        <pt x="292" y="99" on="0"/>
        <pt x="400" y="99" on="1"/>
        <pt x="450" y="99" on="0"/>
        <pt x="542" y="139" on="0"/>
      </contour>
      <contour>
        <pt x="442" y="824" on="1"/>
        <pt x="442" y="795" on="0"/>
        <pt x="405" y="759" on="0"/>
        <pt x="373" y="759" on="1"/>
        <pt x="340" y="759" on="0"/>
        <pt x="304" y="793" on="0"/>
        <pt x="304" y="824" on="1"/>
        <pt x="304" y="853" on="0"/>
        <pt x="341" y="889" on="0"/>
        <pt x="373" y="889" on="1"/>
        <pt x="406" y="889" on="0"/>
        <pt x="442" y="855" on="0"/>
      </contour>
    </TTGlyph>
    <TTGlyph name="D" xMin="98" yMin="0" xMax="700" yMax="700">
      <contour>
        <pt x="98" y="700" on="1"/>
        <pt x="372" y="700" on="1"/>
        <pt x="522" y="700" on="0"/>
        <pt x="700" y="506" on="0"/>
        <pt x="700" y="350" on="1"/>
        <pt x="700" y="193" on="0"/>
        <pt x="523" y="0" on="0"/>
        <pt x="372" y="0" on="1"/>
        <pt x="98" y="0" on="1"/>
      </contour>
      <contour>
        <pt x="203" y="104" on="1"/>
        <pt x="367" y="104" on="1"/>
        <pt x="473" y="104" on="0"/>
        <pt x="590" y="235" on="0"/>
        <pt x="590" y="350" on="1"/>
        <pt x="590" y="464" on="0"/>
        <pt x="472" y="596" on="0"/>
        <pt x="367" y="596" on="1"/>
        <pt x="200" y="596" on="1"/>
        <pt x="206" y="605" on="1"/>
        <pt x="206" y="93" on="1"/>
      </contour>
    </TTGlyph>
    <TTGlyph name="Dcaron" xMin="98" yMin="0" xMax="700" yMax="902">
      <contour>
        <pt x="98" y="700" on="1"/>
        <pt x="372" y="700" on="1"/>
        <pt x="522" y="700" on="0"/>
        <pt x="700" y="506" on="0"/>
        <pt x="700" y="350" on="1"/>
        <pt x="700" y="193" on="0"/>
        <pt x="523" y="0" on="0"/>
        <pt x="372" y="0" on="1"/>
        <pt x="98" y="0" on="1"/>
      </contour>
      <contour>
        <pt x="203" y="104" on="1"/>
        <pt x="367" y="104" on="1"/>
        <pt x="473" y="104" on="0"/>
        <pt x="590" y="235" on="0"/>
        <pt x="590" y="350" on="1"/>
        <pt x="590" y="464" on="0"/>
        <pt x="472" y="596" on="0"/>
        <pt x="367" y="596" on="1"/>
        <pt x="200" y="596" on="1"/>
        <pt x="206" y="605" on="1"/>
        <pt x="206" y="93" on="1"/>
      </contour>
      <contour>
        <pt x="441" y="902" on="1"/>
        <pt x="306" y="829" on="1"/>
        <pt x="336" y="829" on="1"/>
        <pt x="201" y="902" on="1"/>
        <pt x="163" y="869" on="1"/>
        <pt x="278" y="756" on="1"/>
        <pt x="364" y="756" on="1"/>
        <pt x="479" y="869" on="1"/>
      </contour>
    </TTGlyph>
    <TTGlyph name="Dcroat" xMin="20" yMin="0" xMax="700" yMax="700">
      <contour>
        <pt x="98" y="700" on="1"/>
        <pt x="372" y="700" on="1"/>
        <pt x="522" y="700" on="0"/>
        <pt x="700" y="506" on="0"/>
        <pt x="700" y="350" on="1"/>
        <pt x="700" y="193" on="0"/>
        <pt x="523" y="0" on="0"/>
        <pt x="372" y="0" on="1"/>
        <pt x="98" y="0" on="1"/>
      </contour>
      <contour>
        <pt x="203" y="104" on="1"/>
        <pt x="367" y="104" on="1"/>
        <pt x="473" y="104" on="0"/>
        <pt x="590" y="235" on="0"/>
        <pt x="590" y="350" on="1"/>
        <pt x="590" y="464" on="0"/>
        <pt x="472" y="596" on="0"/>
        <pt x="367" y="596" on="1"/>
        <pt x="200" y="596" on="1"/>
        <pt x="206" y="605" on="1"/>
        <pt x="206" y="93" on="1"/>
      </contour>
      <contour>
        <pt x="288" y="307" on="1"/>
        <pt x="20" y="307" on="1"/>
        <pt x="20" y="397" on="1"/>
        <pt x="288" y="397" on="1"/>
      </contour>
    </TTGlyph>
    <TTGlyph name="E" xMin="98" yMin="0" xMax="539" yMax="700">
      <contour>
        <pt x="206" y="0" on="1"/>
        <pt x="98" y="0" on="1"/>
        <pt x="98" y="700" on="1"/>
        <pt x="206" y="700" on="1"/>
      </contour>
      <contour>
        <pt x="539" y="0" on="1"/>
        <pt x="147" y="0" on="1"/>
        <pt x="147" y="104" on="1"/>
        <pt x="539" y="104" on="1"/>
      </contour>
      <contour>
        <pt x="484" y="307" on="1"/>
        <pt x="147" y="307" on="1"/>
        <pt x="147" y="411" on="1"/>
        <pt x="484" y="411" on="1"/>
      </contour>
      <contour>
        <pt x="539" y="596" on="1"/>
        <pt x="147" y="596" on="1"/>
        <pt x="147" y="700" on="1"/>
        <pt x="539" y="700" on="1"/>
      </contour>
    </TTGlyph>
    <TTGlyph name="Eacute" xMin="98" yMin="0" xMax="539" yMax="926">
      <contour>
        <pt x="206" y="0" on="1"/>
        <pt x="98" y="0" on="1"/>
        <pt x="98" y="700" on="1"/>
        <pt x="206" y="700" on="1"/>
      </contour>
      <contour>
        <pt x="539" y="0" on="1"/>
        <pt x="147" y="0" on="1"/>
        <pt x="147" y="104" on="1"/>
        <pt x="539" y="104" on="1"/>
      </contour>
      <contour>
        <pt x="484" y="307" on="1"/>
        <pt x="147" y="307" on="1"/>
        <pt x="147" y="411" on="1"/>
        <pt x="484" y="411" on="1"/>
      </contour>
      <contour>
        <pt x="539" y="596" on="1"/>
        <pt x="147" y="596" on="1"/>
        <pt x="147" y="700" on="1"/>
        <pt x="539" y="700" on="1"/>
      </contour>
      <contour>
        <pt x="465" y="844" on="1"/>
        <pt x="291" y="750" on="1"/>
        <pt x="257" y="801" on="1"/>
        <pt x="400" y="926" on="1"/>
      </contour>
    </TTGlyph>
    <TTGlyph name="Ebreve" xMin="98" yMin="0" xMax="539" yMax="917">
      <contour>
        <pt x="206" y="0" on="1"/>
        <pt x="98" y="0" on="1"/>
        <pt x="98" y="700" on="1"/>
        <pt x="206" y="700" on="1"/>
      </contour>
      <contour>
        <pt x="539" y="0" on="1"/>
        <pt x="147" y="0" on="1"/>
        <pt x="147" y="104" on="1"/>
        <pt x="539" y="104" on="1"/>
      </contour>
      <contour>
        <pt x="484" y="307" on="1"/>
        <pt x="147" y="307" on="1"/>
        <pt x="147" y="411" on="1"/>
        <pt x="484" y="411" on="1"/>
      </contour>
      <contour>
        <pt x="539" y="596" on="1"/>
        <pt x="147" y="596" on="1"/>
        <pt x="147" y="700" on="1"/>
        <pt x="539" y="700" on="1"/>
      </contour>
      <contour>
        <pt x="314" y="751" on="1"/>
        <pt x="253" y="751" on="0"/>
        <pt x="166" y="834" on="0"/>
        <pt x="152" y="905" on="1"/>
        <pt x="226" y="917" on="1"/>
        <pt x="239" y="878" on="0"/>
        <pt x="287" y="832" on="0"/>
        <pt x="314" y="832" on="1"/>
        <pt x="341" y="832" on="0"/>
        <pt x="389" y="878" on="0"/>
        <pt x="402" y="917" on="1"/>
        <pt x="476" y="905" on="1"/>
        <pt x="462" y="834" on="0"/>
        <pt x="375" y="751" on="0"/>
      </contour>
    </TTGlyph>
    <TTGlyph name="Ecaron" xMin="98" yMin="0" xMax="539" yMax="902">
      <contour>
        <pt x="206" y="0" on="1"/>
        <pt x="98" y="0" on="1"/>
        <pt x="98" y="700" on="1"/>
        <pt x="206" y="700" on="1"/>
      </contour>
      <contour>
        <pt x="539" y="0" on="1"/>
        <pt x="147" y="0" on="1"/>
        <pt x="147" y="104" on="1"/>
        <pt x="539" y="104" on="1"/>
      </contour>
      <contour>
        <pt x="484" y="307" on="1"/>
        <pt x="147" y="307" on="1"/>
        <pt x="147" y="411" on="1"/>
        <pt x="484" y="411" on="1"/>
      </contour>
      <contour>
        <pt x="539" y="596" on="1"/>
        <pt x="147" y="596" on="1"/>
        <pt x="147" y="700" on="1"/>
        <pt x="539" y="700" on="1"/>
      </contour>
      <contour>
        <pt x="433" y="902" on="1"/>
        <pt x="298" y="829" on="1"/>
        <pt x="328" y="829" on="1"/>
        <pt x="193" y="902" on="1"/>
        <pt x="155" y="869" on="1"/>
        <pt x="270" y="756" on="1"/>
        <pt x="356" y="756" on="1"/>
        <pt x="471" y="869" on="1"/>
      </contour>
    </TTGlyph>
    <TTGlyph name="Ecircumflex" xMin="98" yMin="0" xMax="539" yMax="894">
      <contour>
        <pt x="206" y="0" on="1"/>
        <pt x="98" y="0" on="1"/>
        <pt x="98" y="700" on="1"/>
        <pt x="206" y="700" on="1"/>
      </contour>
      <contour>
        <pt x="539" y="0" on="1"/>
        <pt x="147" y="0" on="1"/>
        <pt x="147" y="104" on="1"/>
        <pt x="539" y="104" on="1"/>
      </contour>
      <contour>
        <pt x="484" y="307" on="1"/>
        <pt x="147" y="307" on="1"/>
        <pt x="147" y="411" on="1"/>
        <pt x="484" y="411" on="1"/>
      </contour>
      <contour>
        <pt x="539" y="596" on="1"/>
        <pt x="147" y="596" on="1"/>
        <pt x="147" y="700" on="1"/>
        <pt x="539" y="700" on="1"/>
      </contour>
      <contour>
        <pt x="435" y="748" on="1"/>
        <pt x="302" y="823" on="1"/>
        <pt x="331" y="823" on="1"/>
        <pt x="198" y="748" on="1"/>
        <pt x="161" y="783" on="1"/>
        <pt x="280" y="894" on="1"/>
        <pt x="353" y="894" on="1"/>
        <pt x="472" y="783" on="1"/>
      </contour>
    </TTGlyph>
    <TTGlyph name="Edieresis" xMin="98" yMin="0" xMax="539" yMax="879">
      <contour>
        <pt x="206" y="0" on="1"/>
        <pt x="98" y="0" on="1"/>
        <pt x="98" y="700" on="1"/>
        <pt x="206" y="700" on="1"/>
      </contour>
      <contour>
        <pt x="539" y="0" on="1"/>
        <pt x="147" y="0" on="1"/>
        <pt x="147" y="104" on="1"/>
        <pt x="539" y="104" on="1"/>
      </contour>
      <contour>
        <pt x="484" y="307" on="1"/>
        <pt x="147" y="307" on="1"/>
        <pt x="147" y="411" on="1"/>
        <pt x="484" y="411" on="1"/>
      </contour>
      <contour>
        <pt x="539" y="596" on="1"/>
        <pt x="147" y="596" on="1"/>
        <pt x="147" y="700" on="1"/>
        <pt x="539" y="700" on="1"/>
      </contour>
      <contour>
        <pt x="285" y="814" on="1"/>
        <pt x="285" y="785" on="0"/>
        <pt x="248" y="749" on="0"/>
        <pt x="216" y="749" on="1"/>
        <pt x="183" y="749" on="0"/>
        <pt x="147" y="783" on="0"/>
        <pt x="147" y="814" on="1"/>
        <pt x="147" y="843" on="0"/>
        <pt x="184" y="879" on="0"/>
        <pt x="216" y="879" on="1"/>
        <pt x="249" y="879" on="0"/>
        <pt x="285" y="845" on="0"/>
      </contour>
      <contour>
        <pt x="491" y="814" on="1"/>
        <pt x="491" y="785" on="0"/>
        <pt x="454" y="749" on="0"/>
        <pt x="422" y="749" on="1"/>
        <pt x="389" y="749" on="0"/>
        <pt x="353" y="783" on="0"/>
        <pt x="353" y="814" on="1"/>
        <pt x="353" y="843" on="0"/>
        <pt x="390" y="879" on="0"/>
        <pt x="422" y="879" on="1"/>
        <pt x="455" y="879" on="0"/>
        <pt x="491" y="845" on="0"/>
      </contour>
    </TTGlyph>
    <TTGlyph name="Edotaccent" xMin="98" yMin="0" xMax="539" yMax="889">
      <contour>
        <pt x="206" y="0" on="1"/>
        <pt x="98" y="0" on="1"/>
        <pt x="98" y="700" on="1"/>
        <pt x="206" y="700" on="1"/>
      </contour>
      <contour>
        <pt x="539" y="0" on="1"/>
        <pt x="147" y="0" on="1"/>
        <pt x="147" y="104" on="1"/>
        <pt x="539" y="104" on="1"/>
      </contour>
      <contour>
        <pt x="484" y="307" on="1"/>
        <pt x="147" y="307" on="1"/>
        <pt x="147" y="411" on="1"/>
        <pt x="484" y="411" on="1"/>
      </contour>
      <contour>
        <pt x="539" y="596" on="1"/>
        <pt x="147" y="596" on="1"/>
        <pt x="147" y="700" on="1"/>
        <pt x="539" y="700" on="1"/>
      </contour>
      <contour>
        <pt x="387" y="824" on="1"/>
        <pt x="387" y="795" on="0"/>
        <pt x="350" y="759" on="0"/>
        <pt x="318" y="759" on="1"/>
        <pt x="285" y="759" on="0"/>
        <pt x="249" y="793" on="0"/>
        <pt x="249" y="824" on="1"/>
        <pt x="249" y="853" on="0"/>
        <pt x="286" y="889" on="0"/>
        <pt x="318" y="889" on="1"/>
        <pt x="351" y="889" on="0"/>
        <pt x="387" y="855" on="0"/>
      </contour>
    </TTGlyph>
    <TTGlyph name="Egrave" xMin="98" yMin="0" xMax="539" yMax="930">
      <contour>
        <pt x="206" y="0" on="1"/>
        <pt x="98" y="0" on="1"/>
        <pt x="98" y="700" on="1"/>
        <pt x="206" y="700" on="1"/>
      </contour>
      <contour>
        <pt x="539" y="0" on="1"/>
        <pt x="147" y="0" on="1"/>
        <pt x="147" y="104" on="1"/>
        <pt x="539" y="104" on="1"/>
      </contour>
      <contour>
        <pt x="484" y="307" on="1"/>
        <pt x="147" y="307" on="1"/>
        <pt x="147" y="411" on="1"/>
        <pt x="484" y="411" on="1"/>
      </contour>
      <contour>
        <pt x="539" y="596" on="1"/>
        <pt x="147" y="596" on="1"/>
        <pt x="147" y="700" on="1"/>
        <pt x="539" y="700" on="1"/>
      </contour>
      <contour>
        <pt x="385" y="805" on="1"/>
        <pt x="351" y="754" on="1"/>
        <pt x="177" y="848" on="1"/>
        <pt x="242" y="930" on="1"/>
      </contour>
    </TTGlyph>
    <TTGlyph name="Emacron" xMin="98" yMin="0" xMax="539" yMax="851">
      <contour>
        <pt x="206" y="0" on="1"/>
        <pt x="98" y="0" on="1"/>
        <pt x="98" y="700" on="1"/>
        <pt x="206" y="700" on="1"/>
      </contour>
      <contour>
        <pt x="539" y="0" on="1"/>
        <pt x="147" y="0" on="1"/>
        <pt x="147" y="104" on="1"/>
        <pt x="539" y="104" on="1"/>
      </contour>
      <contour>
        <pt x="484" y="307" on="1"/>
        <pt x="147" y="307" on="1"/>
        <pt x="147" y="411" on="1"/>
        <pt x="484" y="411" on="1"/>
      </contour>
      <contour>
        <pt x="539" y="596" on="1"/>
        <pt x="147" y="596" on="1"/>
        <pt x="147" y="700" on="1"/>
        <pt x="539" y="700" on="1"/>
      </contour>
      <contour>
        <pt x="484" y="776" on="1"/>
        <pt x="153" y="776" on="1"/>
        <pt x="153" y="851" on="1"/>
        <pt x="484" y="851" on="1"/>
      </contour>
    </TTGlyph>
    <TTGlyph name="Eng" xMin="98" yMin="-197" xMax="695" yMax="700">
      <contour>
        <pt x="587" y="76" on="1"/>
        <pt x="596" y="0" on="1"/>
        <pt x="175" y="552" on="1"/>
        <pt x="186" y="566" on="1"/>
        <pt x="188" y="543" on="0"/>
        <pt x="197" y="451" on="0"/>
        <pt x="199" y="428" on="1"/>
        <pt x="203" y="387" on="0"/>
        <pt x="206" y="320" on="0"/>
        <pt x="206" y="291" on="1"/>
        <pt x="206" y="0" on="1"/>
        <pt x="98" y="0" on="1"/>
        <pt x="98" y="700" on="1"/>
        <pt x="195" y="700" on="1"/>
        <pt x="623" y="127" on="1"/>
        <pt x="607" y="118" on="1"/>
        <pt x="597" y="180" on="0"/>
        <pt x="587" y="360" on="0"/>
        <pt x="587" y="470" on="1"/>
        <pt x="587" y="700" on="1"/>
        <pt x="695" y="700" on="1"/>
        <pt x="695" y="58" on="1"/>
        <pt x="695" y="-24" on="1"/>
        <pt x="695" y="-102" on="0"/>
        <pt x="593" y="-197" on="0"/>
        <pt x="510" y="-197" on="1"/>
        <pt x="471" y="-118" on="1"/>
        <pt x="529" y="-118" on="0"/>
        <pt x="587" y="-58" on="0"/>
        <pt x="587" y="1" on="1"/>
      </contour>
    </TTGlyph>
    <TTGlyph name="Eogonek" xMin="98" yMin="-200" xMax="558" yMax="700">
      <contour>
        <pt x="206" y="0" on="1"/>
        <pt x="98" y="0" on="1"/>
        <pt x="98" y="700" on="1"/>
        <pt x="206" y="700" on="1"/>
      </contour>
      <contour>
        <pt x="539" y="0" on="1"/>
        <pt x="147" y="0" on="1"/>
        <pt x="147" y="104" on="1"/>
        <pt x="539" y="104" on="1"/>
      </contour>
      <contour>
        <pt x="484" y="307" on="1"/>
        <pt x="147" y="307" on="1"/>
        <pt x="147" y="411" on="1"/>
        <pt x="484" y="411" on="1"/>
      </contour>
      <contour>
        <pt x="539" y="596" on="1"/>
        <pt x="147" y="596" on="1"/>
        <pt x="147" y="700" on="1"/>
        <pt x="539" y="700" on="1"/>
      </contour>
      <contour>
        <pt x="449" y="-200" on="1"/>
        <pt x="406" y="-200" on="0"/>
        <pt x="340" y="-139" on="0"/>
        <pt x="340" y="-97" on="1"/>
        <pt x="340" y="-47" on="0"/>
        <pt x="423" y="31" on="0"/>
        <pt x="495" y="51" on="1"/>
        <pt x="539" y="44" on="1"/>
        <pt x="539" y="0" on="1"/>
        <pt x="495" y="-10" on="0"/>
        <pt x="431" y="-60" on="0"/>
        <pt x="431" y="-87" on="1"/>
        <pt x="431" y="-103" on="0"/>
        <pt x="450" y="-123" on="0"/>
        <pt x="465" y="-123" on="1"/>
        <pt x="476" y="-123" on="0"/>
        <pt x="494" y="-110" on="0"/>
        <pt x="502" y="-98" on="1"/>
        <pt x="558" y="-138" on="1"/>
        <pt x="548" y="-163" on="0"/>
        <pt x="485" y="-200" on="0"/>
      </contour>
    </TTGlyph>
    <TTGlyph name="Eth" xMin="20" yMin="0" xMax="700" yMax="700">
      <contour>
        <pt x="98" y="700" on="1"/>
        <pt x="372" y="700" on="1"/>
        <pt x="522" y="700" on="0"/>
        <pt x="700" y="506" on="0"/>
        <pt x="700" y="350" on="1"/>
        <pt x="700" y="193" on="0"/>
        <pt x="523" y="0" on="0"/>
        <pt x="372" y="0" on="1"/>
        <pt x="98" y="0" on="1"/>
      </contour>
      <contour>
        <pt x="203" y="104" on="1"/>
        <pt x="367" y="104" on="1"/>
        <pt x="473" y="104" on="0"/>
        <pt x="590" y="235" on="0"/>
        <pt x="590" y="350" on="1"/>
        <pt x="590" y="464" on="0"/>
        <pt x="472" y="596" on="0"/>
        <pt x="367" y="596" on="1"/>
        <pt x="200" y="596" on="1"/>
        <pt x="206" y="605" on="1"/>
        <pt x="206" y="93" on="1"/>
      </contour>
      <contour>
        <pt x="288" y="307" on="1"/>
        <pt x="20" y="307" on="1"/>
        <pt x="20" y="397" on="1"/>
        <pt x="288" y="397" on="1"/>
      </contour>
    </TTGlyph>
    <TTGlyph name="Euro" xMin="15" yMin="-10" xMax="591" yMax="706">
      <contour>
        <pt x="417" y="221" on="1"/>
        <pt x="15" y="222" on="1"/>
        <pt x="15" y="316" on="1"/>
        <pt x="417" y="314" on="1"/>
      </contour>
      <contour>
        <pt x="417" y="367" on="1"/>
        <pt x="15" y="368" on="1"/>
        <pt x="15" y="461" on="1"/>
        <pt x="417" y="460" on="1"/>
      </contour>
      <contour>
        <pt x="429" y="-10" on="1"/>
        <pt x="282" y="-10" on="0"/>
        <pt x="92" y="189" on="0"/>
        <pt x="92" y="350" on="1"/>
        <pt x="92" y="503" on="0"/>
        <pt x="284" y="706" on="0"/>
        <pt x="429" y="706" on="1"/>
        <pt x="472" y="706" on="0"/>
        <pt x="555" y="682" on="0"/>
        <pt x="590" y="659" on="1"/>
        <pt x="541" y="576" on="1"/>
        <pt x="516" y="593" on="0"/>
        <pt x="458" y="610" on="0"/>
        <pt x="429" y="610" on="1"/>
        <pt x="324" y="610" on="0"/>
        <pt x="189" y="464" on="0"/>
        <pt x="189" y="350" on="1"/>
        <pt x="189" y="230" on="0"/>
        <pt x="322" y="86" on="0"/>
        <pt x="429" y="86" on="1"/>
        <pt x="460" y="86" on="0"/>
        <pt x="516" y="104" on="0"/>
        <pt x="541" y="121" on="1"/>
        <pt x="591" y="37" on="1"/>
        <pt x="554" y="15" on="0"/>
        <pt x="470" y="-10" on="0"/>
      </contour>
    </TTGlyph>
    <TTGlyph name="F" xMin="98" yMin="0" xMax="552" yMax="700">
      <contour>
        <pt x="98" y="0" on="1"/>
        <pt x="98" y="700" on="1"/>
        <pt x="206" y="700" on="1"/>
        <pt x="206" y="0" on="1"/>
      </contour>
      <contour>
        <pt x="507" y="298" on="1"/>
        <pt x="146" y="298" on="1"/>
        <pt x="146" y="402" on="1"/>
        <pt x="507" y="402" on="1"/>
      </contour>
      <contour>
        <pt x="552" y="596" on="1"/>
        <pt x="146" y="596" on="1"/>
        <pt x="146" y="700" on="1"/>
        <pt x="552" y="700" on="1"/>
      </contour>
    </TTGlyph>
    <TTGlyph name="G" xMin="48" yMin="-10" xMax="723" yMax="706">
      <contour>
        <pt x="48" y="350" on="1"/>
        <pt x="48" y="501" on="0"/>
        <pt x="257" y="706" on="0"/>
        <pt x="410" y="706" on="1"/>
        <pt x="490" y="706" on="0"/>
        <pt x="633" y="640" on="0"/>
        <pt x="672" y="587" on="1"/>
        <pt x="602" y="514" on="1"/>
        <pt x="557" y="557" on="0"/>
        <pt x="460" y="601" on="0"/>
        <pt x="410" y="601" on="1"/>
        <pt x="303" y="601" on="0"/>
        <pt x="158" y="457" on="0"/>
        <pt x="158" y="350" on="1"/>
        <pt x="158" y="245" on="0"/>
        <pt x="309" y="95" on="0"/>
        <pt x="414" y="95" on="1"/>
        <pt x="493" y="95" on="0"/>
        <pt x="607" y="183" on="0"/>
        <pt x="607" y="246" on="1"/>
        <pt x="607" y="266" on="1"/>
        <pt x="622" y="252" on="1"/>
        <pt x="408" y="252" on="1"/>
        <pt x="408" y="359" on="1"/>
        <pt x="718" y="359" on="1"/>
        <pt x="721" y="342" on="0"/>
        <pt x="723" y="313" on="0"/>
        <pt x="723" y="299" on="1"/>
        <pt x="723" y="161" on="0"/>
        <pt x="542" y="-10" on="0"/>
        <pt x="411" y="-10" on="1"/>
        <pt x="258" y="-10" on="0"/>
        <pt x="48" y="198" on="0"/>
      </contour>
    </TTGlyph>
    <TTGlyph name="Gbreve" xMin="48" yMin="-10" xMax="723" yMax="917">
      <contour>
        <pt x="48" y="350" on="1"/>
        <pt x="48" y="501" on="0"/>
        <pt x="257" y="706" on="0"/>
        <pt x="410" y="706" on="1"/>
        <pt x="490" y="706" on="0"/>
        <pt x="633" y="640" on="0"/>
        <pt x="672" y="587" on="1"/>
        <pt x="602" y="514" on="1"/>
        <pt x="557" y="557" on="0"/>
        <pt x="460" y="601" on="0"/>
        <pt x="410" y="601" on="1"/>
        <pt x="303" y="601" on="0"/>
        <pt x="158" y="457" on="0"/>
        <pt x="158" y="350" on="1"/>
        <pt x="158" y="245" on="0"/>
        <pt x="309" y="95" on="0"/>
        <pt x="414" y="95" on="1"/>
        <pt x="493" y="95" on="0"/>
        <pt x="607" y="183" on="0"/>
        <pt x="607" y="246" on="1"/>
        <pt x="607" y="266" on="1"/>
        <pt x="622" y="252" on="1"/>
        <pt x="408" y="252" on="1"/>
        <pt x="408" y="359" on="1"/>
        <pt x="718" y="359" on="1"/>
        <pt x="721" y="342" on="0"/>
        <pt x="723" y="313" on="0"/>
        <pt x="723" y="299" on="1"/>
        <pt x="723" y="161" on="0"/>
        <pt x="542" y="-10" on="0"/>
        <pt x="411" y="-10" on="1"/>
        <pt x="258" y="-10" on="0"/>
        <pt x="48" y="198" on="0"/>
      </contour>
      <contour>
        <pt x="397" y="751" on="1"/>
        <pt x="336" y="751" on="0"/>
        <pt x="249" y="834" on="0"/>
        <pt x="235" y="905" on="1"/>
        <pt x="309" y="917" on="1"/>
        <pt x="322" y="878" on="0"/>
        <pt x="370" y="832" on="0"/>
        <pt x="397" y="832" on="1"/>
        <pt x="424" y="832" on="0"/>
        <pt x="472" y="878" on="0"/>
        <pt x="485" y="917" on="1"/>
        <pt x="559" y="905" on="1"/>
        <pt x="545" y="834" on="0"/>
        <pt x="458" y="751" on="0"/>
      </contour>
    </TTGlyph>
    <TTGlyph name="Gcaron" xMin="48" yMin="-10" xMax="723" yMax="902">
      <contour>
        <pt x="48" y="350" on="1"/>
        <pt x="48" y="501" on="0"/>
        <pt x="257" y="706" on="0"/>
        <pt x="410" y="706" on="1"/>
        <pt x="490" y="706" on="0"/>
        <pt x="633" y="640" on="0"/>
        <pt x="672" y="587" on="1"/>
        <pt x="602" y="514" on="1"/>
        <pt x="557" y="557" on="0"/>
        <pt x="460" y="601" on="0"/>
        <pt x="410" y="601" on="1"/>
        <pt x="303" y="601" on="0"/>
        <pt x="158" y="457" on="0"/>
        <pt x="158" y="350" on="1"/>
        <pt x="158" y="245" on="0"/>
        <pt x="309" y="95" on="0"/>
        <pt x="414" y="95" on="1"/>
        <pt x="493" y="95" on="0"/>
        <pt x="607" y="183" on="0"/>
        <pt x="607" y="246" on="1"/>
        <pt x="607" y="266" on="1"/>
        <pt x="622" y="252" on="1"/>
        <pt x="408" y="252" on="1"/>
        <pt x="408" y="359" on="1"/>
        <pt x="718" y="359" on="1"/>
        <pt x="721" y="342" on="0"/>
        <pt x="723" y="313" on="0"/>
        <pt x="723" y="299" on="1"/>
        <pt x="723" y="161" on="0"/>
        <pt x="542" y="-10" on="0"/>
        <pt x="411" y="-10" on="1"/>
        <pt x="258" y="-10" on="0"/>
        <pt x="48" y="198" on="0"/>
      </contour>
      <contour>
        <pt x="516" y="902" on="1"/>
        <pt x="381" y="829" on="1"/>
        <pt x="411" y="829" on="1"/>
        <pt x="276" y="902" on="1"/>
        <pt x="238" y="869" on="1"/>
        <pt x="353" y="756" on="1"/>
        <pt x="439" y="756" on="1"/>
        <pt x="554" y="869" on="1"/>
      </contour>
    </TTGlyph>
    <TTGlyph name="Gcircumflex" xMin="48" yMin="-10" xMax="723" yMax="894">
      <contour>
        <pt x="48" y="350" on="1"/>
        <pt x="48" y="501" on="0"/>
        <pt x="257" y="706" on="0"/>
        <pt x="410" y="706" on="1"/>
        <pt x="490" y="706" on="0"/>
        <pt x="633" y="640" on="0"/>
        <pt x="672" y="587" on="1"/>
        <pt x="602" y="514" on="1"/>
        <pt x="557" y="557" on="0"/>
        <pt x="460" y="601" on="0"/>
        <pt x="410" y="601" on="1"/>
        <pt x="303" y="601" on="0"/>
        <pt x="158" y="457" on="0"/>
        <pt x="158" y="350" on="1"/>
        <pt x="158" y="245" on="0"/>
        <pt x="309" y="95" on="0"/>
        <pt x="414" y="95" on="1"/>
        <pt x="493" y="95" on="0"/>
        <pt x="607" y="183" on="0"/>
        <pt x="607" y="246" on="1"/>
        <pt x="607" y="266" on="1"/>
        <pt x="622" y="252" on="1"/>
        <pt x="408" y="252" on="1"/>
        <pt x="408" y="359" on="1"/>
        <pt x="718" y="359" on="1"/>
        <pt x="721" y="342" on="0"/>
        <pt x="723" y="313" on="0"/>
        <pt x="723" y="299" on="1"/>
        <pt x="723" y="161" on="0"/>
        <pt x="542" y="-10" on="0"/>
        <pt x="411" y="-10" on="1"/>
        <pt x="258" y="-10" on="0"/>
        <pt x="48" y="198" on="0"/>
      </contour>
      <contour>
        <pt x="518" y="748" on="1"/>
        <pt x="385" y="823" on="1"/>
        <pt x="414" y="823" on="1"/>
        <pt x="281" y="748" on="1"/>
        <pt x="244" y="783" on="1"/>
        <pt x="363" y="894" on="1"/>
        <pt x="436" y="894" on="1"/>
        <pt x="555" y="783" on="1"/>
      </contour>
    </TTGlyph>
    <TTGlyph name="Gdotaccent" xMin="48" yMin="-10" xMax="723" yMax="889">
      <contour>
        <pt x="48" y="350" on="1"/>
        <pt x="48" y="501" on="0"/>
        <pt x="257" y="706" on="0"/>
        <pt x="410" y="706" on="1"/>
        <pt x="490" y="706" on="0"/>
        <pt x="633" y="640" on="0"/>
        <pt x="672" y="587" on="1"/>
        <pt x="602" y="514" on="1"/>
        <pt x="557" y="557" on="0"/>
        <pt x="460" y="601" on="0"/>
        <pt x="410" y="601" on="1"/>
        <pt x="303" y="601" on="0"/>
        <pt x="158" y="457" on="0"/>
        <pt x="158" y="350" on="1"/>
        <pt x="158" y="245" on="0"/>
        <pt x="309" y="95" on="0"/>
        <pt x="414" y="95" on="1"/>
        <pt x="493" y="95" on="0"/>
        <pt x="607" y="183" on="0"/>
        <pt x="607" y="246" on="1"/>
        <pt x="607" y="266" on="1"/>
        <pt x="622" y="252" on="1"/>
        <pt x="408" y="252" on="1"/>
        <pt x="408" y="359" on="1"/>
        <pt x="718" y="359" on="1"/>
        <pt x="721" y="342" on="0"/>
        <pt x="723" y="313" on="0"/>
        <pt x="723" y="299" on="1"/>
        <pt x="723" y="161" on="0"/>
        <pt x="542" y="-10" on="0"/>
        <pt x="411" y="-10" on="1"/>
        <pt x="258" y="-10" on="0"/>
        <pt x="48" y="198" on="0"/>
      </contour>
      <contour>
        <pt x="470" y="824" on="1"/>
        <pt x="470" y="795" on="0"/>
        <pt x="433" y="759" on="0"/>
        <pt x="401" y="759" on="1"/>
        <pt x="368" y="759" on="0"/>
        <pt x="332" y="793" on="0"/>
        <pt x="332" y="824" on="1"/>
        <pt x="332" y="853" on="0"/>
        <pt x="369" y="889" on="0"/>
        <pt x="401" y="889" on="1"/>
        <pt x="434" y="889" on="0"/>
        <pt x="470" y="855" on="0"/>
      </contour>
    </TTGlyph>
    <TTGlyph name="H" xMin="98" yMin="0" xMax="663" yMax="700">
      <contour>
        <pt x="98" y="700" on="1"/>
        <pt x="206" y="700" on="1"/>
        <pt x="206" y="0" on="1"/>
        <pt x="98" y="0" on="1"/>
      </contour>
      <contour>
        <pt x="555" y="700" on="1"/>
        <pt x="663" y="700" on="1"/>
        <pt x="663" y="0" on="1"/>
        <pt x="555" y="0" on="1"/>
      </contour>
      <contour>
        <pt x="145" y="297" on="1"/>
        <pt x="145" y="401" on="1"/>
        <pt x="603" y="401" on="1"/>
        <pt x="603" y="297" on="1"/>
      </contour>
    </TTGlyph>
    <TTGlyph name="Hbar" xMin="57" yMin="0" xMax="800" yMax="700">
      <contour>
        <pt x="163" y="468" on="1"/>
        <pt x="57" y="468" on="1"/>
        <pt x="57" y="572" on="1"/>
        <pt x="173" y="572" on="1"/>
        <pt x="219" y="562" on="1"/>
        <pt x="613" y="562" on="1"/>
        <pt x="649" y="572" on="1"/>
        <pt x="800" y="572" on="1"/>
        <pt x="800" y="468" on="1"/>
        <pt x="656" y="468" on="1"/>
        <pt x="625" y="478" on="1"/>
        <pt x="209" y="478" on="1"/>
      </contour>
      <contour>
        <pt x="146" y="700" on="1"/>
        <pt x="254" y="700" on="1"/>
        <pt x="254" y="0" on="1"/>
        <pt x="146" y="0" on="1"/>
      </contour>
      <contour>
        <pt x="603" y="700" on="1"/>
        <pt x="711" y="700" on="1"/>
        <pt x="711" y="0" on="1"/>
        <pt x="603" y="0" on="1"/>
      </contour>
      <contour>
        <pt x="193" y="297" on="1"/>
        <pt x="193" y="401" on="1"/>
        <pt x="651" y="401" on="1"/>
        <pt x="651" y="297" on="1"/>
      </contour>
    </TTGlyph>
    <TTGlyph name="Hcircumflex" xMin="98" yMin="0" xMax="663" yMax="894">
      <contour>
        <pt x="98" y="700" on="1"/>
        <pt x="206" y="700" on="1"/>
        <pt x="206" y="0" on="1"/>
        <pt x="98" y="0" on="1"/>
      </contour>
      <contour>
        <pt x="555" y="700" on="1"/>
        <pt x="663" y="700" on="1"/>
        <pt x="663" y="0" on="1"/>
        <pt x="555" y="0" on="1"/>
      </contour>
      <contour>
        <pt x="145" y="297" on="1"/>
        <pt x="145" y="401" on="1"/>
        <pt x="603" y="401" on="1"/>
        <pt x="603" y="297" on="1"/>
      </contour>
      <contour>
        <pt x="494" y="748" on="1"/>
        <pt x="361" y="823" on="1"/>
        <pt x="390" y="823" on="1"/>
        <pt x="257" y="748" on="1"/>
        <pt x="220" y="783" on="1"/>
        <pt x="339" y="894" on="1"/>
        <pt x="412" y="894" on="1"/>
        <pt x="531" y="783" on="1"/>
      </contour>
    </TTGlyph>
    <TTGlyph name="I" xMin="72" yMin="0" xMax="406" yMax="700">
      <contour>
        <pt x="293" y="700" on="1"/>
        <pt x="293" y="0" on="1"/>
        <pt x="185" y="0" on="1"/>
        <pt x="185" y="700" on="1"/>
        <pt x="212" y="700" on="0"/>
        <pt x="266" y="700" on="0"/>
      </contour>
      <contour>
        <pt x="406" y="700" on="1"/>
        <pt x="406" y="600" on="1"/>
        <pt x="72" y="600" on="1"/>
        <pt x="72" y="700" on="1"/>
      </contour>
      <contour>
        <pt x="406" y="100" on="1"/>
        <pt x="406" y="0" on="1"/>
        <pt x="72" y="0" on="1"/>
        <pt x="72" y="100" on="1"/>
      </contour>
    </TTGlyph>
    <TTGlyph name="I.ss01" xMin="100" yMin="0" xMax="208" yMax="700">
      <contour>
        <pt x="208" y="700" on="1"/>
        <pt x="208" y="0" on="1"/>
        <pt x="100" y="0" on="1"/>
        <pt x="100" y="700" on="1"/>
        <pt x="127" y="700" on="0"/>
        <pt x="181" y="700" on="0"/>
      </contour>
    </TTGlyph>
    <TTGlyph name="IJ" xMin="72" yMin="-10" xMax="1070" yMax="700">
      <contour>
        <pt x="293" y="700" on="1"/>
        <pt x="293" y="0" on="1"/>
        <pt x="185" y="0" on="1"/>
        <pt x="185" y="700" on="1"/>
        <pt x="212" y="700" on="0"/>
        <pt x="266" y="700" on="0"/>
      </contour>
      <contour>
        <pt x="406" y="700" on="1"/>
        <pt x="406" y="600" on="1"/>
        <pt x="72" y="600" on="1"/>
        <pt x="72" y="700" on="1"/>
      </contour>
      <contour>
        <pt x="406" y="100" on="1"/>
        <pt x="406" y="0" on="1"/>
        <pt x="72" y="0" on="1"/>
        <pt x="72" y="100" on="1"/>
      </contour>
      <contour>
        <pt x="734" y="-10" on="1"/>
        <pt x="666" y="-10" on="0"/>
        <pt x="557" y="60" on="0"/>
        <pt x="528" y="117" on="1"/>
        <pt x="596" y="188" on="1"/>
        <pt x="639" y="129" on="0"/>
        <pt x="697" y="95" on="0"/>
        <pt x="734" y="95" on="1"/>
        <pt x="788" y="95" on="0"/>
        <pt x="854" y="167" on="0"/>
        <pt x="854" y="223" on="1"/>
        <pt x="854" y="700" on="1"/>
        <pt x="962" y="700" on="1"/>
        <pt x="962" y="213" on="1"/>
        <pt x="962" y="118" on="0"/>
        <pt x="835" y="-10" on="0"/>
      </contour>
      <contour>
        <pt x="1070" y="700" on="1"/>
        <pt x="1070" y="600" on="1"/>
        <pt x="726" y="600" on="1"/>
        <pt x="726" y="700" on="1"/>
      </contour>
    </TTGlyph>
    <TTGlyph name="IJ.ss01" xMin="100" yMin="-10" xMax="792" yMax="700">
      <contour>
        <pt x="208" y="700" on="1"/>
        <pt x="208" y="0" on="1"/>
        <pt x="100" y="0" on="1"/>
        <pt x="100" y="700" on="1"/>
        <pt x="127" y="700" on="0"/>
        <pt x="181" y="700" on="0"/>
      </contour>
      <contour>
        <pt x="564" y="-10" on="1"/>
        <pt x="496" y="-10" on="0"/>
        <pt x="387" y="60" on="0"/>
        <pt x="358" y="117" on="1"/>
        <pt x="426" y="188" on="1"/>
        <pt x="469" y="129" on="0"/>
        <pt x="527" y="95" on="0"/>
        <pt x="564" y="95" on="1"/>
        <pt x="618" y="95" on="0"/>
        <pt x="684" y="167" on="0"/>
        <pt x="684" y="223" on="1"/>
        <pt x="684" y="700" on="1"/>
        <pt x="792" y="700" on="1"/>
        <pt x="792" y="213" on="1"/>
        <pt x="792" y="118" on="0"/>
        <pt x="665" y="-10" on="0"/>
      </contour>
    </TTGlyph>
    <TTGlyph name="IJacute" xMin="72" yMin="-10" xMax="1070" yMax="893">
      <contour>
        <pt x="293" y="700" on="1"/>
        <pt x="293" y="0" on="1"/>
        <pt x="185" y="0" on="1"/>
        <pt x="185" y="700" on="1"/>
        <pt x="212" y="700" on="0"/>
        <pt x="266" y="700" on="0"/>
      </contour>
      <contour>
        <pt x="406" y="700" on="1"/>
        <pt x="406" y="600" on="1"/>
        <pt x="72" y="600" on="1"/>
        <pt x="72" y="700" on="1"/>
      </contour>
      <contour>
        <pt x="406" y="100" on="1"/>
        <pt x="406" y="0" on="1"/>
        <pt x="72" y="0" on="1"/>
        <pt x="72" y="100" on="1"/>
      </contour>
      <contour>
        <pt x="734" y="-10" on="1"/>
        <pt x="666" y="-10" on="0"/>
        <pt x="557" y="60" on="0"/>
        <pt x="528" y="117" on="1"/>
        <pt x="596" y="188" on="1"/>
        <pt x="639" y="129" on="0"/>
        <pt x="697" y="95" on="0"/>
        <pt x="734" y="95" on="1"/>
        <pt x="788" y="95" on="0"/>
        <pt x="854" y="167" on="0"/>
        <pt x="854" y="223" on="1"/>
        <pt x="854" y="700" on="1"/>
        <pt x="962" y="700" on="1"/>
        <pt x="962" y="213" on="1"/>
        <pt x="962" y="118" on="0"/>
        <pt x="835" y="-10" on="0"/>
      </contour>
      <contour>
        <pt x="1070" y="700" on="1"/>
        <pt x="1070" y="600" on="1"/>
        <pt x="726" y="600" on="1"/>
        <pt x="726" y="700" on="1"/>
      </contour>
      <contour>
        <pt x="354" y="811" on="1"/>
        <pt x="180" y="717" on="1"/>
        <pt x="146" y="768" on="1"/>
        <pt x="289" y="893" on="1"/>
      </contour>
      <contour>
        <pt x="1057" y="811" on="1"/>
        <pt x="883" y="717" on="1"/>
        <pt x="849" y="768" on="1"/>
        <pt x="992" y="893" on="1"/>
      </contour>
    </TTGlyph>
    <TTGlyph name="IJacute.ss01" xMin="100" yMin="-10" xMax="904" yMax="893">
      <contour>
        <pt x="208" y="700" on="1"/>
        <pt x="208" y="0" on="1"/>
        <pt x="100" y="0" on="1"/>
        <pt x="100" y="700" on="1"/>
        <pt x="127" y="700" on="0"/>
        <pt x="181" y="700" on="0"/>
      </contour>
      <contour>
        <pt x="564" y="-10" on="1"/>
        <pt x="496" y="-10" on="0"/>
        <pt x="387" y="60" on="0"/>
        <pt x="358" y="117" on="1"/>
        <pt x="426" y="188" on="1"/>
        <pt x="469" y="129" on="0"/>
        <pt x="527" y="95" on="0"/>
        <pt x="564" y="95" on="1"/>
        <pt x="618" y="95" on="0"/>
        <pt x="684" y="167" on="0"/>
        <pt x="684" y="223" on="1"/>
        <pt x="684" y="700" on="1"/>
        <pt x="792" y="700" on="1"/>
        <pt x="792" y="213" on="1"/>
        <pt x="792" y="118" on="0"/>
        <pt x="665" y="-10" on="0"/>
      </contour>
      <contour>
        <pt x="326" y="811" on="1"/>
        <pt x="152" y="717" on="1"/>
        <pt x="118" y="768" on="1"/>
        <pt x="261" y="893" on="1"/>
      </contour>
      <contour>
        <pt x="904" y="811" on="1"/>
        <pt x="730" y="717" on="1"/>
        <pt x="696" y="768" on="1"/>
        <pt x="839" y="893" on="1"/>
      </contour>
    </TTGlyph>
    <TTGlyph name="Iacute" xMin="72" yMin="0" xMax="406" yMax="926">
      <contour>
        <pt x="293" y="700" on="1"/>
        <pt x="293" y="0" on="1"/>
        <pt x="185" y="0" on="1"/>
        <pt x="185" y="700" on="1"/>
        <pt x="212" y="700" on="0"/>
        <pt x="266" y="700" on="0"/>
      </contour>
      <contour>
        <pt x="406" y="700" on="1"/>
        <pt x="406" y="600" on="1"/>
        <pt x="72" y="600" on="1"/>
        <pt x="72" y="700" on="1"/>
      </contour>
      <contour>
        <pt x="406" y="100" on="1"/>
        <pt x="406" y="0" on="1"/>
        <pt x="72" y="0" on="1"/>
        <pt x="72" y="100" on="1"/>
      </contour>
      <contour>
        <pt x="386" y="844" on="1"/>
        <pt x="212" y="750" on="1"/>
        <pt x="178" y="801" on="1"/>
        <pt x="321" y="926" on="1"/>
      </contour>
    </TTGlyph>
    <TTGlyph name="Iacute.ss01" xMin="93" yMin="0" xMax="301" yMax="926">
      <contour>
        <pt x="208" y="700" on="1"/>
        <pt x="208" y="0" on="1"/>
        <pt x="100" y="0" on="1"/>
        <pt x="100" y="700" on="1"/>
        <pt x="127" y="700" on="0"/>
        <pt x="181" y="700" on="0"/>
      </contour>
      <contour>
        <pt x="301" y="844" on="1"/>
        <pt x="127" y="750" on="1"/>
        <pt x="93" y="801" on="1"/>
        <pt x="236" y="926" on="1"/>
      </contour>
    </TTGlyph>
    <TTGlyph name="Iacute_J.loclNLD" xMin="72" yMin="-10" xMax="1012" yMax="941">
      <contour>
        <pt x="293" y="700" on="1"/>
        <pt x="293" y="0" on="1"/>
        <pt x="185" y="0" on="1"/>
        <pt x="185" y="700" on="1"/>
        <pt x="212" y="700" on="0"/>
        <pt x="266" y="700" on="0"/>
      </contour>
      <contour>
        <pt x="406" y="700" on="1"/>
        <pt x="406" y="600" on="1"/>
        <pt x="72" y="600" on="1"/>
        <pt x="72" y="700" on="1"/>
      </contour>
      <contour>
        <pt x="406" y="100" on="1"/>
        <pt x="406" y="0" on="1"/>
        <pt x="72" y="0" on="1"/>
        <pt x="72" y="100" on="1"/>
      </contour>
      <contour>
        <pt x="386" y="844" on="1"/>
        <pt x="212" y="750" on="1"/>
        <pt x="178" y="801" on="1"/>
        <pt x="321" y="926" on="1"/>
      </contour>
      <contour>
        <pt x="676" y="-10" on="1"/>
        <pt x="608" y="-10" on="0"/>
        <pt x="499" y="60" on="0"/>
        <pt x="470" y="117" on="1"/>
        <pt x="538" y="188" on="1"/>
        <pt x="581" y="129" on="0"/>
        <pt x="639" y="95" on="0"/>
        <pt x="676" y="95" on="1"/>
        <pt x="730" y="95" on="0"/>
        <pt x="796" y="167" on="0"/>
        <pt x="796" y="223" on="1"/>
        <pt x="796" y="700" on="1"/>
        <pt x="904" y="700" on="1"/>
        <pt x="904" y="213" on="1"/>
        <pt x="904" y="118" on="0"/>
        <pt x="777" y="-10" on="0"/>
      </contour>
      <contour>
        <pt x="1012" y="700" on="1"/>
        <pt x="1012" y="600" on="1"/>
        <pt x="668" y="600" on="1"/>
        <pt x="668" y="700" on="1"/>
      </contour>
      <contour>
        <pt x="970" y="859" on="1"/>
        <pt x="796" y="765" on="1"/>
        <pt x="762" y="816" on="1"/>
        <pt x="905" y="941" on="1"/>
      </contour>
    </TTGlyph>
    <TTGlyph name="Ibreve" xMin="72" yMin="0" xMax="406" yMax="917">
      <contour>
        <pt x="293" y="700" on="1"/>
        <pt x="293" y="0" on="1"/>
        <pt x="185" y="0" on="1"/>
        <pt x="185" y="700" on="1"/>
        <pt x="212" y="700" on="0"/>
        <pt x="266" y="700" on="0"/>
      </contour>
      <contour>
        <pt x="406" y="700" on="1"/>
        <pt x="406" y="600" on="1"/>
        <pt x="72" y="600" on="1"/>
        <pt x="72" y="700" on="1"/>
      </contour>
      <contour>
        <pt x="406" y="100" on="1"/>
        <pt x="406" y="0" on="1"/>
        <pt x="72" y="0" on="1"/>
        <pt x="72" y="100" on="1"/>
      </contour>
      <contour>
        <pt x="235" y="751" on="1"/>
        <pt x="174" y="751" on="0"/>
        <pt x="87" y="834" on="0"/>
        <pt x="73" y="905" on="1"/>
        <pt x="147" y="917" on="1"/>
        <pt x="160" y="878" on="0"/>
        <pt x="208" y="832" on="0"/>
        <pt x="235" y="832" on="1"/>
        <pt x="262" y="832" on="0"/>
        <pt x="310" y="878" on="0"/>
        <pt x="323" y="917" on="1"/>
        <pt x="397" y="905" on="1"/>
        <pt x="383" y="834" on="0"/>
        <pt x="296" y="751" on="0"/>
      </contour>
    </TTGlyph>
    <TTGlyph name="Ibreve.ss01" xMin="-12" yMin="0" xMax="312" yMax="917">
      <contour>
        <pt x="208" y="700" on="1"/>
        <pt x="208" y="0" on="1"/>
        <pt x="100" y="0" on="1"/>
        <pt x="100" y="700" on="1"/>
        <pt x="127" y="700" on="0"/>
        <pt x="181" y="700" on="0"/>
      </contour>
      <contour>
        <pt x="150" y="751" on="1"/>
        <pt x="89" y="751" on="0"/>
        <pt x="2" y="834" on="0"/>
        <pt x="-12" y="905" on="1"/>
        <pt x="62" y="917" on="1"/>
        <pt x="75" y="878" on="0"/>
        <pt x="123" y="832" on="0"/>
        <pt x="150" y="832" on="1"/>
        <pt x="177" y="832" on="0"/>
        <pt x="225" y="878" on="0"/>
        <pt x="238" y="917" on="1"/>
        <pt x="312" y="905" on="1"/>
        <pt x="298" y="834" on="0"/>
        <pt x="211" y="751" on="0"/>
      </contour>
    </TTGlyph>
    <TTGlyph name="Icircumflex" xMin="72" yMin="0" xMax="406" yMax="894">
      <contour>
        <pt x="293" y="700" on="1"/>
        <pt x="293" y="0" on="1"/>
        <pt x="185" y="0" on="1"/>
        <pt x="185" y="700" on="1"/>
        <pt x="212" y="700" on="0"/>
        <pt x="266" y="700" on="0"/>
      </contour>
      <contour>
        <pt x="406" y="700" on="1"/>
        <pt x="406" y="600" on="1"/>
        <pt x="72" y="600" on="1"/>
        <pt x="72" y="700" on="1"/>
      </contour>
      <contour>
        <pt x="406" y="100" on="1"/>
        <pt x="406" y="0" on="1"/>
        <pt x="72" y="0" on="1"/>
        <pt x="72" y="100" on="1"/>
      </contour>
      <contour>
        <pt x="356" y="748" on="1"/>
        <pt x="223" y="823" on="1"/>
        <pt x="252" y="823" on="1"/>
        <pt x="119" y="748" on="1"/>
        <pt x="82" y="783" on="1"/>
        <pt x="201" y="894" on="1"/>
        <pt x="274" y="894" on="1"/>
        <pt x="393" y="783" on="1"/>
      </contour>
    </TTGlyph>
    <TTGlyph name="Icircumflex.ss01" xMin="-3" yMin="0" xMax="308" yMax="894">
      <contour>
        <pt x="208" y="700" on="1"/>
        <pt x="208" y="0" on="1"/>
        <pt x="100" y="0" on="1"/>
        <pt x="100" y="700" on="1"/>
        <pt x="127" y="700" on="0"/>
        <pt x="181" y="700" on="0"/>
      </contour>
      <contour>
        <pt x="271" y="748" on="1"/>
        <pt x="138" y="823" on="1"/>
        <pt x="167" y="823" on="1"/>
        <pt x="34" y="748" on="1"/>
        <pt x="-3" y="783" on="1"/>
        <pt x="116" y="894" on="1"/>
        <pt x="189" y="894" on="1"/>
        <pt x="308" y="783" on="1"/>
      </contour>
    </TTGlyph>
    <TTGlyph name="Idieresis" xMin="68" yMin="0" xMax="412" yMax="879">
      <contour>
        <pt x="293" y="700" on="1"/>
        <pt x="293" y="0" on="1"/>
        <pt x="185" y="0" on="1"/>
        <pt x="185" y="700" on="1"/>
        <pt x="212" y="700" on="0"/>
        <pt x="266" y="700" on="0"/>
      </contour>
      <contour>
        <pt x="406" y="700" on="1"/>
        <pt x="406" y="600" on="1"/>
        <pt x="72" y="600" on="1"/>
        <pt x="72" y="700" on="1"/>
      </contour>
      <contour>
        <pt x="406" y="100" on="1"/>
        <pt x="406" y="0" on="1"/>
        <pt x="72" y="0" on="1"/>
        <pt x="72" y="100" on="1"/>
      </contour>
      <contour>
        <pt x="206" y="814" on="1"/>
        <pt x="206" y="785" on="0"/>
        <pt x="169" y="749" on="0"/>
        <pt x="137" y="749" on="1"/>
        <pt x="104" y="749" on="0"/>
        <pt x="68" y="783" on="0"/>
        <pt x="68" y="814" on="1"/>
        <pt x="68" y="843" on="0"/>
        <pt x="105" y="879" on="0"/>
        <pt x="137" y="879" on="1"/>
        <pt x="170" y="879" on="0"/>
        <pt x="206" y="845" on="0"/>
      </contour>
      <contour>
        <pt x="412" y="814" on="1"/>
        <pt x="412" y="785" on="0"/>
        <pt x="375" y="749" on="0"/>
        <pt x="343" y="749" on="1"/>
        <pt x="310" y="749" on="0"/>
        <pt x="274" y="783" on="0"/>
        <pt x="274" y="814" on="1"/>
        <pt x="274" y="843" on="0"/>
        <pt x="311" y="879" on="0"/>
        <pt x="343" y="879" on="1"/>
        <pt x="376" y="879" on="0"/>
        <pt x="412" y="845" on="0"/>
      </contour>
    </TTGlyph>
    <TTGlyph name="Idieresis.ss01" xMin="-17" yMin="0" xMax="327" yMax="879">
      <contour>
        <pt x="208" y="700" on="1"/>
        <pt x="208" y="0" on="1"/>
        <pt x="100" y="0" on="1"/>
        <pt x="100" y="700" on="1"/>
        <pt x="127" y="700" on="0"/>
        <pt x="181" y="700" on="0"/>
      </contour>
      <contour>
        <pt x="121" y="814" on="1"/>
        <pt x="121" y="785" on="0"/>
        <pt x="84" y="749" on="0"/>
        <pt x="52" y="749" on="1"/>
        <pt x="19" y="749" on="0"/>
        <pt x="-17" y="783" on="0"/>
        <pt x="-17" y="814" on="1"/>
        <pt x="-17" y="843" on="0"/>
        <pt x="20" y="879" on="0"/>
        <pt x="52" y="879" on="1"/>
        <pt x="85" y="879" on="0"/>
        <pt x="121" y="845" on="0"/>
      </contour>
      <contour>
        <pt x="327" y="814" on="1"/>
        <pt x="327" y="785" on="0"/>
        <pt x="290" y="749" on="0"/>
        <pt x="258" y="749" on="1"/>
        <pt x="225" y="749" on="0"/>
        <pt x="189" y="783" on="0"/>
        <pt x="189" y="814" on="1"/>
        <pt x="189" y="843" on="0"/>
        <pt x="226" y="879" on="0"/>
        <pt x="258" y="879" on="1"/>
        <pt x="291" y="879" on="0"/>
        <pt x="327" y="845" on="0"/>
      </contour>
    </TTGlyph>
    <TTGlyph name="Idotaccent" xMin="72" yMin="0" xMax="406" yMax="889">
      <contour>
        <pt x="293" y="700" on="1"/>
        <pt x="293" y="0" on="1"/>
        <pt x="185" y="0" on="1"/>
        <pt x="185" y="700" on="1"/>
        <pt x="212" y="700" on="0"/>
        <pt x="266" y="700" on="0"/>
      </contour>
      <contour>
        <pt x="406" y="700" on="1"/>
        <pt x="406" y="600" on="1"/>
        <pt x="72" y="600" on="1"/>
        <pt x="72" y="700" on="1"/>
      </contour>
      <contour>
        <pt x="406" y="100" on="1"/>
        <pt x="406" y="0" on="1"/>
        <pt x="72" y="0" on="1"/>
        <pt x="72" y="100" on="1"/>
      </contour>
      <contour>
        <pt x="308" y="824" on="1"/>
        <pt x="308" y="795" on="0"/>
        <pt x="271" y="759" on="0"/>
        <pt x="239" y="759" on="1"/>
        <pt x="206" y="759" on="0"/>
        <pt x="170" y="793" on="0"/>
        <pt x="170" y="824" on="1"/>
        <pt x="170" y="853" on="0"/>
        <pt x="207" y="889" on="0"/>
        <pt x="239" y="889" on="1"/>
        <pt x="272" y="889" on="0"/>
        <pt x="308" y="855" on="0"/>
      </contour>
    </TTGlyph>
    <TTGlyph name="Idotaccent.ss01" xMin="85" yMin="0" xMax="223" yMax="889">
      <contour>
        <pt x="208" y="700" on="1"/>
        <pt x="208" y="0" on="1"/>
        <pt x="100" y="0" on="1"/>
        <pt x="100" y="700" on="1"/>
        <pt x="127" y="700" on="0"/>
        <pt x="181" y="700" on="0"/>
      </contour>
      <contour>
        <pt x="223" y="824" on="1"/>
        <pt x="223" y="795" on="0"/>
        <pt x="186" y="759" on="0"/>
        <pt x="154" y="759" on="1"/>
        <pt x="121" y="759" on="0"/>
        <pt x="85" y="793" on="0"/>
        <pt x="85" y="824" on="1"/>
        <pt x="85" y="853" on="0"/>
        <pt x="122" y="889" on="0"/>
        <pt x="154" y="889" on="1"/>
        <pt x="187" y="889" on="0"/>
        <pt x="223" y="855" on="0"/>
      </contour>
    </TTGlyph>
    <TTGlyph name="Igrave" xMin="72" yMin="0" xMax="406" yMax="930">
      <contour>
        <pt x="293" y="700" on="1"/>
        <pt x="293" y="0" on="1"/>
        <pt x="185" y="0" on="1"/>
        <pt x="185" y="700" on="1"/>
        <pt x="212" y="700" on="0"/>
        <pt x="266" y="700" on="0"/>
      </contour>
      <contour>
        <pt x="406" y="700" on="1"/>
        <pt x="406" y="600" on="1"/>
        <pt x="72" y="600" on="1"/>
        <pt x="72" y="700" on="1"/>
      </contour>
      <contour>
        <pt x="406" y="100" on="1"/>
        <pt x="406" y="0" on="1"/>
        <pt x="72" y="0" on="1"/>
        <pt x="72" y="100" on="1"/>
      </contour>
      <contour>
        <pt x="306" y="805" on="1"/>
        <pt x="272" y="754" on="1"/>
        <pt x="98" y="848" on="1"/>
        <pt x="163" y="930" on="1"/>
      </contour>
    </TTGlyph>
    <TTGlyph name="Igrave.ss01" xMin="13" yMin="0" xMax="221" yMax="930">
      <contour>
        <pt x="208" y="700" on="1"/>
        <pt x="208" y="0" on="1"/>
        <pt x="100" y="0" on="1"/>
        <pt x="100" y="700" on="1"/>
        <pt x="127" y="700" on="0"/>
        <pt x="181" y="700" on="0"/>
      </contour>
      <contour>
        <pt x="221" y="805" on="1"/>
        <pt x="187" y="754" on="1"/>
        <pt x="13" y="848" on="1"/>
        <pt x="78" y="930" on="1"/>
      </contour>
    </TTGlyph>
    <TTGlyph name="Imacron" xMin="72" yMin="0" xMax="406" yMax="851">
      <contour>
        <pt x="293" y="700" on="1"/>
        <pt x="293" y="0" on="1"/>
        <pt x="185" y="0" on="1"/>
        <pt x="185" y="700" on="1"/>
        <pt x="212" y="700" on="0"/>
        <pt x="266" y="700" on="0"/>
      </contour>
      <contour>
        <pt x="406" y="700" on="1"/>
        <pt x="406" y="600" on="1"/>
        <pt x="72" y="600" on="1"/>
        <pt x="72" y="700" on="1"/>
      </contour>
      <contour>
        <pt x="406" y="100" on="1"/>
        <pt x="406" y="0" on="1"/>
        <pt x="72" y="0" on="1"/>
        <pt x="72" y="100" on="1"/>
      </contour>
      <contour>
        <pt x="405" y="776" on="1"/>
        <pt x="74" y="776" on="1"/>
        <pt x="74" y="851" on="1"/>
        <pt x="405" y="851" on="1"/>
      </contour>
    </TTGlyph>
    <TTGlyph name="Imacron.ss01" xMin="-11" yMin="0" xMax="320" yMax="851">
      <contour>
        <pt x="208" y="700" on="1"/>
        <pt x="208" y="0" on="1"/>
        <pt x="100" y="0" on="1"/>
        <pt x="100" y="700" on="1"/>
        <pt x="127" y="700" on="0"/>
        <pt x="181" y="700" on="0"/>
      </contour>
      <contour>
        <pt x="320" y="776" on="1"/>
        <pt x="-11" y="776" on="1"/>
        <pt x="-11" y="851" on="1"/>
        <pt x="320" y="851" on="1"/>
      </contour>
    </TTGlyph>
    <TTGlyph name="Iogonek" xMin="72" yMin="-200" xMax="425" yMax="700">
      <contour>
        <pt x="293" y="700" on="1"/>
        <pt x="293" y="0" on="1"/>
        <pt x="185" y="0" on="1"/>
        <pt x="185" y="700" on="1"/>
        <pt x="212" y="700" on="0"/>
        <pt x="266" y="700" on="0"/>
      </contour>
      <contour>
        <pt x="406" y="700" on="1"/>
        <pt x="406" y="600" on="1"/>
        <pt x="72" y="600" on="1"/>
        <pt x="72" y="700" on="1"/>
      </contour>
      <contour>
        <pt x="406" y="100" on="1"/>
        <pt x="406" y="0" on="1"/>
        <pt x="72" y="0" on="1"/>
        <pt x="72" y="100" on="1"/>
      </contour>
      <contour>
        <pt x="316" y="-200" on="1"/>
        <pt x="273" y="-200" on="0"/>
        <pt x="207" y="-139" on="0"/>
        <pt x="207" y="-97" on="1"/>
        <pt x="207" y="-47" on="0"/>
        <pt x="290" y="31" on="0"/>
        <pt x="362" y="51" on="1"/>
        <pt x="406" y="44" on="1"/>
        <pt x="406" y="0" on="1"/>
        <pt x="362" y="-10" on="0"/>
        <pt x="298" y="-60" on="0"/>
        <pt x="298" y="-87" on="1"/>
        <pt x="298" y="-103" on="0"/>
        <pt x="317" y="-123" on="0"/>
        <pt x="332" y="-123" on="1"/>
        <pt x="343" y="-123" on="0"/>
        <pt x="361" y="-110" on="0"/>
        <pt x="369" y="-98" on="1"/>
        <pt x="425" y="-138" on="1"/>
        <pt x="415" y="-163" on="0"/>
        <pt x="352" y="-200" on="0"/>
      </contour>
    </TTGlyph>
    <TTGlyph name="Iogonek.ss01" xMin="9" yMin="-220" xMax="227" yMax="700">
      <contour>
        <pt x="208" y="700" on="1"/>
        <pt x="208" y="0" on="1"/>
        <pt x="100" y="0" on="1"/>
        <pt x="100" y="700" on="1"/>
        <pt x="127" y="700" on="0"/>
        <pt x="181" y="700" on="0"/>
      </contour>
      <contour>
        <pt x="118" y="-220" on="1"/>
        <pt x="75" y="-220" on="0"/>
        <pt x="9" y="-159" on="0"/>
        <pt x="9" y="-117" on="1"/>
        <pt x="9" y="-61" on="0"/>
        <pt x="91" y="30" on="0"/>
        <pt x="164" y="50" on="1"/>
        <pt x="208" y="43" on="1"/>
        <pt x="208" y="-1" on="1"/>
        <pt x="163" y="-11" on="0"/>
        <pt x="100" y="-74" on="0"/>
        <pt x="100" y="-107" on="1"/>
        <pt x="100" y="-123" on="0"/>
        <pt x="119" y="-143" on="0"/>
        <pt x="134" y="-143" on="1"/>
        <pt x="145" y="-143" on="0"/>
        <pt x="163" y="-130" on="0"/>
        <pt x="171" y="-118" on="1"/>
        <pt x="227" y="-158" on="1"/>
        <pt x="217" y="-183" on="0"/>
        <pt x="154" y="-220" on="0"/>
      </contour>
    </TTGlyph>
    <TTGlyph name="Itilde" xMin="68" yMin="0" xMax="411" yMax="929">
      <contour>
        <pt x="293" y="700" on="1"/>
        <pt x="293" y="0" on="1"/>
        <pt x="185" y="0" on="1"/>
        <pt x="185" y="700" on="1"/>
        <pt x="212" y="700" on="0"/>
        <pt x="266" y="700" on="0"/>
      </contour>
      <contour>
        <pt x="406" y="700" on="1"/>
        <pt x="406" y="600" on="1"/>
        <pt x="72" y="600" on="1"/>
        <pt x="72" y="700" on="1"/>
      </contour>
      <contour>
        <pt x="406" y="100" on="1"/>
        <pt x="406" y="0" on="1"/>
        <pt x="72" y="0" on="1"/>
        <pt x="72" y="100" on="1"/>
      </contour>
      <contour>
        <pt x="145" y="816" on="1"/>
        <pt x="68" y="816" on="1"/>
        <pt x="68" y="868" on="0"/>
        <pt x="125" y="929" on="0"/>
        <pt x="174" y="929" on="1"/>
        <pt x="189" y="929" on="0"/>
        <pt x="223" y="920" on="0"/>
        <pt x="255" y="906" on="1"/>
        <pt x="280" y="895" on="0"/>
        <pt x="302" y="889" on="0"/>
        <pt x="310" y="889" on="1"/>
        <pt x="323" y="889" on="0"/>
        <pt x="336" y="911" on="0"/>
        <pt x="335" y="929" on="1"/>
        <pt x="411" y="929" on="1"/>
        <pt x="411" y="880" on="0"/>
        <pt x="360" y="815" on="0"/>
        <pt x="319" y="815" on="1"/>
        <pt x="302" y="815" on="0"/>
        <pt x="263" y="825" on="0"/>
        <pt x="226" y="839" on="1"/>
        <pt x="201" y="849" on="0"/>
        <pt x="179" y="855" on="0"/>
        <pt x="172" y="855" on="1"/>
        <pt x="160" y="855" on="0"/>
        <pt x="145" y="834" on="0"/>
      </contour>
    </TTGlyph>
    <TTGlyph name="Itilde.ss01" xMin="-17" yMin="0" xMax="326" yMax="929">
      <contour>
        <pt x="208" y="700" on="1"/>
        <pt x="208" y="0" on="1"/>
        <pt x="100" y="0" on="1"/>
        <pt x="100" y="700" on="1"/>
        <pt x="127" y="700" on="0"/>
        <pt x="181" y="700" on="0"/>
      </contour>
      <contour>
        <pt x="60" y="816" on="1"/>
        <pt x="-17" y="816" on="1"/>
        <pt x="-17" y="868" on="0"/>
        <pt x="40" y="929" on="0"/>
        <pt x="89" y="929" on="1"/>
        <pt x="104" y="929" on="0"/>
        <pt x="138" y="920" on="0"/>
        <pt x="170" y="906" on="1"/>
        <pt x="195" y="895" on="0"/>
        <pt x="217" y="889" on="0"/>
        <pt x="225" y="889" on="1"/>
        <pt x="238" y="889" on="0"/>
        <pt x="251" y="911" on="0"/>
        <pt x="250" y="929" on="1"/>
        <pt x="326" y="929" on="1"/>
        <pt x="326" y="880" on="0"/>
        <pt x="275" y="815" on="0"/>
        <pt x="234" y="815" on="1"/>
        <pt x="217" y="815" on="0"/>
        <pt x="178" y="825" on="0"/>
        <pt x="141" y="839" on="1"/>
        <pt x="116" y="849" on="0"/>
        <pt x="94" y="855" on="0"/>
        <pt x="87" y="855" on="1"/>
        <pt x="75" y="855" on="0"/>
        <pt x="60" y="834" on="0"/>
      </contour>
    </TTGlyph>
    <TTGlyph name="J" xMin="50" yMin="-10" xMax="592" yMax="700">
      <contour>
        <pt x="256" y="-10" on="1"/>
        <pt x="188" y="-10" on="0"/>
        <pt x="79" y="60" on="0"/>
        <pt x="50" y="117" on="1"/>
        <pt x="118" y="188" on="1"/>
        <pt x="161" y="129" on="0"/>
        <pt x="219" y="95" on="0"/>
        <pt x="256" y="95" on="1"/>
        <pt x="310" y="95" on="0"/>
        <pt x="376" y="167" on="0"/>
        <pt x="376" y="223" on="1"/>
        <pt x="376" y="700" on="1"/>
        <pt x="484" y="700" on="1"/>
        <pt x="484" y="213" on="1"/>
        <pt x="484" y="118" on="0"/>
        <pt x="357" y="-10" on="0"/>
      </contour>
      <contour>
        <pt x="592" y="700" on="1"/>
        <pt x="592" y="600" on="1"/>
        <pt x="248" y="600" on="1"/>
        <pt x="248" y="700" on="1"/>
      </contour>
    </TTGlyph>
    <TTGlyph name="J.ss01" xMin="50" yMin="-10" xMax="484" yMax="700">
      <contour>
        <pt x="256" y="-10" on="1"/>
        <pt x="188" y="-10" on="0"/>
        <pt x="79" y="60" on="0"/>
        <pt x="50" y="117" on="1"/>
        <pt x="118" y="188" on="1"/>
        <pt x="161" y="129" on="0"/>
        <pt x="219" y="95" on="0"/>
        <pt x="256" y="95" on="1"/>
        <pt x="310" y="95" on="0"/>
        <pt x="376" y="167" on="0"/>
        <pt x="376" y="223" on="1"/>
        <pt x="376" y="700" on="1"/>
        <pt x="484" y="700" on="1"/>
        <pt x="484" y="213" on="1"/>
        <pt x="484" y="118" on="0"/>
        <pt x="357" y="-10" on="0"/>
      </contour>
    </TTGlyph>
    <TTGlyph name="Jacute.loclNLD" xMin="50" yMin="-10" xMax="592" yMax="941">
      <contour>
        <pt x="256" y="-10" on="1"/>
        <pt x="188" y="-10" on="0"/>
        <pt x="79" y="60" on="0"/>
        <pt x="50" y="117" on="1"/>
        <pt x="118" y="188" on="1"/>
        <pt x="161" y="129" on="0"/>
        <pt x="219" y="95" on="0"/>
        <pt x="256" y="95" on="1"/>
        <pt x="310" y="95" on="0"/>
        <pt x="376" y="167" on="0"/>
        <pt x="376" y="223" on="1"/>
        <pt x="376" y="700" on="1"/>
        <pt x="484" y="700" on="1"/>
        <pt x="484" y="213" on="1"/>
        <pt x="484" y="118" on="0"/>
        <pt x="357" y="-10" on="0"/>
      </contour>
      <contour>
        <pt x="592" y="700" on="1"/>
        <pt x="592" y="600" on="1"/>
        <pt x="248" y="600" on="1"/>
        <pt x="248" y="700" on="1"/>
      </contour>
      <contour>
        <pt x="550" y="859" on="1"/>
        <pt x="376" y="765" on="1"/>
        <pt x="342" y="816" on="1"/>
        <pt x="485" y="941" on="1"/>
      </contour>
    </TTGlyph>
    <TTGlyph name="Jcircumflex" xMin="50" yMin="-10" xMax="592" yMax="894">
      <contour>
        <pt x="256" y="-10" on="1"/>
        <pt x="188" y="-10" on="0"/>
        <pt x="79" y="60" on="0"/>
        <pt x="50" y="117" on="1"/>
        <pt x="118" y="188" on="1"/>
        <pt x="161" y="129" on="0"/>
        <pt x="219" y="95" on="0"/>
        <pt x="256" y="95" on="1"/>
        <pt x="310" y="95" on="0"/>
        <pt x="376" y="167" on="0"/>
        <pt x="376" y="223" on="1"/>
        <pt x="376" y="700" on="1"/>
        <pt x="484" y="700" on="1"/>
        <pt x="484" y="213" on="1"/>
        <pt x="484" y="118" on="0"/>
        <pt x="357" y="-10" on="0"/>
      </contour>
      <contour>
        <pt x="592" y="700" on="1"/>
        <pt x="592" y="600" on="1"/>
        <pt x="248" y="600" on="1"/>
        <pt x="248" y="700" on="1"/>
      </contour>
      <contour>
        <pt x="542" y="748" on="1"/>
        <pt x="409" y="823" on="1"/>
        <pt x="438" y="823" on="1"/>
        <pt x="305" y="748" on="1"/>
        <pt x="268" y="783" on="1"/>
        <pt x="387" y="894" on="1"/>
        <pt x="460" y="894" on="1"/>
        <pt x="579" y="783" on="1"/>
      </contour>
    </TTGlyph>
    <TTGlyph name="Jcircumflex.ss01" xMin="50" yMin="-10" xMax="581" yMax="894">
      <contour>
        <pt x="256" y="-10" on="1"/>
        <pt x="188" y="-10" on="0"/>
        <pt x="79" y="60" on="0"/>
        <pt x="50" y="117" on="1"/>
        <pt x="118" y="188" on="1"/>
        <pt x="161" y="129" on="0"/>
        <pt x="219" y="95" on="0"/>
        <pt x="256" y="95" on="1"/>
        <pt x="310" y="95" on="0"/>
        <pt x="376" y="167" on="0"/>
        <pt x="376" y="223" on="1"/>
        <pt x="376" y="700" on="1"/>
        <pt x="484" y="700" on="1"/>
        <pt x="484" y="213" on="1"/>
        <pt x="484" y="118" on="0"/>
        <pt x="357" y="-10" on="0"/>
      </contour>
      <contour>
        <pt x="544" y="748" on="1"/>
        <pt x="411" y="823" on="1"/>
        <pt x="440" y="823" on="1"/>
        <pt x="307" y="748" on="1"/>
        <pt x="270" y="783" on="1"/>
        <pt x="389" y="894" on="1"/>
        <pt x="462" y="894" on="1"/>
        <pt x="581" y="783" on="1"/>
      </contour>
    </TTGlyph>
    <TTGlyph name="K" xMin="98" yMin="0" xMax="697" yMax="700">
      <contour>
        <pt x="98" y="0" on="1"/>
        <pt x="98" y="700" on="1"/>
        <pt x="206" y="700" on="1"/>
        <pt x="206" y="0" on="1"/>
      </contour>
      <contour>
        <pt x="188" y="212" on="1"/>
        <pt x="182" y="333" on="1"/>
        <pt x="549" y="700" on="1"/>
        <pt x="691" y="700" on="1"/>
      </contour>
      <contour>
        <pt x="562" y="0" on="1"/>
        <pt x="294" y="358" on="1"/>
        <pt x="374" y="427" on="1"/>
        <pt x="697" y="0" on="1"/>
      </contour>
    </TTGlyph>
    <TTGlyph name="L" xMin="98" yMin="0" xMax="534" yMax="700">
      <contour>
        <pt x="178" y="104" on="1"/>
        <pt x="534" y="104" on="1"/>
        <pt x="534" y="0" on="1"/>
        <pt x="98" y="0" on="1"/>
        <pt x="98" y="700" on="1"/>
        <pt x="206" y="700" on="1"/>
        <pt x="206" y="78" on="1"/>
      </contour>
    </TTGlyph>
    <TTGlyph name="Lacute" xMin="81" yMin="0" xMax="534" yMax="926">
      <contour>
        <pt x="178" y="104" on="1"/>
        <pt x="534" y="104" on="1"/>
        <pt x="534" y="0" on="1"/>
        <pt x="98" y="0" on="1"/>
        <pt x="98" y="700" on="1"/>
        <pt x="206" y="700" on="1"/>
        <pt x="206" y="78" on="1"/>
      </contour>
      <contour>
        <pt x="289" y="844" on="1"/>
        <pt x="115" y="750" on="1"/>
        <pt x="81" y="801" on="1"/>
        <pt x="224" y="926" on="1"/>
      </contour>
    </TTGlyph>
    <TTGlyph name="Lcaron" xMin="98" yMin="0" xMax="567" yMax="716">
      <contour>
        <pt x="178" y="104" on="1"/>
        <pt x="534" y="104" on="1"/>
        <pt x="534" y="0" on="1"/>
        <pt x="98" y="0" on="1"/>
        <pt x="98" y="700" on="1"/>
        <pt x="206" y="700" on="1"/>
        <pt x="206" y="78" on="1"/>
      </contour>
      <contour>
        <pt x="478" y="716" on="1"/>
        <pt x="516" y="716" on="0"/>
        <pt x="567" y="653" on="0"/>
        <pt x="567" y="603" on="1"/>
        <pt x="567" y="544" on="0"/>
        <pt x="491" y="442" on="0"/>
        <pt x="434" y="420" on="1"/>
        <pt x="396" y="466" on="1"/>
        <pt x="431" y="486" on="0"/>
        <pt x="475" y="538" on="0"/>
        <pt x="475" y="557" on="1"/>
        <pt x="475" y="567" on="0"/>
        <pt x="465" y="586" on="0"/>
        <pt x="449" y="603" on="1"/>
        <pt x="429" y="622" on="0"/>
        <pt x="417" y="648" on="0"/>
        <pt x="417" y="663" on="1"/>
        <pt x="417" y="687" on="0"/>
        <pt x="451" y="716" on="0"/>
      </contour>
    </TTGlyph>
    <TTGlyph name="Ldot" xMin="98" yMin="0" xMax="534" yMax="700">
      <contour>
        <pt x="178" y="104" on="1"/>
        <pt x="534" y="104" on="1"/>
        <pt x="534" y="0" on="1"/>
        <pt x="98" y="0" on="1"/>
        <pt x="98" y="700" on="1"/>
        <pt x="206" y="700" on="1"/>
        <pt x="206" y="78" on="1"/>
      </contour>
      <contour>
        <pt x="483" y="374" on="1"/>
        <pt x="483" y="341" on="0"/>
        <pt x="445" y="299" on="0"/>
        <pt x="414" y="299" on="1"/>
        <pt x="381" y="299" on="0"/>
        <pt x="345" y="338" on="0"/>
        <pt x="345" y="374" on="1"/>
        <pt x="345" y="407" on="0"/>
        <pt x="383" y="449" on="0"/>
        <pt x="414" y="449" on="1"/>
        <pt x="447" y="449" on="0"/>
        <pt x="483" y="410" on="0"/>
      </contour>
    </TTGlyph>
    <TTGlyph name="Lslash" xMin="40" yMin="0" xMax="573" yMax="700">
      <contour>
        <pt x="217" y="104" on="1"/>
        <pt x="573" y="104" on="1"/>
        <pt x="573" y="0" on="1"/>
        <pt x="137" y="0" on="1"/>
        <pt x="137" y="700" on="1"/>
        <pt x="245" y="700" on="1"/>
        <pt x="245" y="78" on="1"/>
      </contour>
      <contour>
        <pt x="69" y="256" on="1"/>
        <pt x="40" y="328" on="1"/>
        <pt x="331" y="459" on="1"/>
        <pt x="363" y="382" on="1"/>
      </contour>
    </TTGlyph>
    <TTGlyph name="M" xMin="98" yMin="0" xMax="766" yMax="700">
      <contour>
        <pt x="98" y="700" on="1"/>
        <pt x="204" y="700" on="1"/>
        <pt x="459" y="285" on="1"/>
        <pt x="408" y="286" on="1"/>
        <pt x="666" y="700" on="1"/>
        <pt x="766" y="700" on="1"/>
        <pt x="766" y="0" on="1"/>
        <pt x="658" y="0" on="1"/>
        <pt x="658" y="287" on="1"/>
        <pt x="658" y="377" on="0"/>
        <pt x="667" y="521" on="0"/>
        <pt x="678" y="592" on="1"/>
        <pt x="692" y="555" on="1"/>
        <pt x="463" y="201" on="1"/>
        <pt x="397" y="201" on="1"/>
        <pt x="175" y="551" on="1"/>
        <pt x="186" y="592" on="1"/>
        <pt x="197" y="525" on="0"/>
        <pt x="206" y="384" on="0"/>
        <pt x="206" y="287" on="1"/>
        <pt x="206" y="0" on="1"/>
        <pt x="98" y="0" on="1"/>
      </contour>
    </TTGlyph>
    <TTGlyph name="N" xMin="98" yMin="0" xMax="695" yMax="700">
      <contour>
        <pt x="587" y="470" on="1"/>
        <pt x="587" y="700" on="1"/>
        <pt x="695" y="700" on="1"/>
        <pt x="695" y="0" on="1"/>
        <pt x="596" y="0" on="1"/>
        <pt x="175" y="552" on="1"/>
        <pt x="186" y="566" on="1"/>
        <pt x="192" y="502" on="0"/>
        <pt x="206" y="336" on="0"/>
        <pt x="206" y="291" on="1"/>
        <pt x="206" y="0" on="1"/>
        <pt x="98" y="0" on="1"/>
        <pt x="98" y="700" on="1"/>
        <pt x="195" y="700" on="1"/>
        <pt x="623" y="127" on="1"/>
        <pt x="607" y="118" on="1"/>
        <pt x="597" y="180" on="0"/>
        <pt x="587" y="360" on="0"/>
      </contour>
    </TTGlyph>
    <TTGlyph name="Nacute" xMin="98" yMin="0" xMax="695" yMax="926">
      <contour>
        <pt x="587" y="470" on="1"/>
        <pt x="587" y="700" on="1"/>
        <pt x="695" y="700" on="1"/>
        <pt x="695" y="0" on="1"/>
        <pt x="596" y="0" on="1"/>
        <pt x="175" y="552" on="1"/>
        <pt x="186" y="566" on="1"/>
        <pt x="192" y="502" on="0"/>
        <pt x="206" y="336" on="0"/>
        <pt x="206" y="291" on="1"/>
        <pt x="206" y="0" on="1"/>
        <pt x="98" y="0" on="1"/>
        <pt x="98" y="700" on="1"/>
        <pt x="195" y="700" on="1"/>
        <pt x="623" y="127" on="1"/>
        <pt x="607" y="118" on="1"/>
        <pt x="597" y="180" on="0"/>
        <pt x="587" y="360" on="0"/>
      </contour>
      <contour>
        <pt x="541" y="844" on="1"/>
        <pt x="367" y="750" on="1"/>
        <pt x="333" y="801" on="1"/>
        <pt x="476" y="926" on="1"/>
      </contour>
    </TTGlyph>
    <TTGlyph name="Ncaron" xMin="98" yMin="0" xMax="695" yMax="902">
      <contour>
        <pt x="587" y="470" on="1"/>
        <pt x="587" y="700" on="1"/>
        <pt x="695" y="700" on="1"/>
        <pt x="695" y="0" on="1"/>
        <pt x="596" y="0" on="1"/>
        <pt x="175" y="552" on="1"/>
        <pt x="186" y="566" on="1"/>
        <pt x="192" y="502" on="0"/>
        <pt x="206" y="336" on="0"/>
        <pt x="206" y="291" on="1"/>
        <pt x="206" y="0" on="1"/>
        <pt x="98" y="0" on="1"/>
        <pt x="98" y="700" on="1"/>
        <pt x="195" y="700" on="1"/>
        <pt x="623" y="127" on="1"/>
        <pt x="607" y="118" on="1"/>
        <pt x="597" y="180" on="0"/>
        <pt x="587" y="360" on="0"/>
      </contour>
      <contour>
        <pt x="509" y="902" on="1"/>
        <pt x="374" y="829" on="1"/>
        <pt x="404" y="829" on="1"/>
        <pt x="269" y="902" on="1"/>
        <pt x="231" y="869" on="1"/>
        <pt x="346" y="756" on="1"/>
        <pt x="432" y="756" on="1"/>
        <pt x="547" y="869" on="1"/>
      </contour>
    </TTGlyph>
    <TTGlyph name="Ntilde" xMin="98" yMin="0" xMax="695" yMax="929">
      <contour>
        <pt x="587" y="470" on="1"/>
        <pt x="587" y="700" on="1"/>
        <pt x="695" y="700" on="1"/>
        <pt x="695" y="0" on="1"/>
        <pt x="596" y="0" on="1"/>
        <pt x="175" y="552" on="1"/>
        <pt x="186" y="566" on="1"/>
        <pt x="192" y="502" on="0"/>
        <pt x="206" y="336" on="0"/>
        <pt x="206" y="291" on="1"/>
        <pt x="206" y="0" on="1"/>
        <pt x="98" y="0" on="1"/>
        <pt x="98" y="700" on="1"/>
        <pt x="195" y="700" on="1"/>
        <pt x="623" y="127" on="1"/>
        <pt x="607" y="118" on="1"/>
        <pt x="597" y="180" on="0"/>
        <pt x="587" y="360" on="0"/>
      </contour>
      <contour>
        <pt x="300" y="816" on="1"/>
        <pt x="223" y="816" on="1"/>
        <pt x="223" y="868" on="0"/>
        <pt x="280" y="929" on="0"/>
        <pt x="329" y="929" on="1"/>
        <pt x="344" y="929" on="0"/>
        <pt x="378" y="920" on="0"/>
        <pt x="410" y="906" on="1"/>
        <pt x="435" y="895" on="0"/>
        <pt x="457" y="889" on="0"/>
        <pt x="465" y="889" on="1"/>
        <pt x="478" y="889" on="0"/>
        <pt x="491" y="911" on="0"/>
        <pt x="490" y="929" on="1"/>
        <pt x="566" y="929" on="1"/>
        <pt x="566" y="880" on="0"/>
        <pt x="515" y="815" on="0"/>
        <pt x="474" y="815" on="1"/>
        <pt x="457" y="815" on="0"/>
        <pt x="418" y="825" on="0"/>
        <pt x="381" y="839" on="1"/>
        <pt x="356" y="849" on="0"/>
        <pt x="334" y="855" on="0"/>
        <pt x="327" y="855" on="1"/>
        <pt x="315" y="855" on="0"/>
        <pt x="300" y="834" on="0"/>
      </contour>
    </TTGlyph>
    <TTGlyph name="O" xMin="48" yMin="-10" xMax="734" yMax="710">
      <contour>
        <pt x="391" y="710" on="1"/>
        <pt x="539" y="710" on="0"/>
        <pt x="734" y="504" on="0"/>
        <pt x="734" y="350" on="1"/>
        <pt x="734" y="196" on="0"/>
        <pt x="539" y="-10" on="0"/>
        <pt x="391" y="-10" on="1"/>
        <pt x="243" y="-10" on="0"/>
        <pt x="48" y="195" on="0"/>
        <pt x="48" y="350" on="1"/>
        <pt x="48" y="505" on="0"/>
        <pt x="243" y="710" on="0"/>
      </contour>
      <contour>
        <pt x="391" y="95" on="1"/>
        <pt x="492" y="95" on="0"/>
        <pt x="624" y="240" on="0"/>
        <pt x="624" y="350" on="1"/>
        <pt x="624" y="460" on="0"/>
        <pt x="492" y="605" on="0"/>
        <pt x="391" y="605" on="1"/>
        <pt x="289" y="605" on="0"/>
        <pt x="158" y="461" on="0"/>
        <pt x="158" y="350" on="1"/>
        <pt x="158" y="239" on="0"/>
        <pt x="289" y="95" on="0"/>
      </contour>
    </TTGlyph>
    <TTGlyph name="OE" xMin="48" yMin="0" xMax="952" yMax="700">
      <contour>
        <pt x="48" y="350" on="1"/>
        <pt x="48" y="506" on="0"/>
        <pt x="237" y="700" on="0"/>
        <pt x="395" y="700" on="1"/>
        <pt x="952" y="700" on="1"/>
        <pt x="952" y="596" on="1"/>
        <pt x="610" y="596" on="1"/>
        <pt x="619" y="614" on="1"/>
        <pt x="619" y="402" on="1"/>
        <pt x="610" y="411" on="1"/>
        <pt x="897" y="411" on="1"/>
        <pt x="897" y="307" on="1"/>
        <pt x="613" y="307" on="1"/>
        <pt x="619" y="316" on="1"/>
        <pt x="619" y="97" on="1"/>
        <pt x="612" y="104" on="1"/>
        <pt x="952" y="104" on="1"/>
        <pt x="952" y="0" on="1"/>
        <pt x="375" y="0" on="1"/>
        <pt x="225" y="0" on="0"/>
        <pt x="48" y="193" on="0"/>
      </contour>
      <contour>
        <pt x="552" y="104" on="1"/>
        <pt x="511" y="57" on="1"/>
        <pt x="511" y="641" on="1"/>
        <pt x="552" y="596" on="1"/>
        <pt x="398" y="596" on="1"/>
        <pt x="284" y="596" on="0"/>
        <pt x="158" y="464" on="0"/>
        <pt x="158" y="350" on="1"/>
        <pt x="158" y="235" on="0"/>
        <pt x="273" y="104" on="0"/>
        <pt x="378" y="104" on="1"/>
      </contour>
    </TTGlyph>
    <TTGlyph name="Oacute" xMin="48" yMin="-10" xMax="734" yMax="926">
      <contour>
        <pt x="391" y="710" on="1"/>
        <pt x="539" y="710" on="0"/>
        <pt x="734" y="504" on="0"/>
        <pt x="734" y="350" on="1"/>
        <pt x="734" y="196" on="0"/>
        <pt x="539" y="-10" on="0"/>
        <pt x="391" y="-10" on="1"/>
        <pt x="243" y="-10" on="0"/>
        <pt x="48" y="195" on="0"/>
        <pt x="48" y="350" on="1"/>
        <pt x="48" y="505" on="0"/>
        <pt x="243" y="710" on="0"/>
      </contour>
      <contour>
        <pt x="391" y="95" on="1"/>
        <pt x="492" y="95" on="0"/>
        <pt x="624" y="240" on="0"/>
        <pt x="624" y="350" on="1"/>
        <pt x="624" y="460" on="0"/>
        <pt x="492" y="605" on="0"/>
        <pt x="391" y="605" on="1"/>
        <pt x="289" y="605" on="0"/>
        <pt x="158" y="461" on="0"/>
        <pt x="158" y="350" on="1"/>
        <pt x="158" y="239" on="0"/>
        <pt x="289" y="95" on="0"/>
      </contour>
      <contour>
        <pt x="534" y="844" on="1"/>
        <pt x="360" y="750" on="1"/>
        <pt x="326" y="801" on="1"/>
        <pt x="469" y="926" on="1"/>
      </contour>
    </TTGlyph>
    <TTGlyph name="Obreve" xMin="48" yMin="-10" xMax="734" yMax="917">
      <contour>
        <pt x="391" y="710" on="1"/>
        <pt x="539" y="710" on="0"/>
        <pt x="734" y="504" on="0"/>
        <pt x="734" y="350" on="1"/>
        <pt x="734" y="196" on="0"/>
        <pt x="539" y="-10" on="0"/>
        <pt x="391" y="-10" on="1"/>
        <pt x="243" y="-10" on="0"/>
        <pt x="48" y="195" on="0"/>
        <pt x="48" y="350" on="1"/>
        <pt x="48" y="505" on="0"/>
        <pt x="243" y="710" on="0"/>
      </contour>
      <contour>
        <pt x="391" y="95" on="1"/>
        <pt x="492" y="95" on="0"/>
        <pt x="624" y="240" on="0"/>
        <pt x="624" y="350" on="1"/>
        <pt x="624" y="460" on="0"/>
        <pt x="492" y="605" on="0"/>
        <pt x="391" y="605" on="1"/>
        <pt x="289" y="605" on="0"/>
        <pt x="158" y="461" on="0"/>
        <pt x="158" y="350" on="1"/>
        <pt x="158" y="239" on="0"/>
        <pt x="289" y="95" on="0"/>
      </contour>
      <contour>
        <pt x="383" y="751" on="1"/>
        <pt x="322" y="751" on="0"/>
        <pt x="235" y="834" on="0"/>
        <pt x="221" y="905" on="1"/>
        <pt x="295" y="917" on="1"/>
        <pt x="308" y="878" on="0"/>
        <pt x="356" y="832" on="0"/>
        <pt x="383" y="832" on="1"/>
        <pt x="410" y="832" on="0"/>
        <pt x="458" y="878" on="0"/>
        <pt x="471" y="917" on="1"/>
        <pt x="545" y="905" on="1"/>
        <pt x="531" y="834" on="0"/>
        <pt x="444" y="751" on="0"/>
      </contour>
    </TTGlyph>
    <TTGlyph name="Ocircumflex" xMin="48" yMin="-10" xMax="734" yMax="894">
      <contour>
        <pt x="391" y="710" on="1"/>
        <pt x="539" y="710" on="0"/>
        <pt x="734" y="504" on="0"/>
        <pt x="734" y="350" on="1"/>
        <pt x="734" y="196" on="0"/>
        <pt x="539" y="-10" on="0"/>
        <pt x="391" y="-10" on="1"/>
        <pt x="243" y="-10" on="0"/>
        <pt x="48" y="195" on="0"/>
        <pt x="48" y="350" on="1"/>
        <pt x="48" y="505" on="0"/>
        <pt x="243" y="710" on="0"/>
      </contour>
      <contour>
        <pt x="391" y="95" on="1"/>
        <pt x="492" y="95" on="0"/>
        <pt x="624" y="240" on="0"/>
        <pt x="624" y="350" on="1"/>
        <pt x="624" y="460" on="0"/>
        <pt x="492" y="605" on="0"/>
        <pt x="391" y="605" on="1"/>
        <pt x="289" y="605" on="0"/>
        <pt x="158" y="461" on="0"/>
        <pt x="158" y="350" on="1"/>
        <pt x="158" y="239" on="0"/>
        <pt x="289" y="95" on="0"/>
      </contour>
      <contour>
        <pt x="504" y="748" on="1"/>
        <pt x="371" y="823" on="1"/>
        <pt x="400" y="823" on="1"/>
        <pt x="267" y="748" on="1"/>
        <pt x="230" y="783" on="1"/>
        <pt x="349" y="894" on="1"/>
        <pt x="422" y="894" on="1"/>
        <pt x="541" y="783" on="1"/>
      </contour>
    </TTGlyph>
    <TTGlyph name="Odieresis" xMin="48" yMin="-10" xMax="734" yMax="879">
      <contour>
        <pt x="391" y="710" on="1"/>
        <pt x="539" y="710" on="0"/>
        <pt x="734" y="504" on="0"/>
        <pt x="734" y="350" on="1"/>
        <pt x="734" y="196" on="0"/>
        <pt x="539" y="-10" on="0"/>
        <pt x="391" y="-10" on="1"/>
        <pt x="243" y="-10" on="0"/>
        <pt x="48" y="195" on="0"/>
        <pt x="48" y="350" on="1"/>
        <pt x="48" y="505" on="0"/>
        <pt x="243" y="710" on="0"/>
      </contour>
      <contour>
        <pt x="391" y="95" on="1"/>
        <pt x="492" y="95" on="0"/>
        <pt x="624" y="240" on="0"/>
        <pt x="624" y="350" on="1"/>
        <pt x="624" y="460" on="0"/>
        <pt x="492" y="605" on="0"/>
        <pt x="391" y="605" on="1"/>
        <pt x="289" y="605" on="0"/>
        <pt x="158" y="461" on="0"/>
        <pt x="158" y="350" on="1"/>
        <pt x="158" y="239" on="0"/>
        <pt x="289" y="95" on="0"/>
      </contour>
      <contour>
        <pt x="354" y="814" on="1"/>
        <pt x="354" y="785" on="0"/>
        <pt x="317" y="749" on="0"/>
        <pt x="285" y="749" on="1"/>
        <pt x="252" y="749" on="0"/>
        <pt x="216" y="783" on="0"/>
        <pt x="216" y="814" on="1"/>
        <pt x="216" y="843" on="0"/>
        <pt x="253" y="879" on="0"/>
        <pt x="285" y="879" on="1"/>
        <pt x="318" y="879" on="0"/>
        <pt x="354" y="845" on="0"/>
      </contour>
      <contour>
        <pt x="560" y="814" on="1"/>
        <pt x="560" y="785" on="0"/>
        <pt x="523" y="749" on="0"/>
        <pt x="491" y="749" on="1"/>
        <pt x="458" y="749" on="0"/>
        <pt x="422" y="783" on="0"/>
        <pt x="422" y="814" on="1"/>
        <pt x="422" y="843" on="0"/>
        <pt x="459" y="879" on="0"/>
        <pt x="491" y="879" on="1"/>
        <pt x="524" y="879" on="0"/>
        <pt x="560" y="845" on="0"/>
      </contour>
    </TTGlyph>
    <TTGlyph name="Ograve" xMin="48" yMin="-10" xMax="734" yMax="930">
      <contour>
        <pt x="391" y="710" on="1"/>
        <pt x="539" y="710" on="0"/>
        <pt x="734" y="504" on="0"/>
        <pt x="734" y="350" on="1"/>
        <pt x="734" y="196" on="0"/>
        <pt x="539" y="-10" on="0"/>
        <pt x="391" y="-10" on="1"/>
        <pt x="243" y="-10" on="0"/>
        <pt x="48" y="195" on="0"/>
        <pt x="48" y="350" on="1"/>
        <pt x="48" y="505" on="0"/>
        <pt x="243" y="710" on="0"/>
      </contour>
      <contour>
        <pt x="391" y="95" on="1"/>
        <pt x="492" y="95" on="0"/>
        <pt x="624" y="240" on="0"/>
        <pt x="624" y="350" on="1"/>
        <pt x="624" y="460" on="0"/>
        <pt x="492" y="605" on="0"/>
        <pt x="391" y="605" on="1"/>
        <pt x="289" y="605" on="0"/>
        <pt x="158" y="461" on="0"/>
        <pt x="158" y="350" on="1"/>
        <pt x="158" y="239" on="0"/>
        <pt x="289" y="95" on="0"/>
      </contour>
      <contour>
        <pt x="454" y="805" on="1"/>
        <pt x="420" y="754" on="1"/>
        <pt x="246" y="848" on="1"/>
        <pt x="311" y="930" on="1"/>
      </contour>
    </TTGlyph>
    <TTGlyph name="Ohorn" xMin="48" yMin="-10" xMax="734" yMax="812">
      <contour>
        <pt x="391" y="710" on="1"/>
        <pt x="539" y="710" on="0"/>
        <pt x="734" y="504" on="0"/>
        <pt x="734" y="350" on="1"/>
        <pt x="734" y="196" on="0"/>
        <pt x="539" y="-10" on="0"/>
        <pt x="391" y="-10" on="1"/>
        <pt x="243" y="-10" on="0"/>
        <pt x="48" y="195" on="0"/>
        <pt x="48" y="350" on="1"/>
        <pt x="48" y="505" on="0"/>
        <pt x="243" y="710" on="0"/>
      </contour>
      <contour>
        <pt x="391" y="95" on="1"/>
        <pt x="492" y="95" on="0"/>
        <pt x="624" y="240" on="0"/>
        <pt x="624" y="350" on="1"/>
        <pt x="624" y="460" on="0"/>
        <pt x="492" y="605" on="0"/>
        <pt x="391" y="605" on="1"/>
        <pt x="289" y="605" on="0"/>
        <pt x="158" y="461" on="0"/>
        <pt x="158" y="350" on="1"/>
        <pt x="158" y="239" on="0"/>
        <pt x="289" y="95" on="0"/>
      </contour>
      <contour>
        <pt x="461" y="616" on="1"/>
        <pt x="461" y="698" on="1"/>
        <pt x="506" y="698" on="0"/>
        <pt x="550" y="755" on="0"/>
        <pt x="550" y="812" on="1"/>
        <pt x="642" y="812" on="1"/>
        <pt x="642" y="721" on="0"/>
        <pt x="547" y="616" on="0"/>
      </contour>
    </TTGlyph>
    <TTGlyph name="Ohungarumlaut" xMin="48" yMin="-10" xMax="734" yMax="920">
      <contour>
        <pt x="391" y="710" on="1"/>
        <pt x="539" y="710" on="0"/>
        <pt x="734" y="504" on="0"/>
        <pt x="734" y="350" on="1"/>
        <pt x="734" y="196" on="0"/>
        <pt x="539" y="-10" on="0"/>
        <pt x="391" y="-10" on="1"/>
        <pt x="243" y="-10" on="0"/>
        <pt x="48" y="195" on="0"/>
        <pt x="48" y="350" on="1"/>
        <pt x="48" y="505" on="0"/>
        <pt x="243" y="710" on="0"/>
      </contour>
      <contour>
        <pt x="391" y="95" on="1"/>
        <pt x="492" y="95" on="0"/>
        <pt x="624" y="240" on="0"/>
        <pt x="624" y="350" on="1"/>
        <pt x="624" y="460" on="0"/>
        <pt x="492" y="605" on="0"/>
        <pt x="391" y="605" on="1"/>
        <pt x="289" y="605" on="0"/>
        <pt x="158" y="461" on="0"/>
        <pt x="158" y="350" on="1"/>
        <pt x="158" y="239" on="0"/>
        <pt x="289" y="95" on="0"/>
      </contour>
      <contour>
        <pt x="443" y="838" on="1"/>
        <pt x="269" y="744" on="1"/>
        <pt x="235" y="795" on="1"/>
        <pt x="378" y="920" on="1"/>
      </contour>
      <contour>
        <pt x="642" y="838" on="1"/>
        <pt x="468" y="744" on="1"/>
        <pt x="434" y="795" on="1"/>
        <pt x="577" y="920" on="1"/>
      </contour>
    </TTGlyph>
    <TTGlyph name="Omacron" xMin="48" yMin="-10" xMax="734" yMax="851">
      <contour>
        <pt x="391" y="710" on="1"/>
        <pt x="539" y="710" on="0"/>
        <pt x="734" y="504" on="0"/>
        <pt x="734" y="350" on="1"/>
        <pt x="734" y="196" on="0"/>
        <pt x="539" y="-10" on="0"/>
        <pt x="391" y="-10" on="1"/>
        <pt x="243" y="-10" on="0"/>
        <pt x="48" y="195" on="0"/>
        <pt x="48" y="350" on="1"/>
        <pt x="48" y="505" on="0"/>
        <pt x="243" y="710" on="0"/>
      </contour>
      <contour>
        <pt x="391" y="95" on="1"/>
        <pt x="492" y="95" on="0"/>
        <pt x="624" y="240" on="0"/>
        <pt x="624" y="350" on="1"/>
        <pt x="624" y="460" on="0"/>
        <pt x="492" y="605" on="0"/>
        <pt x="391" y="605" on="1"/>
        <pt x="289" y="605" on="0"/>
        <pt x="158" y="461" on="0"/>
        <pt x="158" y="350" on="1"/>
        <pt x="158" y="239" on="0"/>
        <pt x="289" y="95" on="0"/>
      </contour>
      <contour>
        <pt x="553" y="776" on="1"/>
        <pt x="222" y="776" on="1"/>
        <pt x="222" y="851" on="1"/>
        <pt x="553" y="851" on="1"/>
      </contour>
    </TTGlyph>
    <TTGlyph name="Oslash" xMin="49" yMin="-33" xMax="735" yMax="741">
      <contour>
        <pt x="123" y="-33" on="1"/>
        <pt x="60" y="20" on="1"/>
        <pt x="649" y="741" on="1"/>
        <pt x="717" y="694" on="1"/>
      </contour>
      <contour>
        <pt x="392" y="710" on="1"/>
        <pt x="540" y="710" on="0"/>
        <pt x="735" y="504" on="0"/>
        <pt x="735" y="350" on="1"/>
        <pt x="735" y="196" on="0"/>
        <pt x="540" y="-10" on="0"/>
        <pt x="392" y="-10" on="1"/>
        <pt x="244" y="-10" on="0"/>
        <pt x="49" y="195" on="0"/>
        <pt x="49" y="350" on="1"/>
        <pt x="49" y="505" on="0"/>
        <pt x="244" y="710" on="0"/>
      </contour>
      <contour>
        <pt x="392" y="95" on="1"/>
        <pt x="493" y="95" on="0"/>
        <pt x="625" y="240" on="0"/>
        <pt x="625" y="350" on="1"/>
        <pt x="625" y="460" on="0"/>
        <pt x="493" y="605" on="0"/>
        <pt x="392" y="605" on="1"/>
        <pt x="290" y="605" on="0"/>
        <pt x="159" y="461" on="0"/>
        <pt x="159" y="350" on="1"/>
        <pt x="159" y="239" on="0"/>
        <pt x="290" y="95" on="0"/>
      </contour>
    </TTGlyph>
    <TTGlyph name="Oslashacute" xMin="49" yMin="-33" xMax="735" yMax="926">
      <contour>
        <pt x="123" y="-33" on="1"/>
        <pt x="60" y="20" on="1"/>
        <pt x="649" y="741" on="1"/>
        <pt x="717" y="694" on="1"/>
      </contour>
      <contour>
        <pt x="392" y="710" on="1"/>
        <pt x="540" y="710" on="0"/>
        <pt x="735" y="504" on="0"/>
        <pt x="735" y="350" on="1"/>
        <pt x="735" y="196" on="0"/>
        <pt x="540" y="-10" on="0"/>
        <pt x="392" y="-10" on="1"/>
        <pt x="244" y="-10" on="0"/>
        <pt x="49" y="195" on="0"/>
        <pt x="49" y="350" on="1"/>
        <pt x="49" y="505" on="0"/>
        <pt x="244" y="710" on="0"/>
      </contour>
      <contour>
        <pt x="392" y="95" on="1"/>
        <pt x="493" y="95" on="0"/>
        <pt x="625" y="240" on="0"/>
        <pt x="625" y="350" on="1"/>
        <pt x="625" y="460" on="0"/>
        <pt x="493" y="605" on="0"/>
        <pt x="392" y="605" on="1"/>
        <pt x="290" y="605" on="0"/>
        <pt x="159" y="461" on="0"/>
        <pt x="159" y="350" on="1"/>
        <pt x="159" y="239" on="0"/>
        <pt x="290" y="95" on="0"/>
      </contour>
      <contour>
        <pt x="516" y="844" on="1"/>
        <pt x="342" y="750" on="1"/>
        <pt x="308" y="801" on="1"/>
        <pt x="451" y="926" on="1"/>
      </contour>
    </TTGlyph>
    <TTGlyph name="Otilde" xMin="48" yMin="-10" xMax="734" yMax="929">
      <contour>
        <pt x="391" y="710" on="1"/>
        <pt x="539" y="710" on="0"/>
        <pt x="734" y="504" on="0"/>
        <pt x="734" y="350" on="1"/>
        <pt x="734" y="196" on="0"/>
        <pt x="539" y="-10" on="0"/>
        <pt x="391" y="-10" on="1"/>
        <pt x="243" y="-10" on="0"/>
        <pt x="48" y="195" on="0"/>
        <pt x="48" y="350" on="1"/>
        <pt x="48" y="505" on="0"/>
        <pt x="243" y="710" on="0"/>
      </contour>
      <contour>
        <pt x="391" y="95" on="1"/>
        <pt x="492" y="95" on="0"/>
        <pt x="624" y="240" on="0"/>
        <pt x="624" y="350" on="1"/>
        <pt x="624" y="460" on="0"/>
        <pt x="492" y="605" on="0"/>
        <pt x="391" y="605" on="1"/>
        <pt x="289" y="605" on="0"/>
        <pt x="158" y="461" on="0"/>
        <pt x="158" y="350" on="1"/>
        <pt x="158" y="239" on="0"/>
        <pt x="289" y="95" on="0"/>
      </contour>
      <contour>
        <pt x="293" y="816" on="1"/>
        <pt x="216" y="816" on="1"/>
        <pt x="216" y="868" on="0"/>
        <pt x="273" y="929" on="0"/>
        <pt x="322" y="929" on="1"/>
        <pt x="337" y="929" on="0"/>
        <pt x="371" y="920" on="0"/>
        <pt x="403" y="906" on="1"/>
        <pt x="428" y="895" on="0"/>
        <pt x="450" y="889" on="0"/>
        <pt x="458" y="889" on="1"/>
        <pt x="471" y="889" on="0"/>
        <pt x="484" y="911" on="0"/>
        <pt x="483" y="929" on="1"/>
        <pt x="559" y="929" on="1"/>
        <pt x="559" y="880" on="0"/>
        <pt x="508" y="815" on="0"/>
        <pt x="467" y="815" on="1"/>
        <pt x="450" y="815" on="0"/>
        <pt x="411" y="825" on="0"/>
        <pt x="374" y="839" on="1"/>
        <pt x="349" y="849" on="0"/>
        <pt x="327" y="855" on="0"/>
        <pt x="320" y="855" on="1"/>
        <pt x="308" y="855" on="0"/>
        <pt x="293" y="834" on="0"/>
      </contour>
    </TTGlyph>
    <TTGlyph name="P" xMin="98" yMin="0" xMax="589" yMax="700">
      <contour>
        <pt x="98" y="700" on="1"/>
        <pt x="383" y="700" on="1"/>
        <pt x="468" y="700" on="0"/>
        <pt x="589" y="575" on="0"/>
        <pt x="589" y="485" on="1"/>
        <pt x="589" y="395" on="0"/>
        <pt x="468" y="268" on="0"/>
        <pt x="383" y="268" on="1"/>
        <pt x="198" y="268" on="1"/>
        <pt x="206" y="282" on="1"/>
        <pt x="206" y="0" on="1"/>
        <pt x="98" y="0" on="1"/>
      </contour>
      <contour>
        <pt x="197" y="372" on="1"/>
        <pt x="381" y="372" on="1"/>
        <pt x="421" y="372" on="0"/>
        <pt x="479" y="439" on="0"/>
        <pt x="479" y="485" on="1"/>
        <pt x="479" y="531" on="0"/>
        <pt x="421" y="596" on="0"/>
        <pt x="381" y="596" on="1"/>
        <pt x="197" y="596" on="1"/>
        <pt x="206" y="611" on="1"/>
        <pt x="206" y="358" on="1"/>
      </contour>
    </TTGlyph>
    <TTGlyph name="Q" xMin="48" yMin="-110" xMax="734" yMax="710">
      <contour>
        <pt x="391" y="710" on="1"/>
        <pt x="539" y="710" on="0"/>
        <pt x="734" y="504" on="0"/>
        <pt x="734" y="350" on="1"/>
        <pt x="734" y="196" on="0"/>
        <pt x="539" y="-10" on="0"/>
        <pt x="391" y="-10" on="1"/>
        <pt x="243" y="-10" on="0"/>
        <pt x="48" y="195" on="0"/>
        <pt x="48" y="350" on="1"/>
        <pt x="48" y="505" on="0"/>
        <pt x="243" y="710" on="0"/>
      </contour>
      <contour>
        <pt x="391" y="95" on="1"/>
        <pt x="492" y="95" on="0"/>
        <pt x="624" y="240" on="0"/>
        <pt x="624" y="350" on="1"/>
        <pt x="624" y="460" on="0"/>
        <pt x="492" y="605" on="0"/>
        <pt x="391" y="605" on="1"/>
        <pt x="289" y="605" on="0"/>
        <pt x="158" y="461" on="0"/>
        <pt x="158" y="350" on="1"/>
        <pt x="158" y="239" on="0"/>
        <pt x="289" y="95" on="0"/>
      </contour>
      <contour>
        <pt x="437" y="296" on="1"/>
        <pt x="699" y="-48" on="1"/>
        <pt x="613" y="-110" on="1"/>
        <pt x="348" y="237" on="1"/>
      </contour>
    </TTGlyph>
    <TTGlyph name="R" xMin="98" yMin="-1" xMax="645" yMax="700">
      <contour>
        <pt x="617" y="477" on="1"/>
        <pt x="617" y="391" on="0"/>
        <pt x="487" y="263" on="0"/>
        <pt x="396" y="263" on="1"/>
        <pt x="193" y="263" on="1"/>
        <pt x="193" y="367" on="1"/>
        <pt x="406" y="367" on="1"/>
        <pt x="450" y="367" on="0"/>
        <pt x="507" y="431" on="0"/>
        <pt x="507" y="478" on="1"/>
        <pt x="507" y="530" on="0"/>
        <pt x="434" y="596" on="0"/>
        <pt x="378" y="596" on="1"/>
        <pt x="196" y="596" on="1"/>
        <pt x="206" y="630" on="1"/>
        <pt x="206" y="0" on="1"/>
        <pt x="98" y="0" on="1"/>
        <pt x="98" y="700" on="1"/>
        <pt x="396" y="700" on="1"/>
        <pt x="486" y="700" on="0"/>
        <pt x="617" y="572" on="0"/>
      </contour>
      <contour>
        <pt x="336" y="316" on="1"/>
        <pt x="447" y="341" on="1"/>
        <pt x="645" y="-1" on="1"/>
        <pt x="514" y="0" on="1"/>
      </contour>
    </TTGlyph>
    <TTGlyph name="Racute" xMin="98" yMin="-1" xMax="645" yMax="926">
      <contour>
        <pt x="617" y="477" on="1"/>
        <pt x="617" y="391" on="0"/>
        <pt x="487" y="263" on="0"/>
        <pt x="396" y="263" on="1"/>
        <pt x="193" y="263" on="1"/>
        <pt x="193" y="367" on="1"/>
        <pt x="406" y="367" on="1"/>
        <pt x="450" y="367" on="0"/>
        <pt x="507" y="431" on="0"/>
        <pt x="507" y="478" on="1"/>
        <pt x="507" y="530" on="0"/>
        <pt x="434" y="596" on="0"/>
        <pt x="378" y="596" on="1"/>
        <pt x="196" y="596" on="1"/>
        <pt x="206" y="630" on="1"/>
        <pt x="206" y="0" on="1"/>
        <pt x="98" y="0" on="1"/>
        <pt x="98" y="700" on="1"/>
        <pt x="396" y="700" on="1"/>
        <pt x="486" y="700" on="0"/>
        <pt x="617" y="572" on="0"/>
      </contour>
      <contour>
        <pt x="336" y="316" on="1"/>
        <pt x="447" y="341" on="1"/>
        <pt x="645" y="-1" on="1"/>
        <pt x="514" y="0" on="1"/>
      </contour>
      <contour>
        <pt x="473" y="844" on="1"/>
        <pt x="299" y="750" on="1"/>
        <pt x="265" y="801" on="1"/>
        <pt x="408" y="926" on="1"/>
      </contour>
    </TTGlyph>
    <TTGlyph name="Rcaron" xMin="98" yMin="-1" xMax="645" yMax="902">
      <contour>
        <pt x="617" y="477" on="1"/>
        <pt x="617" y="391" on="0"/>
        <pt x="487" y="263" on="0"/>
        <pt x="396" y="263" on="1"/>
        <pt x="193" y="263" on="1"/>
        <pt x="193" y="367" on="1"/>
        <pt x="406" y="367" on="1"/>
        <pt x="450" y="367" on="0"/>
        <pt x="507" y="431" on="0"/>
        <pt x="507" y="478" on="1"/>
        <pt x="507" y="530" on="0"/>
        <pt x="434" y="596" on="0"/>
        <pt x="378" y="596" on="1"/>
        <pt x="196" y="596" on="1"/>
        <pt x="206" y="630" on="1"/>
        <pt x="206" y="0" on="1"/>
        <pt x="98" y="0" on="1"/>
        <pt x="98" y="700" on="1"/>
        <pt x="396" y="700" on="1"/>
        <pt x="486" y="700" on="0"/>
        <pt x="617" y="572" on="0"/>
      </contour>
      <contour>
        <pt x="336" y="316" on="1"/>
        <pt x="447" y="341" on="1"/>
        <pt x="645" y="-1" on="1"/>
        <pt x="514" y="0" on="1"/>
      </contour>
      <contour>
        <pt x="441" y="902" on="1"/>
        <pt x="306" y="829" on="1"/>
        <pt x="336" y="829" on="1"/>
        <pt x="201" y="902" on="1"/>
        <pt x="163" y="869" on="1"/>
        <pt x="278" y="756" on="1"/>
        <pt x="364" y="756" on="1"/>
        <pt x="479" y="869" on="1"/>
      </contour>
    </TTGlyph>
    <TTGlyph name="S" xMin="50" yMin="-10" xMax="569" yMax="710">
      <contour>
        <pt x="50" y="126" on="1"/>
        <pt x="124" y="211" on="1"/>
        <pt x="173" y="141" on="0"/>
        <pt x="263" y="87" on="0"/>
        <pt x="325" y="87" on="1"/>
        <pt x="382" y="87" on="0"/>
        <pt x="461" y="139" on="0"/>
        <pt x="461" y="180" on="1"/>
        <pt x="461" y="226" on="0"/>
        <pt x="383" y="285" on="0"/>
        <pt x="299" y="301" on="1"/>
        <pt x="191" y="322" on="0"/>
        <pt x="85" y="428" on="0"/>
        <pt x="85" y="514" on="1"/>
        <pt x="85" y="599" on="0"/>
        <pt x="224" y="710" on="0"/>
        <pt x="326" y="710" on="1"/>
        <pt x="407" y="710" on="0"/>
        <pt x="528" y="647" on="0"/>
        <pt x="563" y="587" on="1"/>
        <pt x="487" y="512" on="1"/>
        <pt x="457" y="561" on="0"/>
        <pt x="374" y="613" on="0"/>
        <pt x="323" y="613" on="1"/>
        <pt x="265" y="613" on="0"/>
        <pt x="193" y="560" on="0"/>
        <pt x="193" y="517" on="1"/>
        <pt x="193" y="474" on="0"/>
        <pt x="258" y="421" on="0"/>
        <pt x="337" y="405" on="1"/>
        <pt x="447" y="382" on="0"/>
        <pt x="569" y="280" on="0"/>
        <pt x="569" y="208" on="1"/>
        <pt x="569" y="108" on="0"/>
        <pt x="432" y="-10" on="0"/>
        <pt x="314" y="-10" on="1"/>
        <pt x="228" y="-10" on="0"/>
        <pt x="97" y="58" on="0"/>
      </contour>
    </TTGlyph>
    <TTGlyph name="Sacute" xMin="50" yMin="-10" xMax="569" yMax="926">
      <contour>
        <pt x="50" y="126" on="1"/>
        <pt x="124" y="211" on="1"/>
        <pt x="173" y="141" on="0"/>
        <pt x="263" y="87" on="0"/>
        <pt x="325" y="87" on="1"/>
        <pt x="382" y="87" on="0"/>
        <pt x="461" y="139" on="0"/>
        <pt x="461" y="180" on="1"/>
        <pt x="461" y="226" on="0"/>
        <pt x="383" y="285" on="0"/>
        <pt x="299" y="301" on="1"/>
        <pt x="191" y="322" on="0"/>
        <pt x="85" y="428" on="0"/>
        <pt x="85" y="514" on="1"/>
        <pt x="85" y="599" on="0"/>
        <pt x="224" y="710" on="0"/>
        <pt x="326" y="710" on="1"/>
        <pt x="407" y="710" on="0"/>
        <pt x="528" y="647" on="0"/>
        <pt x="563" y="587" on="1"/>
        <pt x="487" y="512" on="1"/>
        <pt x="457" y="561" on="0"/>
        <pt x="374" y="613" on="0"/>
        <pt x="323" y="613" on="1"/>
        <pt x="265" y="613" on="0"/>
        <pt x="193" y="560" on="0"/>
        <pt x="193" y="517" on="1"/>
        <pt x="193" y="474" on="0"/>
        <pt x="258" y="421" on="0"/>
        <pt x="337" y="405" on="1"/>
        <pt x="447" y="382" on="0"/>
        <pt x="569" y="280" on="0"/>
        <pt x="569" y="208" on="1"/>
        <pt x="569" y="108" on="0"/>
        <pt x="432" y="-10" on="0"/>
        <pt x="314" y="-10" on="1"/>
        <pt x="228" y="-10" on="0"/>
        <pt x="97" y="58" on="0"/>
      </contour>
      <contour>
        <pt x="469" y="844" on="1"/>
        <pt x="295" y="750" on="1"/>
        <pt x="261" y="801" on="1"/>
        <pt x="404" y="926" on="1"/>
      </contour>
    </TTGlyph>
    <TTGlyph name="Scaron" xMin="50" yMin="-10" xMax="569" yMax="902">
      <contour>
        <pt x="50" y="126" on="1"/>
        <pt x="124" y="211" on="1"/>
        <pt x="173" y="141" on="0"/>
        <pt x="263" y="87" on="0"/>
        <pt x="325" y="87" on="1"/>
        <pt x="382" y="87" on="0"/>
        <pt x="461" y="139" on="0"/>
        <pt x="461" y="180" on="1"/>
        <pt x="461" y="226" on="0"/>
        <pt x="383" y="285" on="0"/>
        <pt x="299" y="301" on="1"/>
        <pt x="191" y="322" on="0"/>
        <pt x="85" y="428" on="0"/>
        <pt x="85" y="514" on="1"/>
        <pt x="85" y="599" on="0"/>
        <pt x="224" y="710" on="0"/>
        <pt x="326" y="710" on="1"/>
        <pt x="407" y="710" on="0"/>
        <pt x="528" y="647" on="0"/>
        <pt x="563" y="587" on="1"/>
        <pt x="487" y="512" on="1"/>
        <pt x="457" y="561" on="0"/>
        <pt x="374" y="613" on="0"/>
        <pt x="323" y="613" on="1"/>
        <pt x="265" y="613" on="0"/>
        <pt x="193" y="560" on="0"/>
        <pt x="193" y="517" on="1"/>
        <pt x="193" y="474" on="0"/>
        <pt x="258" y="421" on="0"/>
        <pt x="337" y="405" on="1"/>
        <pt x="447" y="382" on="0"/>
        <pt x="569" y="280" on="0"/>
        <pt x="569" y="208" on="1"/>
        <pt x="569" y="108" on="0"/>
        <pt x="432" y="-10" on="0"/>
        <pt x="314" y="-10" on="1"/>
        <pt x="228" y="-10" on="0"/>
        <pt x="97" y="58" on="0"/>
      </contour>
      <contour>
        <pt x="437" y="902" on="1"/>
        <pt x="302" y="829" on="1"/>
        <pt x="332" y="829" on="1"/>
        <pt x="197" y="902" on="1"/>
        <pt x="159" y="869" on="1"/>
        <pt x="274" y="756" on="1"/>
        <pt x="360" y="756" on="1"/>
        <pt x="475" y="869" on="1"/>
      </contour>
    </TTGlyph>
    <TTGlyph name="Scedilla" xMin="50" yMin="-247" xMax="569" yMax="710">
      <contour>
        <pt x="50" y="126" on="1"/>
        <pt x="124" y="211" on="1"/>
        <pt x="173" y="141" on="0"/>
        <pt x="263" y="87" on="0"/>
        <pt x="325" y="87" on="1"/>
        <pt x="382" y="87" on="0"/>
        <pt x="461" y="139" on="0"/>
        <pt x="461" y="180" on="1"/>
        <pt x="461" y="226" on="0"/>
        <pt x="383" y="285" on="0"/>
        <pt x="299" y="301" on="1"/>
        <pt x="191" y="322" on="0"/>
        <pt x="85" y="428" on="0"/>
        <pt x="85" y="514" on="1"/>
        <pt x="85" y="599" on="0"/>
        <pt x="224" y="710" on="0"/>
        <pt x="326" y="710" on="1"/>
        <pt x="407" y="710" on="0"/>
        <pt x="528" y="647" on="0"/>
        <pt x="563" y="587" on="1"/>
        <pt x="487" y="512" on="1"/>
        <pt x="457" y="561" on="0"/>
        <pt x="374" y="613" on="0"/>
        <pt x="323" y="613" on="1"/>
        <pt x="265" y="613" on="0"/>
        <pt x="193" y="560" on="0"/>
        <pt x="193" y="517" on="1"/>
        <pt x="193" y="474" on="0"/>
        <pt x="258" y="421" on="0"/>
        <pt x="337" y="405" on="1"/>
        <pt x="447" y="382" on="0"/>
        <pt x="569" y="280" on="0"/>
        <pt x="569" y="208" on="1"/>
        <pt x="569" y="108" on="0"/>
        <pt x="432" y="-10" on="0"/>
        <pt x="314" y="-10" on="1"/>
        <pt x="228" y="-10" on="0"/>
        <pt x="97" y="58" on="0"/>
      </contour>
      <contour>
        <pt x="291" y="-99" on="1"/>
        <pt x="233" y="-92" on="1"/>
        <pt x="305" y="22" on="1"/>
        <pt x="364" y="22" on="1"/>
      </contour>
      <contour>
        <pt x="421" y="-141" on="1"/>
        <pt x="421" y="-164" on="0"/>
        <pt x="381" y="-212" on="0"/>
        <pt x="347" y="-227" on="1"/>
        <pt x="323" y="-237" on="0"/>
        <pt x="264" y="-247" on="0"/>
        <pt x="231" y="-246" on="1"/>
        <pt x="224" y="-193" on="1"/>
        <pt x="260" y="-193" on="0"/>
        <pt x="336" y="-159" on="0"/>
        <pt x="336" y="-140" on="1"/>
        <pt x="336" y="-126" on="0"/>
        <pt x="285" y="-103" on="0"/>
        <pt x="246" y="-102" on="1"/>
        <pt x="233" y="-94" on="1"/>
        <pt x="233" y="-92" on="1"/>
        <pt x="292" y="-43" on="1"/>
        <pt x="356" y="-51" on="0"/>
        <pt x="421" y="-101" on="0"/>
      </contour>
    </TTGlyph>
    <TTGlyph name="Scircumflex" xMin="50" yMin="-10" xMax="569" yMax="894">
      <contour>
        <pt x="50" y="126" on="1"/>
        <pt x="124" y="211" on="1"/>
        <pt x="173" y="141" on="0"/>
        <pt x="263" y="87" on="0"/>
        <pt x="325" y="87" on="1"/>
        <pt x="382" y="87" on="0"/>
        <pt x="461" y="139" on="0"/>
        <pt x="461" y="180" on="1"/>
        <pt x="461" y="226" on="0"/>
        <pt x="383" y="285" on="0"/>
        <pt x="299" y="301" on="1"/>
        <pt x="191" y="322" on="0"/>
        <pt x="85" y="428" on="0"/>
        <pt x="85" y="514" on="1"/>
        <pt x="85" y="599" on="0"/>
        <pt x="224" y="710" on="0"/>
        <pt x="326" y="710" on="1"/>
        <pt x="407" y="710" on="0"/>
        <pt x="528" y="647" on="0"/>
        <pt x="563" y="587" on="1"/>
        <pt x="487" y="512" on="1"/>
        <pt x="457" y="561" on="0"/>
        <pt x="374" y="613" on="0"/>
        <pt x="323" y="613" on="1"/>
        <pt x="265" y="613" on="0"/>
        <pt x="193" y="560" on="0"/>
        <pt x="193" y="517" on="1"/>
        <pt x="193" y="474" on="0"/>
        <pt x="258" y="421" on="0"/>
        <pt x="337" y="405" on="1"/>
        <pt x="447" y="382" on="0"/>
        <pt x="569" y="280" on="0"/>
        <pt x="569" y="208" on="1"/>
        <pt x="569" y="108" on="0"/>
        <pt x="432" y="-10" on="0"/>
        <pt x="314" y="-10" on="1"/>
        <pt x="228" y="-10" on="0"/>
        <pt x="97" y="58" on="0"/>
      </contour>
      <contour>
        <pt x="439" y="748" on="1"/>
        <pt x="306" y="823" on="1"/>
        <pt x="335" y="823" on="1"/>
        <pt x="202" y="748" on="1"/>
        <pt x="165" y="783" on="1"/>
        <pt x="284" y="894" on="1"/>
        <pt x="357" y="894" on="1"/>
        <pt x="476" y="783" on="1"/>
      </contour>
    </TTGlyph>
    <TTGlyph name="T" xMin="35" yMin="0" xMax="541" yMax="700">
      <contour>
        <pt x="339" y="0" on="1"/>
        <pt x="231" y="0" on="1"/>
        <pt x="231" y="651" on="1"/>
        <pt x="339" y="651" on="1"/>
      </contour>
      <contour>
        <pt x="541" y="596" on="1"/>
        <pt x="35" y="596" on="1"/>
        <pt x="35" y="700" on="1"/>
        <pt x="541" y="700" on="1"/>
      </contour>
    </TTGlyph>
    <TTGlyph name="Tbar" xMin="35" yMin="0" xMax="541" yMax="700">
      <contour>
        <pt x="339" y="0" on="1"/>
        <pt x="231" y="0" on="1"/>
        <pt x="231" y="651" on="1"/>
        <pt x="339" y="651" on="1"/>
      </contour>
      <contour>
        <pt x="541" y="596" on="1"/>
        <pt x="35" y="596" on="1"/>
        <pt x="35" y="700" on="1"/>
        <pt x="541" y="700" on="1"/>
      </contour>
      <contour>
        <pt x="429" y="307" on="1"/>
        <pt x="161" y="307" on="1"/>
        <pt x="161" y="397" on="1"/>
        <pt x="429" y="397" on="1"/>
      </contour>
    </TTGlyph>
    <TTGlyph name="Tcaron" xMin="35" yMin="0" xMax="541" yMax="902">
      <contour>
        <pt x="339" y="0" on="1"/>
        <pt x="231" y="0" on="1"/>
        <pt x="231" y="651" on="1"/>
        <pt x="339" y="651" on="1"/>
      </contour>
      <contour>
        <pt x="541" y="596" on="1"/>
        <pt x="35" y="596" on="1"/>
        <pt x="35" y="700" on="1"/>
        <pt x="541" y="700" on="1"/>
      </contour>
      <contour>
        <pt x="404" y="902" on="1"/>
        <pt x="269" y="829" on="1"/>
        <pt x="299" y="829" on="1"/>
        <pt x="164" y="902" on="1"/>
        <pt x="126" y="869" on="1"/>
        <pt x="241" y="756" on="1"/>
        <pt x="327" y="756" on="1"/>
        <pt x="442" y="869" on="1"/>
      </contour>
    </TTGlyph>
    <TTGlyph name="Thorn" xMin="98" yMin="0" xMax="589" yMax="700">
      <contour>
        <pt x="98" y="700" on="1"/>
        <pt x="206" y="700" on="1"/>
        <pt x="206" y="0" on="1"/>
        <pt x="98" y="0" on="1"/>
      </contour>
      <contour>
        <pt x="198" y="141" on="1"/>
        <pt x="197" y="245" on="1"/>
        <pt x="381" y="245" on="1"/>
        <pt x="421" y="245" on="0"/>
        <pt x="479" y="312" on="0"/>
        <pt x="479" y="358" on="1"/>
        <pt x="479" y="404" on="0"/>
        <pt x="421" y="469" on="0"/>
        <pt x="381" y="469" on="1"/>
        <pt x="147" y="469" on="1"/>
        <pt x="118" y="573" on="1"/>
        <pt x="383" y="573" on="1"/>
        <pt x="468" y="573" on="0"/>
        <pt x="589" y="448" on="0"/>
        <pt x="589" y="358" on="1"/>
        <pt x="589" y="268" on="0"/>
        <pt x="468" y="141" on="0"/>
        <pt x="383" y="141" on="1"/>
      </contour>
    </TTGlyph>
    <TTGlyph name="U" xMin="88" yMin="-6" xMax="652" yMax="701">
      <contour>
        <pt x="549" y="701" on="1"/>
        <pt x="652" y="701" on="1"/>
        <pt x="652" y="269" on="1"/>
        <pt x="652" y="150" on="0"/>
        <pt x="492" y="-6" on="0"/>
        <pt x="370" y="-6" on="1"/>
        <pt x="248" y="-6" on="0"/>
        <pt x="88" y="150" on="0"/>
        <pt x="88" y="269" on="1"/>
        <pt x="88" y="701" on="1"/>
        <pt x="196" y="701" on="1"/>
        <pt x="196" y="278" on="1"/>
        <pt x="196" y="202" on="0"/>
        <pt x="299" y="98" on="0"/>
        <pt x="370" y="98" on="1"/>
        <pt x="445" y="98" on="0"/>
        <pt x="549" y="202" on="0"/>
        <pt x="549" y="278" on="1"/>
      </contour>
    </TTGlyph>
    <TTGlyph name="Uacute" xMin="88" yMin="-6" xMax="652" yMax="926">
      <contour>
        <pt x="549" y="701" on="1"/>
        <pt x="652" y="701" on="1"/>
        <pt x="652" y="269" on="1"/>
        <pt x="652" y="150" on="0"/>
        <pt x="492" y="-6" on="0"/>
        <pt x="370" y="-6" on="1"/>
        <pt x="248" y="-6" on="0"/>
        <pt x="88" y="150" on="0"/>
        <pt x="88" y="269" on="1"/>
        <pt x="88" y="701" on="1"/>
        <pt x="196" y="701" on="1"/>
        <pt x="196" y="278" on="1"/>
        <pt x="196" y="202" on="0"/>
        <pt x="299" y="98" on="0"/>
        <pt x="370" y="98" on="1"/>
        <pt x="445" y="98" on="0"/>
        <pt x="549" y="202" on="0"/>
        <pt x="549" y="278" on="1"/>
      </contour>
      <contour>
        <pt x="518" y="844" on="1"/>
        <pt x="344" y="750" on="1"/>
        <pt x="310" y="801" on="1"/>
        <pt x="453" y="926" on="1"/>
      </contour>
    </TTGlyph>
    <TTGlyph name="Ubreve" xMin="88" yMin="-6" xMax="652" yMax="917">
      <contour>
        <pt x="549" y="701" on="1"/>
        <pt x="652" y="701" on="1"/>
        <pt x="652" y="269" on="1"/>
        <pt x="652" y="150" on="0"/>
        <pt x="492" y="-6" on="0"/>
        <pt x="370" y="-6" on="1"/>
        <pt x="248" y="-6" on="0"/>
        <pt x="88" y="150" on="0"/>
        <pt x="88" y="269" on="1"/>
        <pt x="88" y="701" on="1"/>
        <pt x="196" y="701" on="1"/>
        <pt x="196" y="278" on="1"/>
        <pt x="196" y="202" on="0"/>
        <pt x="299" y="98" on="0"/>
        <pt x="370" y="98" on="1"/>
        <pt x="445" y="98" on="0"/>
        <pt x="549" y="202" on="0"/>
        <pt x="549" y="278" on="1"/>
      </contour>
      <contour>
        <pt x="367" y="751" on="1"/>
        <pt x="306" y="751" on="0"/>
        <pt x="219" y="834" on="0"/>
        <pt x="205" y="905" on="1"/>
        <pt x="279" y="917" on="1"/>
        <pt x="292" y="878" on="0"/>
        <pt x="340" y="832" on="0"/>
        <pt x="367" y="832" on="1"/>
        <pt x="394" y="832" on="0"/>
        <pt x="442" y="878" on="0"/>
        <pt x="455" y="917" on="1"/>
        <pt x="529" y="905" on="1"/>
        <pt x="515" y="834" on="0"/>
        <pt x="428" y="751" on="0"/>
      </contour>
    </TTGlyph>
    <TTGlyph name="Ucircumflex" xMin="88" yMin="-6" xMax="652" yMax="894">
      <contour>
        <pt x="549" y="701" on="1"/>
        <pt x="652" y="701" on="1"/>
        <pt x="652" y="269" on="1"/>
        <pt x="652" y="150" on="0"/>
        <pt x="492" y="-6" on="0"/>
        <pt x="370" y="-6" on="1"/>
        <pt x="248" y="-6" on="0"/>
        <pt x="88" y="150" on="0"/>
        <pt x="88" y="269" on="1"/>
        <pt x="88" y="701" on="1"/>
        <pt x="196" y="701" on="1"/>
        <pt x="196" y="278" on="1"/>
        <pt x="196" y="202" on="0"/>
        <pt x="299" y="98" on="0"/>
        <pt x="370" y="98" on="1"/>
        <pt x="445" y="98" on="0"/>
        <pt x="549" y="202" on="0"/>
        <pt x="549" y="278" on="1"/>
      </contour>
      <contour>
        <pt x="488" y="748" on="1"/>
        <pt x="355" y="823" on="1"/>
        <pt x="384" y="823" on="1"/>
        <pt x="251" y="748" on="1"/>
        <pt x="214" y="783" on="1"/>
        <pt x="333" y="894" on="1"/>
        <pt x="406" y="894" on="1"/>
        <pt x="525" y="783" on="1"/>
      </contour>
    </TTGlyph>
    <TTGlyph name="Udieresis" xMin="88" yMin="-6" xMax="652" yMax="879">
      <contour>
        <pt x="549" y="701" on="1"/>
        <pt x="652" y="701" on="1"/>
        <pt x="652" y="269" on="1"/>
        <pt x="652" y="150" on="0"/>
        <pt x="492" y="-6" on="0"/>
        <pt x="370" y="-6" on="1"/>
        <pt x="248" y="-6" on="0"/>
        <pt x="88" y="150" on="0"/>
        <pt x="88" y="269" on="1"/>
        <pt x="88" y="701" on="1"/>
        <pt x="196" y="701" on="1"/>
        <pt x="196" y="278" on="1"/>
        <pt x="196" y="202" on="0"/>
        <pt x="299" y="98" on="0"/>
        <pt x="370" y="98" on="1"/>
        <pt x="445" y="98" on="0"/>
        <pt x="549" y="202" on="0"/>
        <pt x="549" y="278" on="1"/>
      </contour>
      <contour>
        <pt x="338" y="814" on="1"/>
        <pt x="338" y="785" on="0"/>
        <pt x="301" y="749" on="0"/>
        <pt x="269" y="749" on="1"/>
        <pt x="236" y="749" on="0"/>
        <pt x="200" y="783" on="0"/>
        <pt x="200" y="814" on="1"/>
        <pt x="200" y="843" on="0"/>
        <pt x="237" y="879" on="0"/>
        <pt x="269" y="879" on="1"/>
        <pt x="302" y="879" on="0"/>
        <pt x="338" y="845" on="0"/>
      </contour>
      <contour>
        <pt x="544" y="814" on="1"/>
        <pt x="544" y="785" on="0"/>
        <pt x="507" y="749" on="0"/>
        <pt x="475" y="749" on="1"/>
        <pt x="442" y="749" on="0"/>
        <pt x="406" y="783" on="0"/>
        <pt x="406" y="814" on="1"/>
        <pt x="406" y="843" on="0"/>
        <pt x="443" y="879" on="0"/>
        <pt x="475" y="879" on="1"/>
        <pt x="508" y="879" on="0"/>
        <pt x="544" y="845" on="0"/>
      </contour>
    </TTGlyph>
    <TTGlyph name="Ugrave" xMin="88" yMin="-6" xMax="652" yMax="930">
      <contour>
        <pt x="549" y="701" on="1"/>
        <pt x="652" y="701" on="1"/>
        <pt x="652" y="269" on="1"/>
        <pt x="652" y="150" on="0"/>
        <pt x="492" y="-6" on="0"/>
        <pt x="370" y="-6" on="1"/>
        <pt x="248" y="-6" on="0"/>
        <pt x="88" y="150" on="0"/>
        <pt x="88" y="269" on="1"/>
        <pt x="88" y="701" on="1"/>
        <pt x="196" y="701" on="1"/>
        <pt x="196" y="278" on="1"/>
        <pt x="196" y="202" on="0"/>
        <pt x="299" y="98" on="0"/>
        <pt x="370" y="98" on="1"/>
        <pt x="445" y="98" on="0"/>
        <pt x="549" y="202" on="0"/>
        <pt x="549" y="278" on="1"/>
      </contour>
      <contour>
        <pt x="438" y="805" on="1"/>
        <pt x="404" y="754" on="1"/>
        <pt x="230" y="848" on="1"/>
        <pt x="295" y="930" on="1"/>
      </contour>
    </TTGlyph>
    <TTGlyph name="Uhorn" xMin="88" yMin="-7" xMax="767" yMax="814">
      <contour>
        <pt x="549" y="700" on="1"/>
        <pt x="652" y="700" on="1"/>
        <pt x="652" y="268" on="1"/>
        <pt x="652" y="149" on="0"/>
        <pt x="492" y="-7" on="0"/>
        <pt x="370" y="-7" on="1"/>
        <pt x="248" y="-7" on="0"/>
        <pt x="88" y="149" on="0"/>
        <pt x="88" y="268" on="1"/>
        <pt x="88" y="700" on="1"/>
        <pt x="196" y="700" on="1"/>
        <pt x="196" y="277" on="1"/>
        <pt x="196" y="201" on="0"/>
        <pt x="299" y="97" on="0"/>
        <pt x="370" y="97" on="1"/>
        <pt x="445" y="97" on="0"/>
        <pt x="549" y="201" on="0"/>
        <pt x="549" y="277" on="1"/>
      </contour>
      <contour>
        <pt x="586" y="618" on="1"/>
        <pt x="586" y="700" on="1"/>
        <pt x="631" y="700" on="0"/>
        <pt x="675" y="757" on="0"/>
        <pt x="675" y="814" on="1"/>
        <pt x="767" y="814" on="1"/>
        <pt x="767" y="723" on="0"/>
        <pt x="672" y="618" on="0"/>
      </contour>
    </TTGlyph>
    <TTGlyph name="Uhungarumlaut" xMin="88" yMin="-6" xMax="652" yMax="920">
      <contour>
        <pt x="549" y="701" on="1"/>
        <pt x="652" y="701" on="1"/>
        <pt x="652" y="269" on="1"/>
        <pt x="652" y="150" on="0"/>
        <pt x="492" y="-6" on="0"/>
        <pt x="370" y="-6" on="1"/>
        <pt x="248" y="-6" on="0"/>
        <pt x="88" y="150" on="0"/>
        <pt x="88" y="269" on="1"/>
        <pt x="88" y="701" on="1"/>
        <pt x="196" y="701" on="1"/>
        <pt x="196" y="278" on="1"/>
        <pt x="196" y="202" on="0"/>
        <pt x="299" y="98" on="0"/>
        <pt x="370" y="98" on="1"/>
        <pt x="445" y="98" on="0"/>
        <pt x="549" y="202" on="0"/>
        <pt x="549" y="278" on="1"/>
      </contour>
      <contour>
        <pt x="427" y="838" on="1"/>
        <pt x="253" y="744" on="1"/>
        <pt x="219" y="795" on="1"/>
        <pt x="362" y="920" on="1"/>
      </contour>
      <contour>
        <pt x="626" y="838" on="1"/>
        <pt x="452" y="744" on="1"/>
        <pt x="418" y="795" on="1"/>
        <pt x="561" y="920" on="1"/>
      </contour>
    </TTGlyph>
    <TTGlyph name="Umacron" xMin="88" yMin="-6" xMax="652" yMax="851">
      <contour>
        <pt x="549" y="701" on="1"/>
        <pt x="652" y="701" on="1"/>
        <pt x="652" y="269" on="1"/>
        <pt x="652" y="150" on="0"/>
        <pt x="492" y="-6" on="0"/>
        <pt x="370" y="-6" on="1"/>
        <pt x="248" y="-6" on="0"/>
        <pt x="88" y="150" on="0"/>
        <pt x="88" y="269" on="1"/>
        <pt x="88" y="701" on="1"/>
        <pt x="196" y="701" on="1"/>
        <pt x="196" y="278" on="1"/>
        <pt x="196" y="202" on="0"/>
        <pt x="299" y="98" on="0"/>
        <pt x="370" y="98" on="1"/>
        <pt x="445" y="98" on="0"/>
        <pt x="549" y="202" on="0"/>
        <pt x="549" y="278" on="1"/>
      </contour>
      <contour>
        <pt x="537" y="776" on="1"/>
        <pt x="206" y="776" on="1"/>
        <pt x="206" y="851" on="1"/>
        <pt x="537" y="851" on="1"/>
      </contour>
    </TTGlyph>
    <TTGlyph name="Uogonek" xMin="82" yMin="-201" xMax="646" yMax="701">
      <contour>
        <pt x="364" y="-18" on="1"/>
        <pt x="244" y="-18" on="0"/>
        <pt x="82" y="153" on="0"/>
        <pt x="82" y="269" on="1"/>
        <pt x="82" y="701" on="1"/>
        <pt x="190" y="701" on="1"/>
        <pt x="190" y="278" on="1"/>
        <pt x="190" y="198" on="0"/>
        <pt x="293" y="88" on="0"/>
        <pt x="364" y="88" on="1"/>
        <pt x="439" y="88" on="0"/>
        <pt x="543" y="197" on="0"/>
        <pt x="543" y="278" on="1"/>
        <pt x="543" y="701" on="1"/>
        <pt x="646" y="701" on="1"/>
        <pt x="646" y="269" on="1"/>
        <pt x="646" y="181" on="0"/>
        <pt x="555" y="45" on="0"/>
        <pt x="475" y="8" on="1"/>
        <pt x="438" y="-7" on="0"/>
        <pt x="393" y="-53" on="0"/>
        <pt x="393" y="-75" on="1"/>
        <pt x="393" y="-99" on="0"/>
        <pt x="415" y="-124" on="0"/>
        <pt x="437" y="-124" on="1"/>
        <pt x="448" y="-124" on="0"/>
        <pt x="466" y="-111" on="0"/>
        <pt x="474" y="-99" on="1"/>
        <pt x="530" y="-139" on="1"/>
        <pt x="520" y="-164" on="0"/>
        <pt x="457" y="-201" on="0"/>
        <pt x="421" y="-201" on="1"/>
        <pt x="376" y="-201" on="0"/>
        <pt x="312" y="-136" on="0"/>
        <pt x="312" y="-87" on="1"/>
        <pt x="312" y="-40" on="0"/>
        <pt x="383" y="31" on="0"/>
        <pt x="451" y="52" on="1"/>
        <pt x="464" y="12" on="1"/>
        <pt x="451" y="-1" on="0"/>
        <pt x="386" y="-18" on="0"/>
      </contour>
    </TTGlyph>
    <TTGlyph name="Uring" xMin="88" yMin="-6" xMax="652" yMax="958">
      <contour>
        <pt x="549" y="701" on="1"/>
        <pt x="652" y="701" on="1"/>
        <pt x="652" y="269" on="1"/>
        <pt x="652" y="150" on="0"/>
        <pt x="492" y="-6" on="0"/>
        <pt x="370" y="-6" on="1"/>
        <pt x="248" y="-6" on="0"/>
        <pt x="88" y="150" on="0"/>
        <pt x="88" y="269" on="1"/>
        <pt x="88" y="701" on="1"/>
        <pt x="196" y="701" on="1"/>
        <pt x="196" y="278" on="1"/>
        <pt x="196" y="202" on="0"/>
        <pt x="299" y="98" on="0"/>
        <pt x="370" y="98" on="1"/>
        <pt x="445" y="98" on="0"/>
        <pt x="549" y="202" on="0"/>
        <pt x="549" y="278" on="1"/>
      </contour>
      <contour>
        <pt x="480" y="852" on="1"/>
        <pt x="480" y="810" on="0"/>
        <pt x="414" y="747" on="0"/>
        <pt x="370" y="747" on="1"/>
        <pt x="327" y="747" on="0"/>
        <pt x="261" y="810" on="0"/>
        <pt x="261" y="852" on="1"/>
        <pt x="261" y="895" on="0"/>
        <pt x="326" y="958" on="0"/>
        <pt x="370" y="958" on="1"/>
        <pt x="414" y="958" on="0"/>
        <pt x="480" y="895" on="0"/>
      </contour>
      <contour>
        <pt x="321" y="852" on="1"/>
        <pt x="321" y="833" on="0"/>
        <pt x="350" y="806" on="0"/>
        <pt x="370" y="806" on="1"/>
        <pt x="391" y="806" on="0"/>
        <pt x="420" y="833" on="0"/>
        <pt x="420" y="852" on="1"/>
        <pt x="420" y="873" on="0"/>
        <pt x="391" y="899" on="0"/>
        <pt x="370" y="899" on="1"/>
        <pt x="349" y="899" on="0"/>
        <pt x="321" y="872" on="0"/>
      </contour>
    </TTGlyph>
    <TTGlyph name="Utilde" xMin="88" yMin="-6" xMax="652" yMax="929">
      <contour>
        <pt x="549" y="701" on="1"/>
        <pt x="652" y="701" on="1"/>
        <pt x="652" y="269" on="1"/>
        <pt x="652" y="150" on="0"/>
        <pt x="492" y="-6" on="0"/>
        <pt x="370" y="-6" on="1"/>
        <pt x="248" y="-6" on="0"/>
        <pt x="88" y="150" on="0"/>
        <pt x="88" y="269" on="1"/>
        <pt x="88" y="701" on="1"/>
        <pt x="196" y="701" on="1"/>
        <pt x="196" y="278" on="1"/>
        <pt x="196" y="202" on="0"/>
        <pt x="299" y="98" on="0"/>
        <pt x="370" y="98" on="1"/>
        <pt x="445" y="98" on="0"/>
        <pt x="549" y="202" on="0"/>
        <pt x="549" y="278" on="1"/>
      </contour>
      <contour>
        <pt x="277" y="816" on="1"/>
        <pt x="200" y="816" on="1"/>
        <pt x="200" y="868" on="0"/>
        <pt x="257" y="929" on="0"/>
        <pt x="306" y="929" on="1"/>
        <pt x="321" y="929" on="0"/>
        <pt x="355" y="920" on="0"/>
        <pt x="387" y="906" on="1"/>
        <pt x="412" y="895" on="0"/>
        <pt x="434" y="889" on="0"/>
        <pt x="442" y="889" on="1"/>
        <pt x="455" y="889" on="0"/>
        <pt x="468" y="911" on="0"/>
        <pt x="467" y="929" on="1"/>
        <pt x="543" y="929" on="1"/>
        <pt x="543" y="880" on="0"/>
        <pt x="492" y="815" on="0"/>
        <pt x="451" y="815" on="1"/>
        <pt x="434" y="815" on="0"/>
        <pt x="395" y="825" on="0"/>
        <pt x="358" y="839" on="1"/>
        <pt x="333" y="849" on="0"/>
        <pt x="311" y="855" on="0"/>
        <pt x="304" y="855" on="1"/>
        <pt x="292" y="855" on="0"/>
        <pt x="277" y="834" on="0"/>
      </contour>
    </TTGlyph>
    <TTGlyph name="V" xMin="24" yMin="0" xMax="691" yMax="700">
      <contour>
        <pt x="304" y="0" on="1"/>
        <pt x="24" y="700" on="1"/>
        <pt x="147" y="700" on="1"/>
        <pt x="314" y="275" on="1"/>
        <pt x="338" y="213" on="0"/>
        <pt x="366" y="134" on="0"/>
        <pt x="377" y="99" on="1"/>
        <pt x="351" y="98" on="1"/>
        <pt x="361" y="134" on="0"/>
        <pt x="388" y="216" on="0"/>
        <pt x="410" y="275" on="1"/>
        <pt x="565" y="700" on="1"/>
        <pt x="691" y="700" on="1"/>
        <pt x="409" y="0" on="1"/>
      </contour>
    </TTGlyph>
    <TTGlyph name="W" xMin="24" yMin="0" xMax="972" yMax="700">
      <contour>
        <pt x="247" y="0" on="1"/>
        <pt x="24" y="700" on="1"/>
        <pt x="139" y="700" on="1"/>
        <pt x="274" y="262" on="1"/>
        <pt x="285" y="230" on="0"/>
        <pt x="303" y="130" on="0"/>
        <pt x="308" y="109" on="1"/>
        <pt x="279" y="110" on="1"/>
        <pt x="286" y="133" on="0"/>
        <pt x="313" y="231" on="0"/>
        <pt x="325" y="263" on="1"/>
        <pt x="451" y="579" on="1"/>
        <pt x="548" y="579" on="1"/>
        <pt x="670" y="263" on="1"/>
        <pt x="679" y="241" on="0"/>
        <pt x="693" y="199" on="0"/>
        <pt x="714" y="119" on="1"/>
        <pt x="688" y="112" on="1"/>
        <pt x="704" y="197" on="0"/>
        <pt x="716" y="241" on="0"/>
        <pt x="723" y="265" on="1"/>
        <pt x="856" y="700" on="1"/>
        <pt x="972" y="700" on="1"/>
        <pt x="749" y="0" on="1"/>
        <pt x="674" y="0" on="1"/>
        <pt x="489" y="438" on="1"/>
        <pt x="498" y="434" on="1"/>
        <pt x="320" y="0" on="1"/>
      </contour>
    </TTGlyph>
    <TTGlyph name="Wacute" xMin="24" yMin="0" xMax="972" yMax="926">
      <contour>
        <pt x="247" y="0" on="1"/>
        <pt x="24" y="700" on="1"/>
        <pt x="139" y="700" on="1"/>
        <pt x="274" y="262" on="1"/>
        <pt x="285" y="230" on="0"/>
        <pt x="303" y="130" on="0"/>
        <pt x="308" y="109" on="1"/>
        <pt x="279" y="110" on="1"/>
        <pt x="286" y="133" on="0"/>
        <pt x="313" y="231" on="0"/>
        <pt x="325" y="263" on="1"/>
        <pt x="451" y="579" on="1"/>
        <pt x="548" y="579" on="1"/>
        <pt x="670" y="263" on="1"/>
        <pt x="679" y="241" on="0"/>
        <pt x="693" y="199" on="0"/>
        <pt x="714" y="119" on="1"/>
        <pt x="688" y="112" on="1"/>
        <pt x="704" y="197" on="0"/>
        <pt x="716" y="241" on="0"/>
        <pt x="723" y="265" on="1"/>
        <pt x="856" y="700" on="1"/>
        <pt x="972" y="700" on="1"/>
        <pt x="749" y="0" on="1"/>
        <pt x="674" y="0" on="1"/>
        <pt x="489" y="438" on="1"/>
        <pt x="498" y="434" on="1"/>
        <pt x="320" y="0" on="1"/>
      </contour>
      <contour>
        <pt x="645" y="844" on="1"/>
        <pt x="471" y="750" on="1"/>
        <pt x="437" y="801" on="1"/>
        <pt x="580" y="926" on="1"/>
      </contour>
    </TTGlyph>
    <TTGlyph name="Wcircumflex" xMin="24" yMin="0" xMax="972" yMax="894">
      <contour>
        <pt x="247" y="0" on="1"/>
        <pt x="24" y="700" on="1"/>
        <pt x="139" y="700" on="1"/>
        <pt x="274" y="262" on="1"/>
        <pt x="285" y="230" on="0"/>
        <pt x="303" y="130" on="0"/>
        <pt x="308" y="109" on="1"/>
        <pt x="279" y="110" on="1"/>
        <pt x="286" y="133" on="0"/>
        <pt x="313" y="231" on="0"/>
        <pt x="325" y="263" on="1"/>
        <pt x="451" y="579" on="1"/>
        <pt x="548" y="579" on="1"/>
        <pt x="670" y="263" on="1"/>
        <pt x="679" y="241" on="0"/>
        <pt x="693" y="199" on="0"/>
        <pt x="714" y="119" on="1"/>
        <pt x="688" y="112" on="1"/>
        <pt x="704" y="197" on="0"/>
        <pt x="716" y="241" on="0"/>
        <pt x="723" y="265" on="1"/>
        <pt x="856" y="700" on="1"/>
        <pt x="972" y="700" on="1"/>
        <pt x="749" y="0" on="1"/>
        <pt x="674" y="0" on="1"/>
        <pt x="489" y="438" on="1"/>
        <pt x="498" y="434" on="1"/>
        <pt x="320" y="0" on="1"/>
      </contour>
      <contour>
        <pt x="615" y="748" on="1"/>
        <pt x="482" y="823" on="1"/>
        <pt x="511" y="823" on="1"/>
        <pt x="378" y="748" on="1"/>
        <pt x="341" y="783" on="1"/>
        <pt x="460" y="894" on="1"/>
        <pt x="533" y="894" on="1"/>
        <pt x="652" y="783" on="1"/>
      </contour>
    </TTGlyph>
    <TTGlyph name="Wdieresis" xMin="24" yMin="0" xMax="972" yMax="879">
      <contour>
        <pt x="247" y="0" on="1"/>
        <pt x="24" y="700" on="1"/>
        <pt x="139" y="700" on="1"/>
        <pt x="274" y="262" on="1"/>
        <pt x="285" y="230" on="0"/>
        <pt x="303" y="130" on="0"/>
        <pt x="308" y="109" on="1"/>
        <pt x="279" y="110" on="1"/>
        <pt x="286" y="133" on="0"/>
        <pt x="313" y="231" on="0"/>
        <pt x="325" y="263" on="1"/>
        <pt x="451" y="579" on="1"/>
        <pt x="548" y="579" on="1"/>
        <pt x="670" y="263" on="1"/>
        <pt x="679" y="241" on="0"/>
        <pt x="693" y="199" on="0"/>
        <pt x="714" y="119" on="1"/>
        <pt x="688" y="112" on="1"/>
        <pt x="704" y="197" on="0"/>
        <pt x="716" y="241" on="0"/>
        <pt x="723" y="265" on="1"/>
        <pt x="856" y="700" on="1"/>
        <pt x="972" y="700" on="1"/>
        <pt x="749" y="0" on="1"/>
        <pt x="674" y="0" on="1"/>
        <pt x="489" y="438" on="1"/>
        <pt x="498" y="434" on="1"/>
        <pt x="320" y="0" on="1"/>
      </contour>
      <contour>
        <pt x="465" y="814" on="1"/>
        <pt x="465" y="785" on="0"/>
        <pt x="428" y="749" on="0"/>
        <pt x="396" y="749" on="1"/>
        <pt x="363" y="749" on="0"/>
        <pt x="327" y="783" on="0"/>
        <pt x="327" y="814" on="1"/>
        <pt x="327" y="843" on="0"/>
        <pt x="364" y="879" on="0"/>
        <pt x="396" y="879" on="1"/>
        <pt x="429" y="879" on="0"/>
        <pt x="465" y="845" on="0"/>
      </contour>
      <contour>
        <pt x="671" y="814" on="1"/>
        <pt x="671" y="785" on="0"/>
        <pt x="634" y="749" on="0"/>
        <pt x="602" y="749" on="1"/>
        <pt x="569" y="749" on="0"/>
        <pt x="533" y="783" on="0"/>
        <pt x="533" y="814" on="1"/>
        <pt x="533" y="843" on="0"/>
        <pt x="570" y="879" on="0"/>
        <pt x="602" y="879" on="1"/>
        <pt x="635" y="879" on="0"/>
        <pt x="671" y="845" on="0"/>
      </contour>
    </TTGlyph>
    <TTGlyph name="Wgrave" xMin="24" yMin="0" xMax="972" yMax="930">
      <contour>
        <pt x="247" y="0" on="1"/>
        <pt x="24" y="700" on="1"/>
        <pt x="139" y="700" on="1"/>
        <pt x="274" y="262" on="1"/>
        <pt x="285" y="230" on="0"/>
        <pt x="303" y="130" on="0"/>
        <pt x="308" y="109" on="1"/>
        <pt x="279" y="110" on="1"/>
        <pt x="286" y="133" on="0"/>
        <pt x="313" y="231" on="0"/>
        <pt x="325" y="263" on="1"/>
        <pt x="451" y="579" on="1"/>
        <pt x="548" y="579" on="1"/>
        <pt x="670" y="263" on="1"/>
        <pt x="679" y="241" on="0"/>
        <pt x="693" y="199" on="0"/>
        <pt x="714" y="119" on="1"/>
        <pt x="688" y="112" on="1"/>
        <pt x="704" y="197" on="0"/>
        <pt x="716" y="241" on="0"/>
        <pt x="723" y="265" on="1"/>
        <pt x="856" y="700" on="1"/>
        <pt x="972" y="700" on="1"/>
        <pt x="749" y="0" on="1"/>
        <pt x="674" y="0" on="1"/>
        <pt x="489" y="438" on="1"/>
        <pt x="498" y="434" on="1"/>
        <pt x="320" y="0" on="1"/>
      </contour>
      <contour>
        <pt x="565" y="805" on="1"/>
        <pt x="531" y="754" on="1"/>
        <pt x="357" y="848" on="1"/>
        <pt x="422" y="930" on="1"/>
      </contour>
    </TTGlyph>
    <TTGlyph name="X" xMin="24" yMin="0" xMax="661" yMax="700">
      <contour>
        <pt x="524" y="700" on="1"/>
        <pt x="651" y="700" on="1"/>
        <pt x="394" y="325" on="1"/>
        <pt x="328" y="401" on="1"/>
      </contour>
      <contour>
        <pt x="29" y="700" on="1"/>
        <pt x="166" y="700" on="1"/>
        <pt x="378" y="390" on="1"/>
        <pt x="661" y="0" on="1"/>
        <pt x="524" y="0" on="1"/>
        <pt x="307" y="314" on="1"/>
      </contour>
      <contour>
        <pt x="151" y="0" on="1"/>
        <pt x="24" y="0" on="1"/>
        <pt x="291" y="381" on="1"/>
        <pt x="358" y="302" on="1"/>
      </contour>
    </TTGlyph>
    <TTGlyph name="Y" xMin="10" yMin="0" xMax="650" yMax="700">
      <contour>
        <pt x="526" y="700" on="1"/>
        <pt x="650" y="700" on="1"/>
        <pt x="379" y="289" on="1"/>
        <pt x="394" y="357" on="1"/>
        <pt x="394" y="0" on="1"/>
        <pt x="286" y="0" on="1"/>
        <pt x="286" y="349" on="1"/>
        <pt x="293" y="300" on="1"/>
        <pt x="10" y="700" on="1"/>
        <pt x="140" y="700" on="1"/>
        <pt x="356" y="390" on="1"/>
        <pt x="331" y="393" on="1"/>
      </contour>
    </TTGlyph>
    <TTGlyph name="Yacute" xMin="10" yMin="0" xMax="650" yMax="926">
      <contour>
        <pt x="526" y="700" on="1"/>
        <pt x="650" y="700" on="1"/>
        <pt x="379" y="289" on="1"/>
        <pt x="394" y="357" on="1"/>
        <pt x="394" y="0" on="1"/>
        <pt x="286" y="0" on="1"/>
        <pt x="286" y="349" on="1"/>
        <pt x="293" y="300" on="1"/>
        <pt x="10" y="700" on="1"/>
        <pt x="140" y="700" on="1"/>
        <pt x="356" y="390" on="1"/>
        <pt x="331" y="393" on="1"/>
      </contour>
      <contour>
        <pt x="479" y="844" on="1"/>
        <pt x="305" y="750" on="1"/>
        <pt x="271" y="801" on="1"/>
        <pt x="414" y="926" on="1"/>
      </contour>
    </TTGlyph>
    <TTGlyph name="Ycircumflex" xMin="10" yMin="0" xMax="650" yMax="894">
      <contour>
        <pt x="526" y="700" on="1"/>
        <pt x="650" y="700" on="1"/>
        <pt x="379" y="289" on="1"/>
        <pt x="394" y="357" on="1"/>
        <pt x="394" y="0" on="1"/>
        <pt x="286" y="0" on="1"/>
        <pt x="286" y="349" on="1"/>
        <pt x="293" y="300" on="1"/>
        <pt x="10" y="700" on="1"/>
        <pt x="140" y="700" on="1"/>
        <pt x="356" y="390" on="1"/>
        <pt x="331" y="393" on="1"/>
      </contour>
      <contour>
        <pt x="449" y="748" on="1"/>
        <pt x="316" y="823" on="1"/>
        <pt x="345" y="823" on="1"/>
        <pt x="212" y="748" on="1"/>
        <pt x="175" y="783" on="1"/>
        <pt x="294" y="894" on="1"/>
        <pt x="367" y="894" on="1"/>
        <pt x="486" y="783" on="1"/>
      </contour>
    </TTGlyph>
    <TTGlyph name="Ydieresis" xMin="10" yMin="0" xMax="650" yMax="879">
      <contour>
        <pt x="526" y="700" on="1"/>
        <pt x="650" y="700" on="1"/>
        <pt x="379" y="289" on="1"/>
        <pt x="394" y="357" on="1"/>
        <pt x="394" y="0" on="1"/>
        <pt x="286" y="0" on="1"/>
        <pt x="286" y="349" on="1"/>
        <pt x="293" y="300" on="1"/>
        <pt x="10" y="700" on="1"/>
        <pt x="140" y="700" on="1"/>
        <pt x="356" y="390" on="1"/>
        <pt x="331" y="393" on="1"/>
      </contour>
      <contour>
        <pt x="299" y="814" on="1"/>
        <pt x="299" y="785" on="0"/>
        <pt x="262" y="749" on="0"/>
        <pt x="230" y="749" on="1"/>
        <pt x="197" y="749" on="0"/>
        <pt x="161" y="783" on="0"/>
        <pt x="161" y="814" on="1"/>
        <pt x="161" y="843" on="0"/>
        <pt x="198" y="879" on="0"/>
        <pt x="230" y="879" on="1"/>
        <pt x="263" y="879" on="0"/>
        <pt x="299" y="845" on="0"/>
      </contour>
      <contour>
        <pt x="505" y="814" on="1"/>
        <pt x="505" y="785" on="0"/>
        <pt x="468" y="749" on="0"/>
        <pt x="436" y="749" on="1"/>
        <pt x="403" y="749" on="0"/>
        <pt x="367" y="783" on="0"/>
        <pt x="367" y="814" on="1"/>
        <pt x="367" y="843" on="0"/>
        <pt x="404" y="879" on="0"/>
        <pt x="436" y="879" on="1"/>
        <pt x="469" y="879" on="0"/>
        <pt x="505" y="845" on="0"/>
      </contour>
    </TTGlyph>
    <TTGlyph name="Ygrave" xMin="10" yMin="0" xMax="650" yMax="930">
      <contour>
        <pt x="526" y="700" on="1"/>
        <pt x="650" y="700" on="1"/>
        <pt x="379" y="289" on="1"/>
        <pt x="394" y="357" on="1"/>
        <pt x="394" y="0" on="1"/>
        <pt x="286" y="0" on="1"/>
        <pt x="286" y="349" on="1"/>
        <pt x="293" y="300" on="1"/>
        <pt x="10" y="700" on="1"/>
        <pt x="140" y="700" on="1"/>
        <pt x="356" y="390" on="1"/>
        <pt x="331" y="393" on="1"/>
      </contour>
      <contour>
        <pt x="399" y="805" on="1"/>
        <pt x="365" y="754" on="1"/>
        <pt x="191" y="848" on="1"/>
        <pt x="256" y="930" on="1"/>
      </contour>
    </TTGlyph>
    <TTGlyph name="Z" xMin="60" yMin="0" xMax="604" yMax="700">
      <contour>
        <pt x="86" y="700" on="1"/>
        <pt x="593" y="700" on="1"/>
        <pt x="593" y="622" on="1"/>
        <pt x="196" y="87" on="1"/>
        <pt x="180" y="104" on="1"/>
        <pt x="604" y="104" on="1"/>
        <pt x="604" y="0" on="1"/>
        <pt x="60" y="0" on="1"/>
        <pt x="60" y="79" on="1"/>
        <pt x="459" y="613" on="1"/>
        <pt x="474" y="596" on="1"/>
        <pt x="86" y="596" on="1"/>
      </contour>
    </TTGlyph>
    <TTGlyph name="Zacute" xMin="60" yMin="0" xMax="604" yMax="926">
      <contour>
        <pt x="86" y="700" on="1"/>
        <pt x="593" y="700" on="1"/>
        <pt x="593" y="622" on="1"/>
        <pt x="196" y="87" on="1"/>
        <pt x="180" y="104" on="1"/>
        <pt x="604" y="104" on="1"/>
        <pt x="604" y="0" on="1"/>
        <pt x="60" y="0" on="1"/>
        <pt x="60" y="79" on="1"/>
        <pt x="459" y="613" on="1"/>
        <pt x="474" y="596" on="1"/>
        <pt x="86" y="596" on="1"/>
      </contour>
      <contour>
        <pt x="478" y="844" on="1"/>
        <pt x="304" y="750" on="1"/>
        <pt x="270" y="801" on="1"/>
        <pt x="413" y="926" on="1"/>
      </contour>
    </TTGlyph>
    <TTGlyph name="Zcaron" xMin="60" yMin="0" xMax="604" yMax="902">
      <contour>
        <pt x="86" y="700" on="1"/>
        <pt x="593" y="700" on="1"/>
        <pt x="593" y="622" on="1"/>
        <pt x="196" y="87" on="1"/>
        <pt x="180" y="104" on="1"/>
        <pt x="604" y="104" on="1"/>
        <pt x="604" y="0" on="1"/>
        <pt x="60" y="0" on="1"/>
        <pt x="60" y="79" on="1"/>
        <pt x="459" y="613" on="1"/>
        <pt x="474" y="596" on="1"/>
        <pt x="86" y="596" on="1"/>
      </contour>
      <contour>
        <pt x="446" y="902" on="1"/>
        <pt x="311" y="829" on="1"/>
        <pt x="341" y="829" on="1"/>
        <pt x="206" y="902" on="1"/>
        <pt x="168" y="869" on="1"/>
        <pt x="283" y="756" on="1"/>
        <pt x="369" y="756" on="1"/>
        <pt x="484" y="869" on="1"/>
      </contour>
    </TTGlyph>
    <TTGlyph name="Zdotaccent" xMin="60" yMin="0" xMax="604" yMax="889">
      <contour>
        <pt x="86" y="700" on="1"/>
        <pt x="593" y="700" on="1"/>
        <pt x="593" y="622" on="1"/>
        <pt x="196" y="87" on="1"/>
        <pt x="180" y="104" on="1"/>
        <pt x="604" y="104" on="1"/>
        <pt x="604" y="0" on="1"/>
        <pt x="60" y="0" on="1"/>
        <pt x="60" y="79" on="1"/>
        <pt x="459" y="613" on="1"/>
        <pt x="474" y="596" on="1"/>
        <pt x="86" y="596" on="1"/>
      </contour>
      <contour>
        <pt x="400" y="824" on="1"/>
        <pt x="400" y="795" on="0"/>
        <pt x="363" y="759" on="0"/>
        <pt x="331" y="759" on="1"/>
        <pt x="298" y="759" on="0"/>
        <pt x="262" y="793" on="0"/>
        <pt x="262" y="824" on="1"/>
        <pt x="262" y="853" on="0"/>
        <pt x="299" y="889" on="0"/>
        <pt x="331" y="889" on="1"/>
        <pt x="364" y="889" on="0"/>
        <pt x="400" y="855" on="0"/>
      </contour>
    </TTGlyph>
    <TTGlyph name="_connection" xMin="-30" yMin="0" xMax="90" yMax="102">
      <contour>
        <pt x="-30" y="0" on="1"/>
        <pt x="-30" y="102" on="1"/>
        <pt x="90" y="102" on="1"/>
        <pt x="90" y="0" on="1"/>
      </contour>
    </TTGlyph>
    <TTGlyph name="_connection.round" xMin="-79" yMin="0" xMax="120" yMax="149">
      <contour>
        <pt x="-79" y="102" on="1"/>
        <pt x="-31" y="149" on="1"/>
        <pt x="-5" y="124" on="0"/>
        <pt x="65" y="102" on="0"/>
        <pt x="120" y="102" on="1"/>
        <pt x="120" y="0" on="1"/>
        <pt x="54" y="0" on="0"/>
        <pt x="-49" y="52" on="0"/>
      </contour>
    </TTGlyph>
    <TTGlyph name="_guide" xMin="72" yMin="0" xMax="1213" yMax="536">
      <contour>
        <pt x="963" y="536" on="1"/>
        <pt x="1078" y="536" on="0"/>
        <pt x="1213" y="412" on="0"/>
        <pt x="1213" y="310" on="1"/>
        <pt x="1213" y="0" on="1"/>
        <pt x="1110" y="0" on="1"/>
        <pt x="1110" y="293" on="1"/>
        <pt x="1110" y="356" on="0"/>
        <pt x="1012" y="440" on="0"/>
        <pt x="939" y="440" on="1"/>
        <pt x="861" y="440" on="0"/>
        <pt x="741" y="336" on="0"/>
        <pt x="741" y="278" on="1"/>
        <pt x="741" y="0" on="1"/>
        <pt x="715" y="0" on="0"/>
        <pt x="664" y="0" on="0"/>
        <pt x="638" y="0" on="1"/>
        <pt x="638" y="525" on="1"/>
        <pt x="741" y="525" on="1"/>
        <pt x="741" y="377" on="1"/>
        <pt x="703" y="375" on="1"/>
        <pt x="748" y="450" on="0"/>
        <pt x="884" y="536" on="0"/>
      </contour>
      <contour>
        <pt x="347" y="536" on="1"/>
        <pt x="437" y="536" on="0"/>
        <pt x="527" y="429" on="0"/>
        <pt x="527" y="320" on="1"/>
        <pt x="527" y="0" on="1"/>
        <pt x="424" y="0" on="1"/>
        <pt x="424" y="313" on="1"/>
        <pt x="424" y="381" on="0"/>
        <pt x="369" y="445" on="0"/>
        <pt x="313" y="442" on="1"/>
        <pt x="254" y="442" on="0"/>
        <pt x="175" y="370" on="0"/>
        <pt x="175" y="318" on="1"/>
        <pt x="175" y="0" on="1"/>
        <pt x="149" y="0" on="0"/>
        <pt x="98" y="0" on="0"/>
        <pt x="72" y="0" on="1"/>
        <pt x="72" y="525" on="1"/>
        <pt x="175" y="525" on="1"/>
        <pt x="175" y="417" on="1"/>
        <pt x="157" y="405" on="1"/>
        <pt x="172" y="457" on="0"/>
        <pt x="284" y="536" on="0"/>
      </contour>
    </TTGlyph>
    <TTGlyph name="_spacingBehDotless" xMin="0" yMin="0" xMax="161" yMax="221">
      <contour>
        <pt x="0" y="0" on="1"/>
        <pt x="0" y="221" on="1"/>
        <pt x="161" y="221" on="1"/>
        <pt x="161" y="0" on="1"/>
      </contour>
    </TTGlyph>
    <TTGlyph name="_spacingDal" xMin="0" yMin="0" xMax="161" yMax="221">
      <contour>
        <pt x="0" y="0" on="1"/>
        <pt x="0" y="221" on="1"/>
        <pt x="161" y="221" on="1"/>
        <pt x="161" y="0" on="1"/>
      </contour>
    </TTGlyph>
    <TTGlyph name="a" xMin="38" yMin="-10" xMax="561" yMax="536">
      <contour>
        <pt x="457" y="525" on="1"/>
        <pt x="561" y="525" on="1"/>
        <pt x="561" y="0" on="1"/>
        <pt x="457" y="0" on="1"/>
        <pt x="457" y="125" on="1"/>
        <pt x="481" y="132" on="1"/>
        <pt x="469" y="78" on="0"/>
        <pt x="350" y="-10" on="0"/>
        <pt x="274" y="-10" on="1"/>
        <pt x="176" y="-10" on="0"/>
        <pt x="38" y="147" on="0"/>
        <pt x="38" y="264" on="1"/>
        <pt x="38" y="383" on="0"/>
        <pt x="180" y="536" on="0"/>
        <pt x="283" y="536" on="1"/>
        <pt x="364" y="536" on="0"/>
        <pt x="471" y="445" on="0"/>
        <pt x="480" y="381" on="1"/>
        <pt x="457" y="389" on="1"/>
      </contour>
      <contour>
        <pt x="143" y="264" on="1"/>
        <pt x="143" y="186" on="0"/>
        <pt x="232" y="85" on="0"/>
        <pt x="301" y="85" on="1"/>
        <pt x="371" y="85" on="0"/>
        <pt x="461" y="186" on="0"/>
        <pt x="461" y="264" on="1"/>
        <pt x="461" y="341" on="0"/>
        <pt x="371" y="441" on="0"/>
        <pt x="301" y="441" on="1"/>
        <pt x="232" y="441" on="0"/>
        <pt x="143" y="341" on="0"/>
      </contour>
    </TTGlyph>
    <TTGlyph name="a.ss01" xMin="48" yMin="-10" xMax="476" yMax="536">
      <contour>
        <pt x="280" y="536" on="1"/>
        <pt x="370" y="536" on="0"/>
        <pt x="476" y="446" on="0"/>
        <pt x="476" y="364" on="1"/>
        <pt x="476" y="0" on="1"/>
        <pt x="383" y="0" on="1"/>
        <pt x="383" y="342" on="1"/>
        <pt x="383" y="386" on="0"/>
        <pt x="320" y="441" on="0"/>
        <pt x="272" y="441" on="1"/>
        <pt x="228" y="441" on="0"/>
        <pt x="157" y="405" on="0"/>
        <pt x="128" y="368" on="1"/>
        <pt x="61" y="435" on="1"/>
        <pt x="108" y="486" on="0"/>
        <pt x="217" y="536" on="0"/>
      </contour>
      <contour>
        <pt x="284" y="319" on="1"/>
        <pt x="430" y="319" on="1"/>
        <pt x="421" y="237" on="1"/>
        <pt x="271" y="237" on="1"/>
        <pt x="210" y="237" on="0"/>
        <pt x="145" y="192" on="0"/>
        <pt x="145" y="151" on="1"/>
        <pt x="145" y="118" on="0"/>
        <pt x="193" y="78" on="0"/>
        <pt x="230" y="78" on="1"/>
        <pt x="284" y="78" on="0"/>
        <pt x="375" y="133" on="0"/>
        <pt x="396" y="174" on="1"/>
        <pt x="420" y="107" on="1"/>
        <pt x="388" y="55" on="0"/>
        <pt x="284" y="-10" on="0"/>
        <pt x="226" y="-10" on="1"/>
        <pt x="150" y="-10" on="0"/>
        <pt x="48" y="77" on="0"/>
        <pt x="48" y="149" on="1"/>
        <pt x="48" y="233" on="0"/>
        <pt x="167" y="319" on="0"/>
      </contour>
    </TTGlyph>
    <TTGlyph name="aabreve.ss01" xMin="48" yMin="-10" xMax="476" yMax="781">
      <contour>
        <pt x="280" y="536" on="1"/>
        <pt x="370" y="536" on="0"/>
        <pt x="476" y="446" on="0"/>
        <pt x="476" y="364" on="1"/>
        <pt x="476" y="0" on="1"/>
        <pt x="383" y="0" on="1"/>
        <pt x="383" y="342" on="1"/>
        <pt x="383" y="386" on="0"/>
        <pt x="320" y="441" on="0"/>
        <pt x="272" y="441" on="1"/>
        <pt x="228" y="441" on="0"/>
        <pt x="157" y="405" on="0"/>
        <pt x="128" y="368" on="1"/>
        <pt x="61" y="435" on="1"/>
        <pt x="108" y="486" on="0"/>
        <pt x="217" y="536" on="0"/>
      </contour>
      <contour>
        <pt x="284" y="319" on="1"/>
        <pt x="430" y="319" on="1"/>
        <pt x="421" y="237" on="1"/>
        <pt x="271" y="237" on="1"/>
        <pt x="210" y="237" on="0"/>
        <pt x="145" y="192" on="0"/>
        <pt x="145" y="151" on="1"/>
        <pt x="145" y="118" on="0"/>
        <pt x="193" y="78" on="0"/>
        <pt x="230" y="78" on="1"/>
        <pt x="284" y="78" on="0"/>
        <pt x="375" y="133" on="0"/>
        <pt x="396" y="174" on="1"/>
        <pt x="420" y="107" on="1"/>
        <pt x="388" y="55" on="0"/>
        <pt x="284" y="-10" on="0"/>
        <pt x="226" y="-10" on="1"/>
        <pt x="150" y="-10" on="0"/>
        <pt x="48" y="77" on="0"/>
        <pt x="48" y="149" on="1"/>
        <pt x="48" y="233" on="0"/>
        <pt x="167" y="319" on="0"/>
      </contour>
      <contour>
        <pt x="265" y="615" on="1"/>
        <pt x="204" y="615" on="0"/>
        <pt x="117" y="698" on="0"/>
        <pt x="103" y="769" on="1"/>
        <pt x="177" y="781" on="1"/>
        <pt x="190" y="742" on="0"/>
        <pt x="238" y="696" on="0"/>
        <pt x="265" y="696" on="1"/>
        <pt x="292" y="696" on="0"/>
        <pt x="340" y="742" on="0"/>
        <pt x="353" y="781" on="1"/>
        <pt x="427" y="769" on="1"/>
        <pt x="413" y="698" on="0"/>
        <pt x="326" y="615" on="0"/>
      </contour>
    </TTGlyph>
    <TTGlyph name="aacute" xMin="38" yMin="-10" xMax="561" yMax="807">
      <contour>
        <pt x="457" y="525" on="1"/>
        <pt x="561" y="525" on="1"/>
        <pt x="561" y="0" on="1"/>
        <pt x="457" y="0" on="1"/>
        <pt x="457" y="125" on="1"/>
        <pt x="481" y="132" on="1"/>
        <pt x="469" y="78" on="0"/>
        <pt x="350" y="-10" on="0"/>
        <pt x="274" y="-10" on="1"/>
        <pt x="176" y="-10" on="0"/>
        <pt x="38" y="147" on="0"/>
        <pt x="38" y="264" on="1"/>
        <pt x="38" y="383" on="0"/>
        <pt x="180" y="536" on="0"/>
        <pt x="283" y="536" on="1"/>
        <pt x="364" y="536" on="0"/>
        <pt x="471" y="445" on="0"/>
        <pt x="480" y="381" on="1"/>
        <pt x="457" y="389" on="1"/>
      </contour>
      <contour>
        <pt x="143" y="264" on="1"/>
        <pt x="143" y="186" on="0"/>
        <pt x="232" y="85" on="0"/>
        <pt x="301" y="85" on="1"/>
        <pt x="371" y="85" on="0"/>
        <pt x="461" y="186" on="0"/>
        <pt x="461" y="264" on="1"/>
        <pt x="461" y="341" on="0"/>
        <pt x="371" y="441" on="0"/>
        <pt x="301" y="441" on="1"/>
        <pt x="232" y="441" on="0"/>
        <pt x="143" y="341" on="0"/>
      </contour>
      <contour>
        <pt x="464" y="725" on="1"/>
        <pt x="290" y="631" on="1"/>
        <pt x="256" y="682" on="1"/>
        <pt x="399" y="807" on="1"/>
      </contour>
    </TTGlyph>
    <TTGlyph name="aacute.ss01" xMin="48" yMin="-10" xMax="476" yMax="807">
      <contour>
        <pt x="280" y="536" on="1"/>
        <pt x="370" y="536" on="0"/>
        <pt x="476" y="446" on="0"/>
        <pt x="476" y="364" on="1"/>
        <pt x="476" y="0" on="1"/>
        <pt x="383" y="0" on="1"/>
        <pt x="383" y="342" on="1"/>
        <pt x="383" y="386" on="0"/>
        <pt x="320" y="441" on="0"/>
        <pt x="272" y="441" on="1"/>
        <pt x="228" y="441" on="0"/>
        <pt x="157" y="405" on="0"/>
        <pt x="128" y="368" on="1"/>
        <pt x="61" y="435" on="1"/>
        <pt x="108" y="486" on="0"/>
        <pt x="217" y="536" on="0"/>
      </contour>
      <contour>
        <pt x="284" y="319" on="1"/>
        <pt x="430" y="319" on="1"/>
        <pt x="421" y="237" on="1"/>
        <pt x="271" y="237" on="1"/>
        <pt x="210" y="237" on="0"/>
        <pt x="145" y="192" on="0"/>
        <pt x="145" y="151" on="1"/>
        <pt x="145" y="118" on="0"/>
        <pt x="193" y="78" on="0"/>
        <pt x="230" y="78" on="1"/>
        <pt x="284" y="78" on="0"/>
        <pt x="375" y="133" on="0"/>
        <pt x="396" y="174" on="1"/>
        <pt x="420" y="107" on="1"/>
        <pt x="388" y="55" on="0"/>
        <pt x="284" y="-10" on="0"/>
        <pt x="226" y="-10" on="1"/>
        <pt x="150" y="-10" on="0"/>
        <pt x="48" y="77" on="0"/>
        <pt x="48" y="149" on="1"/>
        <pt x="48" y="233" on="0"/>
        <pt x="167" y="319" on="0"/>
      </contour>
      <contour>
        <pt x="436" y="725" on="1"/>
        <pt x="262" y="631" on="1"/>
        <pt x="228" y="682" on="1"/>
        <pt x="371" y="807" on="1"/>
      </contour>
    </TTGlyph>
    <TTGlyph name="abreve" xMin="38" yMin="-10" xMax="561" yMax="800">
      <contour>
        <pt x="457" y="525" on="1"/>
        <pt x="561" y="525" on="1"/>
        <pt x="561" y="0" on="1"/>
        <pt x="457" y="0" on="1"/>
        <pt x="457" y="125" on="1"/>
        <pt x="481" y="132" on="1"/>
        <pt x="469" y="78" on="0"/>
        <pt x="350" y="-10" on="0"/>
        <pt x="274" y="-10" on="1"/>
        <pt x="176" y="-10" on="0"/>
        <pt x="38" y="147" on="0"/>
        <pt x="38" y="264" on="1"/>
        <pt x="38" y="383" on="0"/>
        <pt x="180" y="536" on="0"/>
        <pt x="283" y="536" on="1"/>
        <pt x="364" y="536" on="0"/>
        <pt x="471" y="445" on="0"/>
        <pt x="480" y="381" on="1"/>
        <pt x="457" y="389" on="1"/>
      </contour>
      <contour>
        <pt x="143" y="264" on="1"/>
        <pt x="143" y="186" on="0"/>
        <pt x="232" y="85" on="0"/>
        <pt x="301" y="85" on="1"/>
        <pt x="371" y="85" on="0"/>
        <pt x="461" y="186" on="0"/>
        <pt x="461" y="264" on="1"/>
        <pt x="461" y="341" on="0"/>
        <pt x="371" y="441" on="0"/>
        <pt x="301" y="441" on="1"/>
        <pt x="232" y="441" on="0"/>
        <pt x="143" y="341" on="0"/>
      </contour>
      <contour>
        <pt x="304" y="634" on="1"/>
        <pt x="243" y="634" on="0"/>
        <pt x="156" y="717" on="0"/>
        <pt x="142" y="788" on="1"/>
        <pt x="216" y="800" on="1"/>
        <pt x="229" y="761" on="0"/>
        <pt x="277" y="715" on="0"/>
        <pt x="304" y="715" on="1"/>
        <pt x="331" y="715" on="0"/>
        <pt x="379" y="761" on="0"/>
        <pt x="392" y="800" on="1"/>
        <pt x="466" y="788" on="1"/>
        <pt x="452" y="717" on="0"/>
        <pt x="365" y="634" on="0"/>
      </contour>
    </TTGlyph>
    <TTGlyph name="abreve.ss01" xMin="48" yMin="-10" xMax="476" yMax="800">
      <contour>
        <pt x="280" y="536" on="1"/>
        <pt x="370" y="536" on="0"/>
        <pt x="476" y="446" on="0"/>
        <pt x="476" y="364" on="1"/>
        <pt x="476" y="0" on="1"/>
        <pt x="383" y="0" on="1"/>
        <pt x="383" y="342" on="1"/>
        <pt x="383" y="386" on="0"/>
        <pt x="320" y="441" on="0"/>
        <pt x="272" y="441" on="1"/>
        <pt x="228" y="441" on="0"/>
        <pt x="157" y="405" on="0"/>
        <pt x="128" y="368" on="1"/>
        <pt x="61" y="435" on="1"/>
        <pt x="108" y="486" on="0"/>
        <pt x="217" y="536" on="0"/>
      </contour>
      <contour>
        <pt x="284" y="319" on="1"/>
        <pt x="430" y="319" on="1"/>
        <pt x="421" y="237" on="1"/>
        <pt x="271" y="237" on="1"/>
        <pt x="210" y="237" on="0"/>
        <pt x="145" y="192" on="0"/>
        <pt x="145" y="151" on="1"/>
        <pt x="145" y="118" on="0"/>
        <pt x="193" y="78" on="0"/>
        <pt x="230" y="78" on="1"/>
        <pt x="284" y="78" on="0"/>
        <pt x="375" y="133" on="0"/>
        <pt x="396" y="174" on="1"/>
        <pt x="420" y="107" on="1"/>
        <pt x="388" y="55" on="0"/>
        <pt x="284" y="-10" on="0"/>
        <pt x="226" y="-10" on="1"/>
        <pt x="150" y="-10" on="0"/>
        <pt x="48" y="77" on="0"/>
        <pt x="48" y="149" on="1"/>
        <pt x="48" y="233" on="0"/>
        <pt x="167" y="319" on="0"/>
      </contour>
      <contour>
        <pt x="276" y="634" on="1"/>
        <pt x="215" y="634" on="0"/>
        <pt x="128" y="717" on="0"/>
        <pt x="114" y="788" on="1"/>
        <pt x="188" y="800" on="1"/>
        <pt x="201" y="761" on="0"/>
        <pt x="249" y="715" on="0"/>
        <pt x="276" y="715" on="1"/>
        <pt x="303" y="715" on="0"/>
        <pt x="351" y="761" on="0"/>
        <pt x="364" y="800" on="1"/>
        <pt x="438" y="788" on="1"/>
        <pt x="424" y="717" on="0"/>
        <pt x="337" y="634" on="0"/>
      </contour>
    </TTGlyph>
    <TTGlyph name="acircumflex" xMin="38" yMin="-10" xMax="561" yMax="779">
      <contour>
        <pt x="457" y="525" on="1"/>
        <pt x="561" y="525" on="1"/>
        <pt x="561" y="0" on="1"/>
        <pt x="457" y="0" on="1"/>
        <pt x="457" y="125" on="1"/>
        <pt x="481" y="132" on="1"/>
        <pt x="469" y="78" on="0"/>
        <pt x="350" y="-10" on="0"/>
        <pt x="274" y="-10" on="1"/>
        <pt x="176" y="-10" on="0"/>
        <pt x="38" y="147" on="0"/>
        <pt x="38" y="264" on="1"/>
        <pt x="38" y="383" on="0"/>
        <pt x="180" y="536" on="0"/>
        <pt x="283" y="536" on="1"/>
        <pt x="364" y="536" on="0"/>
        <pt x="471" y="445" on="0"/>
        <pt x="480" y="381" on="1"/>
        <pt x="457" y="389" on="1"/>
      </contour>
      <contour>
        <pt x="143" y="264" on="1"/>
        <pt x="143" y="186" on="0"/>
        <pt x="232" y="85" on="0"/>
        <pt x="301" y="85" on="1"/>
        <pt x="371" y="85" on="0"/>
        <pt x="461" y="186" on="0"/>
        <pt x="461" y="264" on="1"/>
        <pt x="461" y="341" on="0"/>
        <pt x="371" y="441" on="0"/>
        <pt x="301" y="441" on="1"/>
        <pt x="232" y="441" on="0"/>
        <pt x="143" y="341" on="0"/>
      </contour>
      <contour>
        <pt x="430" y="633" on="1"/>
        <pt x="295" y="706" on="1"/>
        <pt x="325" y="706" on="1"/>
        <pt x="190" y="633" on="1"/>
        <pt x="152" y="666" on="1"/>
        <pt x="267" y="779" on="1"/>
        <pt x="353" y="779" on="1"/>
        <pt x="468" y="666" on="1"/>
      </contour>
    </TTGlyph>
    <TTGlyph name="acircumflex.ss01" xMin="48" yMin="-10" xMax="476" yMax="779">
      <contour>
        <pt x="280" y="536" on="1"/>
        <pt x="370" y="536" on="0"/>
        <pt x="476" y="446" on="0"/>
        <pt x="476" y="364" on="1"/>
        <pt x="476" y="0" on="1"/>
        <pt x="383" y="0" on="1"/>
        <pt x="383" y="342" on="1"/>
        <pt x="383" y="386" on="0"/>
        <pt x="320" y="441" on="0"/>
        <pt x="272" y="441" on="1"/>
        <pt x="228" y="441" on="0"/>
        <pt x="157" y="405" on="0"/>
        <pt x="128" y="368" on="1"/>
        <pt x="61" y="435" on="1"/>
        <pt x="108" y="486" on="0"/>
        <pt x="217" y="536" on="0"/>
      </contour>
      <contour>
        <pt x="284" y="319" on="1"/>
        <pt x="430" y="319" on="1"/>
        <pt x="421" y="237" on="1"/>
        <pt x="271" y="237" on="1"/>
        <pt x="210" y="237" on="0"/>
        <pt x="145" y="192" on="0"/>
        <pt x="145" y="151" on="1"/>
        <pt x="145" y="118" on="0"/>
        <pt x="193" y="78" on="0"/>
        <pt x="230" y="78" on="1"/>
        <pt x="284" y="78" on="0"/>
        <pt x="375" y="133" on="0"/>
        <pt x="396" y="174" on="1"/>
        <pt x="420" y="107" on="1"/>
        <pt x="388" y="55" on="0"/>
        <pt x="284" y="-10" on="0"/>
        <pt x="226" y="-10" on="1"/>
        <pt x="150" y="-10" on="0"/>
        <pt x="48" y="77" on="0"/>
        <pt x="48" y="149" on="1"/>
        <pt x="48" y="233" on="0"/>
        <pt x="167" y="319" on="0"/>
      </contour>
      <contour>
        <pt x="402" y="633" on="1"/>
        <pt x="267" y="706" on="1"/>
        <pt x="297" y="706" on="1"/>
        <pt x="162" y="633" on="1"/>
        <pt x="124" y="666" on="1"/>
        <pt x="239" y="779" on="1"/>
        <pt x="325" y="779" on="1"/>
        <pt x="440" y="666" on="1"/>
      </contour>
    </TTGlyph>
    <TTGlyph name="acute" xMin="38" yMin="573" xMax="246" yMax="749">
      <contour>
        <pt x="246" y="667" on="1"/>
        <pt x="72" y="573" on="1"/>
        <pt x="38" y="624" on="1"/>
        <pt x="181" y="749" on="1"/>
      </contour>
    </TTGlyph>
    <TTGlyph name="acute.case" xMin="17" yMin="565" xMax="225" yMax="741">
      <contour>
        <pt x="225" y="659" on="1"/>
        <pt x="51" y="565" on="1"/>
        <pt x="17" y="616" on="1"/>
        <pt x="160" y="741" on="1"/>
      </contour>
    </TTGlyph>
    <TTGlyph name="acutecomb" xMin="39" yMin="633" xMax="247" yMax="809">
      <contour>
        <pt x="247" y="727" on="1"/>
        <pt x="73" y="633" on="1"/>
        <pt x="39" y="684" on="1"/>
        <pt x="182" y="809" on="1"/>
      </contour>
    </TTGlyph>
    <TTGlyph name="acutecomb.case" xMin="17" yMin="565" xMax="225" yMax="741">
      <contour>
        <pt x="225" y="659" on="1"/>
        <pt x="51" y="565" on="1"/>
        <pt x="17" y="616" on="1"/>
        <pt x="160" y="741" on="1"/>
      </contour>
    </TTGlyph>
    <TTGlyph name="acutecomb_dotaccentcomb" xMin="-6" yMin="643" xMax="202" yMax="971">
      <contour>
        <pt x="202" y="737" on="1"/>
        <pt x="28" y="643" on="1"/>
        <pt x="-6" y="694" on="1"/>
        <pt x="137" y="819" on="1"/>
      </contour>
      <contour>
        <pt x="143" y="906" on="1"/>
        <pt x="143" y="877" on="0"/>
        <pt x="106" y="841" on="0"/>
        <pt x="74" y="841" on="1"/>
        <pt x="41" y="841" on="0"/>
        <pt x="5" y="875" on="0"/>
        <pt x="5" y="906" on="1"/>
        <pt x="5" y="935" on="0"/>
        <pt x="42" y="971" on="0"/>
        <pt x="74" y="971" on="1"/>
        <pt x="107" y="971" on="0"/>
        <pt x="143" y="937" on="0"/>
      </contour>
    </TTGlyph>
    <TTGlyph name="adieresis" xMin="38" yMin="-10" xMax="561" yMax="771">
      <contour>
        <pt x="457" y="525" on="1"/>
        <pt x="561" y="525" on="1"/>
        <pt x="561" y="0" on="1"/>
        <pt x="457" y="0" on="1"/>
        <pt x="457" y="125" on="1"/>
        <pt x="481" y="132" on="1"/>
        <pt x="469" y="78" on="0"/>
        <pt x="350" y="-10" on="0"/>
        <pt x="274" y="-10" on="1"/>
        <pt x="176" y="-10" on="0"/>
        <pt x="38" y="147" on="0"/>
        <pt x="38" y="264" on="1"/>
        <pt x="38" y="383" on="0"/>
        <pt x="180" y="536" on="0"/>
        <pt x="283" y="536" on="1"/>
        <pt x="364" y="536" on="0"/>
        <pt x="471" y="445" on="0"/>
        <pt x="480" y="381" on="1"/>
        <pt x="457" y="389" on="1"/>
      </contour>
      <contour>
        <pt x="143" y="264" on="1"/>
        <pt x="143" y="186" on="0"/>
        <pt x="232" y="85" on="0"/>
        <pt x="301" y="85" on="1"/>
        <pt x="371" y="85" on="0"/>
        <pt x="461" y="186" on="0"/>
        <pt x="461" y="264" on="1"/>
        <pt x="461" y="341" on="0"/>
        <pt x="371" y="441" on="0"/>
        <pt x="301" y="441" on="1"/>
        <pt x="232" y="441" on="0"/>
        <pt x="143" y="341" on="0"/>
      </contour>
      <contour>
        <pt x="272" y="706" on="1"/>
        <pt x="272" y="677" on="0"/>
        <pt x="235" y="641" on="0"/>
        <pt x="203" y="641" on="1"/>
        <pt x="170" y="641" on="0"/>
        <pt x="134" y="675" on="0"/>
        <pt x="134" y="706" on="1"/>
        <pt x="134" y="735" on="0"/>
        <pt x="171" y="771" on="0"/>
        <pt x="203" y="771" on="1"/>
        <pt x="236" y="771" on="0"/>
        <pt x="272" y="737" on="0"/>
      </contour>
      <contour>
        <pt x="472" y="706" on="1"/>
        <pt x="472" y="677" on="0"/>
        <pt x="435" y="641" on="0"/>
        <pt x="403" y="641" on="1"/>
        <pt x="370" y="641" on="0"/>
        <pt x="334" y="675" on="0"/>
        <pt x="334" y="706" on="1"/>
        <pt x="334" y="735" on="0"/>
        <pt x="371" y="771" on="0"/>
        <pt x="403" y="771" on="1"/>
        <pt x="436" y="771" on="0"/>
        <pt x="472" y="737" on="0"/>
      </contour>
    </TTGlyph>
    <TTGlyph name="adieresis.ss01" xMin="48" yMin="-10" xMax="476" yMax="771">
      <contour>
        <pt x="280" y="536" on="1"/>
        <pt x="370" y="536" on="0"/>
        <pt x="476" y="446" on="0"/>
        <pt x="476" y="364" on="1"/>
        <pt x="476" y="0" on="1"/>
        <pt x="383" y="0" on="1"/>
        <pt x="383" y="342" on="1"/>
        <pt x="383" y="386" on="0"/>
        <pt x="320" y="441" on="0"/>
        <pt x="272" y="441" on="1"/>
        <pt x="228" y="441" on="0"/>
        <pt x="157" y="405" on="0"/>
        <pt x="128" y="368" on="1"/>
        <pt x="61" y="435" on="1"/>
        <pt x="108" y="486" on="0"/>
        <pt x="217" y="536" on="0"/>
      </contour>
      <contour>
        <pt x="284" y="319" on="1"/>
        <pt x="430" y="319" on="1"/>
        <pt x="421" y="237" on="1"/>
        <pt x="271" y="237" on="1"/>
        <pt x="210" y="237" on="0"/>
        <pt x="145" y="192" on="0"/>
        <pt x="145" y="151" on="1"/>
        <pt x="145" y="118" on="0"/>
        <pt x="193" y="78" on="0"/>
        <pt x="230" y="78" on="1"/>
        <pt x="284" y="78" on="0"/>
        <pt x="375" y="133" on="0"/>
        <pt x="396" y="174" on="1"/>
        <pt x="420" y="107" on="1"/>
        <pt x="388" y="55" on="0"/>
        <pt x="284" y="-10" on="0"/>
        <pt x="226" y="-10" on="1"/>
        <pt x="150" y="-10" on="0"/>
        <pt x="48" y="77" on="0"/>
        <pt x="48" y="149" on="1"/>
        <pt x="48" y="233" on="0"/>
        <pt x="167" y="319" on="0"/>
      </contour>
      <contour>
        <pt x="244" y="706" on="1"/>
        <pt x="244" y="677" on="0"/>
        <pt x="207" y="641" on="0"/>
        <pt x="175" y="641" on="1"/>
        <pt x="142" y="641" on="0"/>
        <pt x="106" y="675" on="0"/>
        <pt x="106" y="706" on="1"/>
        <pt x="106" y="735" on="0"/>
        <pt x="143" y="771" on="0"/>
        <pt x="175" y="771" on="1"/>
        <pt x="208" y="771" on="0"/>
        <pt x="244" y="737" on="0"/>
      </contour>
      <contour>
        <pt x="444" y="706" on="1"/>
        <pt x="444" y="677" on="0"/>
        <pt x="407" y="641" on="0"/>
        <pt x="375" y="641" on="1"/>
        <pt x="342" y="641" on="0"/>
        <pt x="306" y="675" on="0"/>
        <pt x="306" y="706" on="1"/>
        <pt x="306" y="735" on="0"/>
        <pt x="343" y="771" on="0"/>
        <pt x="375" y="771" on="1"/>
        <pt x="408" y="771" on="0"/>
        <pt x="444" y="737" on="0"/>
      </contour>
    </TTGlyph>
    <TTGlyph name="ae" xMin="38" yMin="-10" xMax="859" yMax="536">
      <contour>
        <pt x="264" y="536" on="1"/>
        <pt x="357" y="536" on="0"/>
        <pt x="466" y="459" on="0"/>
        <pt x="466" y="388" on="1"/>
        <pt x="466" y="263" on="1"/>
        <pt x="373" y="257" on="1"/>
        <pt x="373" y="356" on="1"/>
        <pt x="373" y="393" on="0"/>
        <pt x="306" y="441" on="0"/>
        <pt x="262" y="441" on="1"/>
        <pt x="218" y="441" on="0"/>
        <pt x="147" y="405" on="0"/>
        <pt x="118" y="368" on="1"/>
        <pt x="51" y="435" on="1"/>
        <pt x="94" y="484" on="0"/>
        <pt x="202" y="536" on="0"/>
      </contour>
      <contour>
        <pt x="466" y="264" on="1"/>
        <pt x="466" y="185" on="0"/>
        <pt x="574" y="84" on="0"/>
        <pt x="654" y="84" on="1"/>
        <pt x="693" y="84" on="0"/>
        <pt x="760" y="110" on="0"/>
        <pt x="799" y="144" on="1"/>
        <pt x="849" y="69" on="1"/>
        <pt x="813" y="34" on="0"/>
        <pt x="699" y="-10" on="0"/>
        <pt x="644" y="-10" on="1"/>
        <pt x="523" y="-10" on="0"/>
        <pt x="373" y="138" on="0"/>
        <pt x="373" y="257" on="1"/>
        <pt x="373" y="379" on="0"/>
        <pt x="516" y="536" on="0"/>
        <pt x="621" y="536" on="1"/>
        <pt x="723" y="535" on="0"/>
        <pt x="859" y="391" on="0"/>
        <pt x="859" y="281" on="1"/>
        <pt x="858" y="237" on="1"/>
        <pt x="261" y="237" on="1"/>
        <pt x="200" y="237" on="0"/>
        <pt x="135" y="192" on="0"/>
        <pt x="135" y="151" on="1"/>
        <pt x="135" y="118" on="0"/>
        <pt x="183" y="78" on="0"/>
        <pt x="220" y="78" on="1"/>
        <pt x="274" y="78" on="0"/>
        <pt x="365" y="133" on="0"/>
        <pt x="386" y="174" on="1"/>
        <pt x="430" y="107" on="1"/>
        <pt x="395" y="55" on="0"/>
        <pt x="280" y="-10" on="0"/>
        <pt x="216" y="-10" on="1"/>
        <pt x="140" y="-10" on="0"/>
        <pt x="38" y="77" on="0"/>
        <pt x="38" y="149" on="1"/>
        <pt x="38" y="233" on="0"/>
        <pt x="158" y="320" on="0"/>
        <pt x="274" y="319" on="1"/>
        <pt x="769" y="319" on="1"/>
        <pt x="754" y="302" on="1"/>
        <pt x="754" y="326" on="1"/>
        <pt x="749" y="375" on="0"/>
        <pt x="672" y="441" on="0"/>
        <pt x="621" y="441" on="1"/>
        <pt x="546" y="441" on="0"/>
        <pt x="466" y="351" on="0"/>
      </contour>
    </TTGlyph>
</ttFont>
